<svg xmlns="http://www.w3.org/2000/svg" fill="none" viewBox="0 0 165 165"><path fill="#FEC400" d="M152.594 0H12.3956C5.54969 0 0 5.54969 0 12.3956V152.594c0 6.846 5.54969 12.396 12.3956 12.396H152.594c6.846 0 12.396-5.55 12.396-12.396V12.3956C164.99 5.54969 159.44 0 152.594 0Z"/><path fill="#77655B" d="M55.2972 110.302s-1.3267 6.272-3.9868 7.83c-2.6601 2.613 2.439 3.245 4.9868 2.096 1.8301 0-1.0545 2.456-1.0545 2.456s-3.4799 3.49 4.7113 0c8.1878-3.49 10.2219-6.678 10.2219-6.678l4.2929-4.517s-19.1172-5.32-19.0628-5.099c.0544.221-.1157 3.908-.1157 3.908l.0069.004Z"/><path fill="#ECE2D1" d="M33.632 91.637c.0204 1.2212.2857 2.4287.7789 3.5479.4933 1.1191 1.2008 2.1294 2.0886 2.9696.8845.8436 1.9322 1.5001 3.0717 1.9355 1.143.435 2.3608.636 3.582.599 2.4695.044 4.8541-.8847 6.6434-2.5855 1.7892-1.7008 2.8335-4.0412 2.9084-6.5074-.017-1.2279-.2756-2.4423-.7688-3.5683-.4898-1.1259-1.2042-2.143-2.092-2.99-.8912-.847-1.9424-1.5069-3.0887-1.9424-1.1498-.4354-2.3744-.6361-3.6023-.5918-2.4696-.0375-4.8542.9014-6.6367 2.6124-1.7824 1.711-2.8165 4.0548-2.8811 6.5244l-.0034-.0034Z"/><path fill="#B5AA9A" d="M39.2685 90.8953c1.5614-.0374 3.1228.1157 4.6467.4592 1.2008.347 2.177 1.1226 3.3676 1.4695.0817.0204.1701.0136.2483-.0136.0817-.0272.1497-.0816.2007-.1496.0511-.0681.0817-.1497.0885-.2348.0068-.085-.0136-.17-.0544-.2449-1.2927-2.6703-6.1638-2.0886-8.511-1.8743-.0782 0-.153.0306-.2075.0851-.0544.0544-.085.1292-.085.2075 0 .0782.0306.153.085.2075.0545.0544.1293.085.2075.085h.0102l.0034.0034Z"/><path fill="#ECE2D1" d="M128.136 91.7492c-.02 1.211-.278 2.4084-.761 3.5173-.484 1.1123-1.184 2.1158-2.055 2.956-.874.8402-1.905 1.5001-3.031 1.9425-1.129.442-2.333.656-3.544.629-2.47.048-4.858-.8809-6.647-2.5817-1.79-1.7042-2.834-4.0411-2.909-6.5107.021-1.2178.286-2.4152.772-3.5309.487-1.1158 1.191-2.1227 2.072-2.9629.878-.8402 1.915-1.5001 3.051-1.9389 1.137-.4388 2.344-.6497 3.562-.6157 2.459-.034 4.834.9014 6.609 2.6023 1.776 1.7008 2.813 4.0309 2.888 6.4903l-.007.0034Z"/><path fill="#B5AA9A" d="M122.782 90.3579c-2.357-.2143-7.218-.8096-8.521 1.8743-.044.0748-.061.1599-.058.2483.007.0851.038.1701.092.2381.055.0681.126.1191.208.1463.081.0272.17.0306.255.0068 1.201-.2925 2.156-1.1225 3.367-1.4695 1.531-.3402 3.092-.4932 4.661-.4592.078 0 .153-.0306.207-.0851.055-.0544.085-.1292.085-.2075 0-.0782-.03-.153-.085-.2075-.054-.0544-.129-.085-.207-.085h-.004Z"/><path fill="#ECE2D1" d="M117.016 57.0492v31.8053c0 1.66-.142 3.286-.421 4.8712-2.392 13.8513-14.838 24.4063-29.8294 24.4063H75.8871c-14.9944 0-27.4376-10.555-29.8323-24.4063-.2756-1.5852-.4184-3.2112-.4184-4.8712V57.0492c0-6.6094 2.262-12.7086 6.0821-17.6103 5.5209-7.0856 14.2937-11.6677 24.1686-11.6677h10.8785c16.7054 0 30.2504 13.11 30.2504 29.278Z"/><path fill="#B5AA9A" d="M99.2191 62.8761c-.0987 0-.2007-.0272-.296-.0816-1.2824-.7518-2.7451-1.1974-4.2316-1.2893-1.5001-.0204-3.0377.296-4.429.9253-.2925.1326-.6395 0-.7721-.2926-.1327-.2925 0-.6395.2925-.7721 1.5444-.6974 3.2588-1.0579 4.9528-1.0273 1.694.102 3.337.6055 4.7759 1.4491.2789.1632.3708.5204.2075.7994-.1088.1836-.3027.2891-.5034.2891h.0034ZM72.7135 63.3351c-.0918 0-.1871-.0204-.2755-.068-1.3028-.694-2.7724-1.1022-4.2453-1.177-1.5273-.0374-3.0342.2381-4.4663.813-.2994.119-.6395-.0238-.7586-.3232-.119-.2993.0238-.6395.3232-.7585 1.5783-.6361 3.2451-.9321 4.946-.8947 1.66.0851 3.2996.5409 4.7521 1.3131.2857.153.3911.5068.2415.7891-.1055.1973-.3062.3096-.5171.3096v-.0034Z"/><path fill="#E0D6C2" d="M82.0885 85.1056c-2.0104 0-3.6126-.7858-3.7112-.8368-.2756-.1395-.3878-.4762-.2483-.7518.1394-.2755.4762-.3877.7517-.2517.0374.017 3.2486 1.5784 5.9563.017.2687-.153.6123-.0612.7654.2075.1564.2688.0612.6123-.2075.7654-1.109.6395-2.2655.8538-3.3098.8538l.0034-.0034Z"/><path fill="#fff" d="M68.111 81.8944c3.8551 0 6.9802-3.1251 6.9802-6.9802 0-3.855-3.1251-6.9801-6.9802-6.9801-3.855 0-6.9801 3.1251-6.9801 6.9801 0 3.8551 3.1251 6.9802 6.9801 6.9802ZM94.6201 81.8944c3.855 0 6.9799-3.1251 6.9799-6.9802 0-3.855-3.1249-6.9801-6.9799-6.9801-3.8551 0-6.9802 3.1251-6.9802 6.9801 0 3.8551 3.1251 6.9802 6.9802 6.9802Z"/><path fill="#404040" d="M68.111 79.4352c1.6983 0 3.0751-1.5763 3.0751-3.5207 0-1.9444-1.3768-3.5207-3.0751-3.5207s-3.0751 1.5763-3.0751 3.5207c0 1.9444 1.3768 3.5207 3.0751 3.5207ZM94.6199 79.4352c1.6983 0 3.0751-1.5763 3.0751-3.5207 0-1.9444-1.3768-3.5207-3.0751-3.5207s-3.0751 1.5763-3.0751 3.5207c0 1.9444 1.3768 3.5207 3.0751 3.5207Z"/><path fill="#ECE2D1" d="M75.0913 65.6416H61.1276v5.6501h13.9637v-5.6501ZM101.699 65.6416H87.7352v5.6501h13.9638v-5.6501ZM95.076 129.15v-12.64c.0578-1.116-.2449-2.228-.8947-3.269-.6497-1.041-1.6327-1.99-2.888-2.793-1.2552-.803-2.7621-1.439-4.4255-1.874-1.6634-.436-3.4527-.66-5.2589-.66-1.8063 0-3.5956.224-5.259.66-1.6634.435-3.1669 1.075-4.4255 1.874-1.2552.803-2.2383 1.752-2.888 2.793-.6497 1.041-.9559 2.153-.8946 3.269v12.64c-22.3148 2.565-36.1527 13.614-36.1527 24.676h99.2399c0-11.052-13.882-22.111-36.153-24.676Z"/><path fill="#D1C7B8" d="M68.1451 112.411h26.9308v12.919s-12.1574 6.106-26.9308 0v-12.919Z"/><path fill="#95C352" d="M136.644 165H26.5769c0-7.32 2.939-14.243 7.885-20.046 7.1571-8.405 18.5185-14.47 31.2339-16.005 2.075 5.77 8.5381 9.977 16.1986 9.977 7.6605 0 14.0726-4.173 16.1714-9.905 12.4842 1.636 23.6112 7.633 30.6692 15.909 4.963 5.81 7.909 12.74 7.909 20.07Z"/><path fill="#C1BAB0" d="M116.666 93.5454c-2.398 13.9536-14.872 24.5866-29.8934 24.5866H75.8703c-15.0285 0-27.4989-10.633-29.897-24.5866 0 0 27.3968-10.3376 70.6967 0h-.004Z"/><path fill="#67635C" d="M82.5852 97.8448c-5.5855 0-10.079-2.8846-10.3274-3.0479-.2687-.1769-.3435-.5374-.1701-.8062.1735-.2687.5375-.3435.8062-.17.0783.051 7.7626 4.9698 15.1646 1.7382.2959-.1293.6395.0068.7687.3027.1293.296-.0068.6395-.3027.7688-2.024.8844-4.0446 1.2178-5.9427 1.2178l.0034-.0034Z"/><path fill="#77655B" d="M52.6982 44.7962s-5.9834 21.944-7.0686 37.0745V56.4128c0-6.6094 2.2621-12.7085 6.0822-17.6103l.9864 5.9937ZM109.941 44.7962s5.984 21.944 7.069 37.0745V56.4128c0-6.6094-2.262-12.7085-6.082-17.6103l-.987 5.9937Z"/><path fill="#77655B" d="M78.5506 24.349c-4.2589-2.2383-10.5621-2.007-16.3891 1.0443-2.7621 1.4491-5.0616 3.3438-6.7795 5.446-2.7723 1.8845-4.3677 4.099-4.3677 6.4632 0 .6463.1191 1.2824.347 1.9015-1.0715 1.6362-4.8031 7.072-8.0721 8.6197.1497-.0306 2.5886-.551 5.1569-1.3844-.1191.3469-.1837.7075-.1837 1.0817 0 2.3029 2.4356 4.184 5.514 4.3201.8981 6.9121 2.0274 13.3956 2.8064 10.3342.9865-3.8813 8.3102-8.1742 13.1644-10.6404-1.8846 2.1737-4.395 4.4902-7.2149 5.5855-3.8337 1.4865 9.1368.6769 17.8654-6.2522.017-.0136.068-.0544.1463-.1123.3707-.2993.7313-.6088 1.0817-.932.1258 0 .2483 0 .3708-.0034 2.0375-.0136 4.0275-.1089 5.9494-.2789.2177-.0205.432-.0409.6463-.0613.0443.0817.0919.1667.1395.2483 1.3335 2.2757 3.8507 4.6127 8.5755 4.7862 9.3748.3469 14.7598 8.3374 9.3748.3469-1.153-1.711-2.211-3.4288-3.157-5.065 2.647-.8334 4.78-2.4288 5.984-4.7283.163-.3164.309-.6361.432-.9627l2.01 3.1125s4.055 3.2078 3.548 1.1872c-.401-1.5852-2.354-7.5074-3.177-9.994 1.514-.8334 2.347-2.7826 1.83-2.388-.462.3538-1.704-.0816-2.476-.4048-.895-2.7485-3.96-5.2113-8.46-7.0924-.915-.6769-1.905-1.296-2.963-1.8505-4.9153-2.575-10.1708-3.1431-14.2528-1.9151.0204.0544.0408.1054.0646.1599-.1599-.0102-.3197-.017-.4796-.0238.1361-.0477.2755-.0953.415-.1361-.5409-1.4355-.0306-3.2282 1.2484-5.1603-3.4731.2211-4.1194 3.5955-4.2282 5.1671v.0306c0 .4728-.0205.7654-.0205.7654s-.0136-.2994.0171-.7654c0-.0102 0-.0204.0034-.0306-.0239-2.143-.6498-7.8374-6.6775-7.368 2.0036.5205 2.2723 4.3031 2.2077 6.9496ZM54.4432 43.0818c.051.0375.1054.0817.1598.1225-.0714-.0068-.1394-.0102-.2109-.0102l.0511-.1123Z"/></svg>