<svg xmlns="http://www.w3.org/2000/svg" fill="none" viewBox="0 0 165 166"><g clip-path="url(#a)"><path fill="#FEC400" d="M152.28.368408H12.7235C5.90903.368408.384766 5.9191.384766 12.7662V152.99c0 6.847 5.524264 12.398 12.338734 12.398H152.28c6.814 0 12.339-5.551 12.339-12.398V12.7662c0-6.8471-5.525-12.397792-12.339-12.397792Z"/><path fill="#E83D59" d="M94.5747 129.099v.038c-.1354-.017-.2675-.028-.4029-.038h.4029Z"/><path fill="#ECE2D1" d="M95.0249 129.542v-12.643c.0576-1.116-.2438-2.228-.8905-3.27-.6467-1.041-1.6253-1.99-2.8748-2.793-1.2494-.803-2.7494-1.439-4.4052-1.874-1.6558-.436-3.4369-.66-5.2349-.66-1.7979 0-3.579.224-5.2348.66-1.6558.435-3.1524 1.075-4.4052 1.874-1.2495.803-2.2281 1.752-2.8748 2.793-.6467 1.042-.9515 2.154-.8905 3.27v12.643c-22.2126 2.565-35.987 13.616-35.987 24.68h98.7848c0-11.054-13.819-22.115-35.9871-24.68ZM33.8627 92.0217c.0203 1.2214.2844 2.4292.7754 3.5485.491 1.1193 1.1953 2.1298 2.079 2.9702.8804.8437 1.9233 1.5006 3.0576 1.9356 1.1377.436 2.3499.636 3.5655.599 2.4583.044 4.8319-.885 6.613-2.5857 1.7811-1.7011 2.8206-4.0418 2.8951-6.5085-.017-1.2282-.2743-2.4428-.7653-3.5689-.4876-1.1262-1.1986-2.1434-2.0824-2.9906-.8838-.8472-1.9334-1.5072-3.0745-1.9427-1.1445-.4355-2.3635-.6362-3.5859-.592-2.4582-.0374-4.8319.9016-6.6062 2.6129-1.7742 1.7114-2.8036 4.0555-2.8679 6.5256l-.0034-.0034Z"/><path fill="#B5AA9A" d="M39.4733 91.28c1.5542-.0375 3.1084.1156 4.6254.4593 1.1953.347 2.1671 1.1227 3.3522 1.4697.0812.0204.1693.0137.2472-.0136.0812-.0272.1489-.0816.1997-.1497.0508-.068.0813-.1497.0881-.2347.0067-.0851-.0136-.1701-.0542-.245-1.2867-2.6708-6.1355-2.089-8.4719-1.8746-.0779 0-.1524.0306-.2066.085-.0541.0545-.0846.1293-.0846.2076 0 .0782.0305.1531.0846.2075.0542.0544.1287.0851.2066.0851h.0101l.0034.0034Z"/><path fill="#ECE2D1" d="M127.934 92.1339c-.02 1.2112-.278 2.4088-.758 3.5179-.481 1.1126-1.179 2.1162-2.046 2.9566-.87.8403-1.896 1.5006-3.017 1.9426-1.124.442-2.322.657-3.528.629-2.458.048-4.835-.881-6.616-2.5818-1.781-1.7046-2.821-4.0419-2.895-6.5119.02-1.218.284-2.4156.768-3.5316.485-1.1159 1.185-2.123 2.062-2.9633.874-.8404 1.907-1.5004 3.038-1.9393 1.131-.4389 2.333-.6499 3.545-.6158 2.448-.0341 4.812.9016 6.579 2.6027 1.768 1.7011 2.8 4.0317 2.875 6.4915l-.007.0034Z"/><path fill="#B5AA9A" d="M122.604 90.7425c-2.346-.2144-7.185-.8098-8.482 1.8746-.044.0748-.061.1599-.057.2484.007.085.037.1701.091.2381.054.0681.125.1191.207.1463.081.0272.169.0306.254.0068 1.195-.2926 2.146-1.1227 3.352-1.4698 1.524-.3402 3.078-.4933 4.639-.4593.078 0 .152-.0306.206-.085.054-.0545.085-.1293.085-.2076 0-.0782-.031-.1531-.085-.2075-.054-.0544-.128-.085-.206-.085h-.004Z"/><path fill="#D1C7B8" d="M68.2175 111.098h26.8074v12.922s-12.1017 6.107-26.8074 0v-12.922Z"/><path fill="#ECE2D1" d="M117.048 57.4275v31.811c0 1.6603-.142 3.2866-.42 4.8721-2.38 13.8544-14.77 24.4114-29.6923 24.4114H76.1071c-14.9258 0-27.312-10.557-29.6957-24.4114-.2743-1.5855-.4165-3.2118-.4165-4.8721v-31.811c0-6.6106 2.2517-12.7108 6.0542-17.6135 5.4956-7.0869 14.2282-11.6697 24.058-11.6697h10.8286c16.6293 0 30.1123 13.1123 30.1123 29.2832Z"/><path fill="#B5AA9A" d="M99.1492 63.2557c-.0982 0-.1998-.0272-.2946-.0817-1.2765-.7519-2.7325-1.1975-4.2122-1.2894-1.4933-.0204-3.0238.296-4.4087.9254-.2912.1327-.6365 0-.7686-.2926-.132-.2926 0-.6396.2912-.7723 1.5373-.6975 3.2439-1.0581 4.9301-1.0275 1.6863.1021 3.3217.6056 4.754 1.4494.2777.1633.3691.5205.2066.7995-.1084.1837-.3014.2892-.5012.2892h.0034ZM72.7651 63.7149c-.0914 0-.1862-.0204-.2743-.068-1.2968-.6941-2.7596-1.1023-4.2258-1.1772-1.5203-.0374-3.0203.2382-4.4458.8131-.298.1191-.6366-.0238-.7551-.3232-.1185-.2994.0237-.6396.3216-.7587 1.5712-.6362 3.2303-.9322 4.9234-.8948 1.6524.0851 3.2844.541 4.7303 1.3133.2844.1531.3894.5069.2404.7893-.105.1973-.3048.3096-.5147.3096v-.0034Z"/><path stroke="#E0D6C2" stroke-linecap="round" stroke-linejoin="round" stroke-width="3.3" d="M78.6534 84.1523s3.4538 1.742 6.4606 0"/><path fill="#fff" d="M68.1837 82.2775c3.8373 0 6.9481-3.1257 6.9481-6.9814 0-3.8557-3.1108-6.9814-6.9481-6.9814-3.8374 0-6.9482 3.1257-6.9482 6.9814 0 3.8557 3.1108 6.9814 6.9482 6.9814ZM94.5712 82.2775c3.8374 0 6.9478-3.1257 6.9478-6.9814 0-3.8557-3.1104-6.9814-6.9478-6.9814-3.8373 0-6.9482 3.1257-6.9482 6.9814 0 3.8557 3.1109 6.9814 6.9482 6.9814Z"/><path fill="#ECE2D1" d="M75.1319 66.0217H61.2322v5.6512h13.8997v-5.6512ZM101.618 66.0217H87.7179v5.6512h13.9001v-5.6512Z"/><path fill="#404040" d="M68.1837 79.8178c1.6905 0 3.061-1.5765 3.061-3.5213s-1.3705-3.5214-3.061-3.5214c-1.6906 0-3.061 1.5766-3.061 3.5214 0 1.9448 1.3704 3.5213 3.061 3.5213ZM94.5712 79.8178c1.6906 0 3.061-1.5765 3.061-3.5213s-1.3704-3.5214-3.061-3.5214c-1.6905 0-3.0609 1.5766-3.0609 3.5214 0 1.9448 1.3704 3.5213 3.0609 3.5213Z"/><path fill="#fff" d="M136.403 165.398H26.84c0-7.322 2.9255-14.245 7.8488-20.049 7.1243-8.407 18.4337-14.474 31.0908-16.008 2.0655 5.77 8.499 9.979 16.1244 9.979 7.6254 0 14.0081-4.175 16.0973-9.907 12.4267 1.636 23.5027 7.634 30.5287 15.912 4.94 5.811 7.873 12.741 7.873 20.073Z"/><path fill="#CE9C5E" d="M95.025 129.099c22.585 1.678 41.56 17.757 41.56 36.421h-41.56v-36.421ZM68.1837 165.52H26.6233c0-18.664 18.9754-34.743 41.5604-36.421v36.421Z"/><path fill="#A49791" d="M116.516 93.9303c-2.387 13.9557-14.804 24.5917-29.7563 24.5917H75.9074c-14.9596 0-27.3729-10.636-29.7601-24.5917 0 0 27.2713-10.3395 70.3727 0h-.004Z"/><path fill="#67635C" d="M82.5914 98.2308c-5.5599 0-10.0329-2.8851-10.2801-3.0484-.2675-.1769-.342-.5376-.1693-.8064.1727-.2687.535-.3436.8025-.1701.0779.0511 7.727 4.9707 15.095 1.7386.2946-.1293.6366.0068.7653.3028.1287.296-.0068.6396-.3014.7689-2.0147.8846-4.026 1.218-5.9154 1.218l.0034-.0034Z"/><path fill="#77655B" d="M52.8482 45.809s-5.956 21.9479-7.0362 37.0811V57.4277c0-6.6106 2.2517-12.7108 6.0543-17.6135l.9819 5.9948ZM109.92 45.8837s6.105 22.1248 7.23 37.258l.094-25.6393c0-6.6106-2.343-12.7108-6.301-17.6135l-1.023 5.9948Z"/><path fill="#77655B" d="M80.4514 32.5674S78.413 49.5379 58.7027 58.2579c-19.7102 8.7199-19.5341 4.4331-19.5341 4.4331s-1.6863-47.686 41.2828-30.1236Z"/><path fill="#77655B" d="M70.8993 21.9557c9.1018-2.6367 39.0617-7.6856 53.9197 33.9375 4.192 5.9846 6.193 5.3211 6.193 5.3211s-25.362 14.116-56.7029-15.0005c-7.1988-10.7069-12.7824-15.0039-8.8748-20.4816 1.3239-1.8542 3.281-3.1436 5.4617-3.7765h.0033Z"/><path fill="#575656" d="M74.133 70.2781H57.6835c-.9686 0-1.7539.789-1.7539 1.7623v8.5057c0 .9733.7853 1.7623 1.7539 1.7623H74.133c.9687 0 1.754-.789 1.754-1.7623v-8.5057c0-.9733-.7853-1.7623-1.754-1.7623Z"/><path fill="#554797" d="M74.1364 83.0772H57.6836c-1.3883 0-2.5159-1.1329-2.5159-2.5278v-8.5091c0-1.3949 1.1276-2.5278 2.5159-2.5278h16.4528c1.3849 0 2.5158 1.1329 2.5158 2.5278v8.5091c0 1.3915-1.1275 2.5278-2.5158 2.5278ZM57.6836 71.0469c-.5452 0-.9922.4457-.9922.9968v8.5091c0 .5477.4436.9968.9922.9968h16.4528c.5452 0 .9921-.4457.9921-.9968v-8.5091c0-.5477-.4436-.9968-.9921-.9968H57.6836Z"/><path fill="#878787" d="M66.6803 71.0435c-4.8387 4.5794-7.964 7.4883-9.9889 9.3391v-1.3779c2.3838-2.2012 5.4854-5.1136 8.5024-7.9612h1.4865ZM72.9546 71.0435c-1.4898 1.4119-3.3014 3.1198-5.1163 4.821-2.7833 2.6129-4.7303 4.4229-6.1051 5.6783h-4.07c1.6761-1.4357 6.6028-6.0322 11.3399-10.4993h3.9515Z"/><path fill="#575656" d="M104.079 70.2781H87.6298c-.9687 0-1.7539.789-1.7539 1.7623v8.5057c0 .9733.7852 1.7623 1.7539 1.7623h16.4492c.969 0 1.754-.789 1.754-1.7623v-8.5057c0-.9733-.785-1.7623-1.754-1.7623Z"/><path fill="#554797" d="M104.079 83.0772H87.6264c-1.3882 0-2.5158-1.1329-2.5158-2.5278v-8.5091c0-1.3949 1.1276-2.5278 2.5158-2.5278h16.4526c1.385 0 2.516 1.1329 2.516 2.5278v8.5091c0 1.3915-1.127 2.5278-2.516 2.5278ZM87.6264 71.0469c-.5451 0-.9921.4457-.9921.9968v8.5091c0 .5477.4436.9968.9921.9968h16.4526c.545 0 .992-.4457.992-.9968v-8.5091c0-.5477-.443-.9968-.992-.9968H87.6264Z"/><path fill="#878787" d="M96.6231 71.0435c-4.8386 4.5794-7.964 7.4883-9.9888 9.3391v-1.3779c2.3838-2.2012 5.4854-5.1136 8.5024-7.9612h1.4864ZM102.898 71.0435c-1.49 1.4119-3.3019 3.1198-5.1168 4.821-2.7834 2.6129-4.7303 4.4229-6.1051 5.6783h-4.07c1.6761-1.4357 6.6028-6.0322 11.3399-10.4993h3.952Z"/></g><defs><clipPath id="a"><path fill="#fff" d="M0 0h165v166H0z"/></clipPath></defs></svg>