<svg xmlns="http://www.w3.org/2000/svg" fill="none" viewBox="0 0 165 163"><g clip-path="url(#a)"><path fill="#FEC400" d="M152.28.137939H12.7235C5.90903.137939.384766 5.57881.384766 12.2905V149.74c0 6.712 5.524264 12.153 12.338734 12.153H152.28c6.814 0 12.339-5.441 12.339-12.153V12.2905c0-6.71169-5.525-12.152561-12.339-12.152561Z"/><path fill="#DCD8D2" d="M61.1475 113.893c-.193.313-.3996.613-.6163.907-1.2054 1.631-2.7325 2.901-4.412 3.765-.3995.194-.8126.38-1.2461.557l-.0067.003c-3.6434 1.498-8.3737 2.428-12.4201 2.505-8.2315.15-9.5283-6.737-9.5283-6.737 1.2697.03 2.3871-.3 3.3454-.797 2.3296-1.214 3.8262-3.565 4.0768-6.146.1795-1.844.7856-3.705 1.8522-5.429 3.4876-5.6397 10.5577-7.6607 15.7925-4.5225 5.2315 3.1385 6.6502 10.2545 3.1626 15.8945Z"/><path fill="#B7B4AE" d="M61.1476 113.809c-.1964.314-.403.617-.6163.907-.0745.101-.149.201-.2269.301-14.0013-1.354-16.2937-14.227-16.2937-14.227s-.0744-.164-.2065-.45c3.7653-3.9957 9.657-5.1363 14.1774-2.4217 5.2315 3.1387 6.6536 10.2517 3.166 15.8907Z"/><path fill="#C6C2BD" d="M61.1476 113.809c-.1964.314-.403.617-.6163.907-.0745.101-.149.201-.2269.301-14.0013-1.354-16.2937-14.227-16.2937-14.227s-.0744-.164-.2065-.45c3.7653-3.9957 9.657-5.1363 14.1774-2.4217 5.2315 3.1387 6.6536 10.2517 3.166 15.8907Z"/><path fill="#E83D59" d="M94.5746 127.126v.037c-.1355-.017-.2675-.027-.403-.037h.403Z"/><path fill="#ECE2D1" d="M95.0249 127.56v-12.393c.0576-1.094-.2438-2.184-.8905-3.205-.6467-1.02-1.6253-1.951-2.8747-2.738-1.2495-.787-2.7495-1.411-4.4053-1.838-1.6558-.426-3.4369-.646-5.2348-.646-1.798 0-3.5791.22-5.2349.646-1.6558.427-3.1524 1.054-4.4052 1.838-1.2495.787-2.2281 1.718-2.8748 2.738-.6467 1.021-.9515 2.111-.8905 3.205v12.393c-22.2126 2.514-35.987 13.346-35.987 24.191h98.7848c0-10.835-13.819-21.677-35.9871-24.191ZM33.8627 90.7817c.0203 1.1973.2844 2.3812.7754 3.4784s1.1953 2.0877 2.079 2.9114c.8804.8271 1.9233 1.4707 3.0576 1.8976 1.1377.4268 2.3499.6236 3.5655.5869 2.4583.0434 4.8319-.8671 6.613-2.5345 1.7811-1.6675 2.8206-3.9619 2.8951-6.3798-.017-1.2039-.2743-2.3945-.7653-3.4983-.4876-1.1039-1.1986-2.1011-2.0824-2.9315-.8838-.8304-1.9334-1.4773-3.0745-1.9042-1.1445-.4269-2.3635-.6236-3.5859-.5803-2.4582-.0367-4.8319.8838-6.6062 2.5612-1.7742 1.6775-2.8036 3.9753-2.8679 6.3965l-.0034-.0034Z"/><path fill="#B5AA9A" d="M39.4733 90.0548c1.5542-.0367 3.1084.1134 4.6254.4502 1.1953.3402 2.1671 1.1005 3.3522 1.4407.0812.02.1693.0133.2472-.0133.0812-.0267.1489-.0801.1997-.1468.0508-.0667.0813-.1467.0881-.2301.0067-.0834-.0136-.1667-.0542-.2401-1.2867-2.6179-6.1355-2.0477-8.4719-1.8376-.0779 0-.1524.03-.2066.0834-.0541.0534-.0846.1267-.0846.2034 0 .0767.0305.1501.0846.2035.0542.0533.1287.0833.2066.0833h.0101l.0034.0034Z"/><path fill="#ECE2D1" d="M127.934 90.8918c-.02 1.1873-.278 2.3612-.758 3.4484-.481 1.0905-1.179 2.0743-2.046 2.898-.87.8237-1.896 1.4707-3.017 1.9043-1.124.4335-2.322.6436-3.528.6169-2.458.0467-4.835-.8637-6.616-2.5312-1.781-1.6708-2.821-3.9619-2.895-6.3831.02-1.1939.284-2.3678.768-3.4616.485-1.0939 1.185-2.081 2.062-2.9048.874-.8237 1.907-1.4707 3.038-1.9009 1.131-.4302 2.333-.637 3.545-.6036 2.448-.0334 4.812.8837 6.579 2.5512 1.768 1.6675 2.8 3.9519 2.875 6.3631l-.007.0033Z"/><path fill="#B5AA9A" d="M122.604 89.5276c-2.346-.2101-7.185-.7937-8.482 1.8376-.044.0733-.061.1567-.057.2434.007.0834.037.1668.091.2335.054.0667.125.1167.207.1434.081.0267.169.03.254.0066 1.195-.2868 2.146-1.1005 3.352-1.4406 1.524-.3335 3.078-.4836 4.639-.4503.078 0 .152-.03.206-.0833.054-.0534.085-.1268.085-.2035 0-.0767-.031-.15-.085-.2034-.054-.0534-.128-.0834-.206-.0834h-.004Z"/><path fill="#D1C7B8" d="M68.2177 111.148H95.025v12.666s-12.1017 5.987-26.8073 0v-12.666Z"/><path fill="#ECE2D1" d="M116.865 56.8721v31.1817c0 1.6274-.142 3.2215-.42 4.7756-2.38 13.5796-14.77 23.9286-29.6922 23.9286H75.9242c-14.9257 0-27.3119-10.349-29.6957-23.9286-.2743-1.5541-.4165-3.1482-.4165-4.7756V56.8721c0-6.4798 2.2517-12.4594 6.0543-17.265 5.4955-6.9467 14.2282-11.4389 24.0579-11.4389h10.8286c16.6292 0 30.1122 12.8529 30.1122 28.7039Z"/><path fill="#B5AA9A" d="M99.1492 62.5848c-.0982 0-.1998-.0266-.2946-.08-1.2765-.737-2.7325-1.1739-4.2122-1.2639-1.4933-.02-3.0238.2901-4.4087.9071-.2912.13-.6365 0-.7686-.2868-.132-.2868 0-.627.2912-.7571 1.5373-.6836 3.2439-1.0371 4.9301-1.0071 1.6863.1 3.3217.5936 4.754 1.4207.2777.16.3691.5102.2066.7837-.1084.1801-.3014.2834-.5012.2834h.0034ZM72.7651 63.0349c-.0914 0-.1862-.02-.2743-.0667-1.2968-.6803-2.7596-1.0805-4.2258-1.1539-1.5203-.0367-3.0203.2334-4.4458.797-.298.1168-.6366-.0233-.7551-.3168-.1185-.2935.0237-.6269.3216-.7437 1.5712-.6236 3.2303-.9137 4.9234-.8771 1.6524.0834 3.2844.5303 4.7303 1.2873.2844.1501.3894.4969.2404.7737-.105.1935-.3048.3035-.5147.3035v-.0033Z"/><path stroke="#E0D6C2" stroke-linecap="round" stroke-linejoin="round" stroke-width="3.3" d="M78.6534 83.0679s3.4538 1.7075 6.4606 0"/><path fill="#fff" d="M68.1838 81.2303c3.8374 0 6.9482-3.0638 6.9482-6.8433s-3.1108-6.8433-6.9482-6.8433-6.9482 3.0638-6.9482 6.8433 3.1108 6.8433 6.9482 6.8433ZM94.5712 81.2303c3.8374 0 6.9478-3.0638 6.9478-6.8433s-3.1104-6.8433-6.9478-6.8433c-3.8373 0-6.9482 3.0638-6.9482 6.8433s3.1109 6.8433 6.9482 6.8433Z"/><path fill="#ECE2D1" d="M75.1319 65.2961H61.2322v5.5394h13.8997v-5.5394ZM101.618 65.2961H87.7179v5.5394h13.9001v-5.5394Z"/><path fill="#404040" d="M68.1837 78.8193c1.6905 0 3.061-1.5453 3.061-3.4516s-1.3705-3.4517-3.061-3.4517c-1.6906 0-3.061 1.5454-3.061 3.4517s1.3704 3.4516 3.061 3.4516ZM94.5713 78.8193c1.6905 0 3.0609-1.5453 3.0609-3.4516s-1.3704-3.4517-3.0609-3.4517c-1.6906 0-3.061 1.5454-3.061 3.4517s1.3704 3.4516 3.061 3.4516Z"/><path fill="#353535" d="M136.403 162.706H26.84c0-7.177 2.9255-13.963 7.8488-19.653 7.1243-8.24 18.4337-14.186 31.0908-15.69 2.0655 5.656 8.499 9.781 16.1244 9.781 7.6254 0 14.0081-4.092 16.0973-9.711 12.4267 1.604 23.5027 7.483 30.5287 15.597 4.94 5.696 7.873 12.489 7.873 19.676Z"/><path fill="#DCD8D2" d="M116.516 92.6526c-2.387 13.6804-14.804 24.1054-29.7563 24.1054H75.9074c-14.9596 0-27.3729-10.425-29.7601-24.1054 0 0 27.2713-10.1349 70.3727 0h-.004Z"/><path fill="#67635C" d="M82.5914 96.8678c-5.5599 0-10.0329-2.828-10.2801-2.9881-.2675-.1734-.342-.5269-.1693-.7904.1727-.2634.535-.3368.8025-.1667.0779.05 7.727 4.8723 15.095 1.7041.2946-.1267.6366.0067.7653.2969.1286.2901-.0068.6269-.3014.7536-2.0147.8671-4.026 1.194-5.9154 1.194l.0034-.0034Z"/><path fill="#DCD8D2" d="M52.8482 45.4831s-5.956 21.5137-7.0362 36.3475V56.8719c0-6.4798 2.2517-12.4593 6.0543-17.265l.9819 5.8762ZM109.829 45.4831s5.956 21.5137 7.036 36.3475V56.8719c0-6.4798-2.252-12.4593-6.054-17.265l-.982 5.8762Z"/><path fill="#353535" d="M78.2098 81.6806H55.5266V68.1841h22.6832v13.4965Zm-21.3288-1.334h19.9744V69.5181H56.881v10.8285ZM107.442 81.6806H84.7584V68.1841h22.6836v13.4965Zm-21.3292-1.334h19.9742V69.5181H86.1128v10.8285Z"/></g><defs><clipPath id="a"><path fill="#fff" d="M0 0h165v163H0z"/></clipPath></defs></svg>