<svg xmlns="http://www.w3.org/2000/svg" fill="none" viewBox="0 0 165 165"><g clip-path="url(#a)"><path fill="#FEC400" d="M152.618.244385H13.0622C6.24765.244385.723389 5.76864.723389 12.5832V152.139c0 6.815 5.524261 12.339 12.338811 12.339H152.618c6.815 0 12.339-5.524 12.339-12.339V12.5832c0-6.81456-5.524-12.338815-12.339-12.338815Z"/><path fill="#5F5049" d="M61.3405 22.2809s4.3409 26.7904-17.8276 21.9856c0 0-18.6537 3.6773-16.7542-9.9177 0 0-7.6829-20.2317 5.9426-21.0579 0 0 5.6445-15.65713 17.1876-6.0001 0 0 13.7101-1.84201 11.4516 14.9901Z"/><path fill="#77655B" d="M61.6926 107.647S26.8298 91.082 40.1675 49.2101C53.5052 7.33811 103.568 21.2954 112.121 33.5089c8.553 12.2135 23.655 40.0469 1.273 72.8001l-51.7014 1.338Z"/><path fill="#ECE2D1" d="M96.0239 128.789v-12.582c.0643-1.111-.2607-2.218-.9582-3.254-.6942-1.037-1.7472-1.981-3.0881-2.78-1.3443-.799-2.9527-1.433-4.7337-1.866-1.7777-.433-3.6908-.657-5.6243-.657-1.9334 0-3.8465.224-5.6242.657-1.7777.433-3.3894 1.07-4.7337 1.866-1.3443.799-2.3939 1.743-3.0881 2.78-.6941 1.036-1.0192 2.143-.9582 3.254v12.582c-23.8683 2.553-38.6688 13.551-38.6688 24.563H134.693c0-11.002-14.848-22.01-38.6691-24.563ZM30.8153 91.4477c.0203 1.2156.2844 2.4177.7754 3.5317.491 1.114 1.1953 2.1197 2.079 2.956.8804.8398 1.9233 1.4933 3.0577 1.9267 1.1377.4339 2.3499.6329 3.5655.5959 2.4583.044 4.8319-.8803 6.6129-2.5734 1.7811-1.693 2.8206-4.0226 2.8951-6.4775-.0169-1.2224-.2743-2.4312-.7652-3.552-.4876-1.1207-1.1987-2.1332-2.0825-2.9763-.8837-.8431-1.9334-1.5-3.0745-1.9334-1.1445-.4334-2.3635-.6332-3.5858-.5892-2.4583-.0373-4.8319.8973-6.6062 2.6005-1.7743 1.7032-2.8037 4.0362-2.868 6.4944l-.0034-.0034Z"/><path fill="#B5AA9A" d="M36.426 90.7097c1.5542-.0373 3.1084.1151 4.6253.4571 1.1953.3454 2.1671 1.1174 3.3522 1.4627.0813.0204.1693.0136.2472-.0135.0813-.0271.149-.0813.1998-.149.0508-.0677.0812-.149.088-.2336.0068-.0847-.0135-.1693-.0542-.2438-1.2867-2.6581-6.1355-2.0791-8.4719-1.8657-.0779 0-.1524.0304-.2065.0846-.0542.0542-.0847.1287-.0847.2066 0 .0778.0305.1523.0847.2065.0541.0542.1286.0847.2065.0847h.0102l.0034.0034Z"/><path fill="#ECE2D1" d="M130.985 91.5595c-.02 1.2055-.278 2.3974-.759 3.5012-.48 1.1073-1.178 2.1062-2.045 2.9425-.87.8364-1.896 1.4933-3.017 1.9335-1.124.4403-2.323.6533-3.528.6263-2.458.047-4.835-.8769-6.616-2.5699-1.781-1.6965-2.821-4.0227-2.895-6.481.02-1.2122.284-2.4041.768-3.5147.484-1.1106 1.185-2.1129 2.062-2.9492.874-.8364 1.907-1.4933 3.038-1.9301 1.131-.4368 2.333-.6467 3.545-.6129 2.448-.0338 4.811.8973 6.579 2.5904 1.767 1.693 2.8 4.0125 2.875 6.4606l-.007.0033Z"/><path fill="#B5AA9A" d="M125.652 90.1746c-2.347-.2134-7.185-.8059-8.482 1.8657-.044.0745-.061.1591-.058.2472.007.0846.037.1693.092.237.054.0677.125.1185.206.1456.081.0271.17.0305.254.0068 1.195-.2912 2.147-1.1174 3.352-1.4628 1.524-.3386 3.078-.491 4.639-.4571.078 0 .153-.0305.207-.0847.054-.0542.084-.1287.084-.2065 0-.0779-.03-.1524-.084-.2066-.054-.0542-.129-.0846-.207-.0846h-.003Z"/><path fill="#D1C7B8" d="M67.2153 112.126h28.812v12.861s-3.5181 1.066-8.5227 1.716c-2.885 3.163-9.5013 2.621-12.156.237-2.763-.304-5.5362-.91-8.1333-1.957v-12.86.003Z"/><path fill="#ECE2D1" d="M75.4977 117.822h11.6378c17.8685 0 32.3535-13.047 32.3535-29.144V57.0184c0-16.0939-14.485-29.1438-32.3535-29.1438H75.4977c-17.8682 0-32.3538 13.0499-32.3538 29.1438V88.678c0 16.097 14.4856 29.144 32.3538 29.144Z"/><path fill="#B5AA9A" d="M99.1492 62.8187c-.0982 0-.1998-.0271-.2946-.0813-1.2765-.7483-2.7325-1.1919-4.2122-1.2833-1.4933-.0203-3.0238.2946-4.4087.921-.2912.1321-.6365 0-.7686-.2912-.132-.2912 0-.6366.2912-.7686 1.5373-.6942 3.2439-1.0531 4.9301-1.0226 1.6863.1016 3.3217.6027 4.754 1.4424.2777.1626.3691.5181.2066.7958-.1084.1828-.3014.2878-.5012.2878h.0034ZM72.7651 63.2758c-.0914 0-.1862-.0203-.2743-.0677-1.2968-.6907-2.7596-1.0971-4.2258-1.1716-1.5169-.0372-3.0203.2371-4.4458.8093-.298.1185-.6366-.0237-.7551-.3217-.1185-.298.0237-.6366.3216-.7551 1.5712-.6332 3.2303-.9277 4.9234-.8905 1.6524.0847 3.2844.5384 4.7303 1.307.2844.1524.3894.5045.2404.7856-.105.1964-.3048.3081-.5147.3081v-.0034Z"/><path stroke="#E0D6C2" stroke-linecap="round" stroke-linejoin="round" stroke-width="3.3" d="M78.6534 83.6158s3.4538 1.7337 6.4606 0"/><path fill="#fff" d="M68.1838 81.7501c3.8374 0 6.9482-3.1108 6.9482-6.9482 0-3.8373-3.1108-6.9481-6.9482-6.9481s-6.9482 3.1108-6.9482 6.9481c0 3.8374 3.1108 6.9482 6.9482 6.9482ZM94.5712 81.7501c3.8374 0 6.9478-3.1108 6.9478-6.9482 0-3.8373-3.1104-6.9481-6.9478-6.9481-3.8373 0-6.9482 3.1108-6.9482 6.9481 0 3.8374 3.1109 6.9482 6.9482 6.9482Z"/><path fill="#ECE2D1" d="M75.1319 65.5715H61.2322v5.6243h13.8997v-5.6243ZM101.618 65.5715H87.7179v5.6243h13.9001v-5.6243Z"/><path fill="#404040" d="M68.1838 79.302c1.6905 0 3.061-1.5691 3.061-3.5046s-1.3705-3.5046-3.061-3.5046-3.061 1.5691-3.061 3.5046 1.3705 3.5046 3.061 3.5046ZM94.5713 79.302c1.6905 0 3.0609-1.5691 3.0609-3.5046s-1.3704-3.5046-3.0609-3.5046c-1.6906 0-3.061 1.5691-3.061 3.5046s1.3704 3.5046 3.061 3.5046Z"/><path fill="#353535" d="M140.483 164.475H22.7599c0-7.287 3.1422-14.178 8.4313-19.954 7.6558-8.367 19.8084-14.405 33.4068-15.932 2.2178 5.743 9.1322 9.932 17.323 9.932 8.1909 0 15.051-4.155 17.296-9.861 13.351 1.629 25.257 7.599 32.801 15.837 5.309 5.783 8.458 12.681 8.458 19.978h.007Z"/><path fill="#77655B" d="M118.924 91.783c1.385 1.6118 2.218 3.6942 2.218 5.9662 0 4.2528-2.923 7.8388-6.908 8.9358.081.484.122.982.122 1.49 0 5.13-4.246 9.288-9.488 9.288-.782 0-1.54-.092-2.268-.268-1.016 4.057-4.7578 7.064-9.2104 7.064-1.6084 0-3.122-.393-4.4459-1.084-1.7303 2.174-4.4358 3.572-7.4764 3.572-3.0407 0-5.5803-1.313-7.3241-3.379-1.2291.569-2.6072.891-4.0565.891-4.456 0-8.1976-3.011-9.21-7.064-.728.176-1.4865.268-2.2687.268-5.2382 0-9.4843-4.158-9.4843-9.288 0-.511.044-1.009.1219-1.49-3.9888-1.094-6.911-4.683-6.911-8.9358 0-2.0384.6705-3.9244 1.8116-5.4549-2.0147-1.2461-3.3488-3.447-3.3488-5.9493 0-3.8906 3.2201-7.043 7.1953-7.043 2.4075 0 4.5407 1.158 5.8444 2.9391 0 0 23.6109 11.2756 54.6779 0 1.307-1.7777 3.44-2.9391 5.848-2.9391 3.972 0 7.195 3.1524 7.195 7.043 0 2.1908-1.022 4.1479-2.627 5.4414l-.007-.0034Z"/><path fill="#3F3530" d="M82.5914 97.6408c-5.5633 0-10.0396-2.8713-10.2868-3.0339-.2743-.1794-.3522-.5451-.1727-.8194.1795-.2743.5451-.3522.8194-.1727.0779.0508 7.7202 4.9437 15.0849 1.7303.3014-.1321.6501.0068.7788.3047.1287.298-.0068.6501-.3048.7788-2.018.8804-4.0294 1.2122-5.9188 1.2122Z"/><path fill="#77655B" d="M43.1438 60.8751s9.4471-23.5704 33.7895-23.0862c0 0 4.7743-.1151 4.9504-2.2043 0 0 1.219 2.438 4.0057 2.438 2.7867 0 31.4696 4.2935 33.6036 22.0432L120 49.6232s-6.264-27.4981-42.8094-24.4812c-36.5457 3.017-36.1834 30.8538-34.0434 35.7297l-.0034.0034Z"/><path fill="#E83D59" d="M94.5747 128.349v.037c-.1354-.017-.2675-.027-.4029-.037h.4029Z"/><path fill="#E0CF3A" d="M89.587 151.147c-11.218-3.03-24.5557 3.315-30.312 13.328h1.7032c9.508-15.183 31.7273-17.306 43.4668-2.577.041.047.081.098.122.149.095.129.196.251.291.379l.054.054c.068.095.142.19.21.278 0 0 0 .003.004.003.057.078.111.153.169.231.057.078.112.152.166.227.223.325.447.646.67.971l.01.017.017.034c.048.078.095.156.143.234h1.533c-3.562-6.484-9.7175-11.018-18.247-13.328Z"/><path fill="#1D1008" d="m104.438 164.099.007.007s-.003-.007-.007-.007Zm-3.21-3.752-.091-.081c.03.03.064.061.095.088v-.007h-.004Zm-4.5878-3.603-.0203-.01s-.0102-.003-.0136-.003c.0136.003.0237.01.0373.02 0 0-.0034-.003-.0034-.007Zm-25.4022-.372s-.0169.01-.0237.014c-.0339.027-.0677.05-.1016.074.0339-.024.0677-.047.105-.071.0406-.027.0812-.051.1185-.078-.0339.017-.0644.037-.0982.061Zm35.059 8.103c-.047-.078-.095-.156-.142-.234h-.007l-.054-.007h.003l.031-.04c-.224-.329-.447-.65-.671-.975-.054-.075-.108-.149-.165-.227-.058-.078-.112-.153-.17-.231-.003 0-.003-.003-.003-.003-.068-.088-.142-.183-.21-.278l-.061.007.007-.061c-.095-.128-.197-.25-.291-.379-.041-.051-.082-.102-.122-.149-11.7398-14.729-33.9591-12.606-43.4671 2.577h1.7844c.0406-.051.0813-.102.1253-.153.5316-.653 1.0226-1.323 1.3138-2.058.1083-.122.2133-.244.325-.366.0441-.058.0915-.112.1355-.166.0305-.034.0609-.071.0948-.105.0305-.037.0643-.074.0948-.112.0305-.037.0609-.074.0948-.111.7348-.678 1.4662-1.358 2.2009-2.035.2506-.231.5012-.464.7551-.695l.1897-.189-.0237-.041.0304.034c.0711-.054.1456-.108.2167-.162.149-.122.2912-.237.4402-.353l.1118-.081c.0372-.024.0711-.051.1049-.074l-.0203-.031s.0169.014.0203.017l.0068.007.1117-.081s.0136-.007.017-.014c.0304-.024.0609-.044.088-.068 0 0 .0034 0 .0034.004.0339.02.0643.013.0846-.021.0373-.03.0745-.057.1084-.084.0339-.024.0711-.051.105-.078 0 0 .0101-.007.0101-.01.0711-.054.1422-.109.2133-.163.0136-.007.0305-.013.0441-.02.0609-.027.1219-.054.1896-.081.1016-.082.1998-.16.3013-.241h.0034l.0678-.017c.1963-.122.3927-.24.5891-.362.0136.003.0237.007.0373.007.0237 0 .044-.01.0575-.034.0373-.027.0711-.051.105-.078.0339-.024.0677-.047.105-.071.0406-.027.0812-.051.1185-.078.0406-.027.0779-.054.1185-.078h.0034c.0779-.027.1591-.057.2404-.084.1016-.082.1998-.163.3013-.244.0373-.01.0779-.024.1152-.031.0372-.01.0779-.02.1185-.03.2031-.102.4063-.203.6095-.305.0068.003.0135.003.0169.003.0034.004.0102.004.0169.004.0136 0 .0237-.004.0339-.007.0102-.007.0203-.017.0271-.027.0846-.044.1693-.088.2506-.129.0812-.044.1659-.084.2505-.128.0779-.024.1524-.048.2303-.072.0237-.006.0508-.013.0779-.023.0744-.021.1456-.041.22-.061 0 0 .0034 0 .0034-.004.1118-.061.2269-.125.342-.186.061-.017.1253-.037.1863-.054.0609-.017.1219-.037.1828-.054h.0034c.0982-.048.1964-.092.298-.139.0677-.03.1388-.061.2065-.091.1727-.048.3488-.092.5248-.139l.1727-.051c.1152-.054.2303-.108.3522-.163.193-.044.3894-.084.5824-.125.0982-.02.193-.04.2912-.064.0846-.027.1727-.054.2573-.081.0305-.011.061-.017.0915-.028.0575-.02.1151-.037.1726-.054.0745-.013.1456-.023.2201-.037.1355-.02.2675-.041.403-.061l.0711-.01c.4097-.081.816-.163 1.2257-.244.1761-.017.3488-.03.5249-.047.1727-.017.3487-.031.5214-.048 1.6998-.027 3.3962-.054 5.096-.081.1152.007.2303.014.3454.02.1761.021.3488.041.5249.061.2065.017.4097.031.6162.048.2066.017.4097.03.6129.047.1151.031.2303.058.3488.088.1151.027.2302.058.3487.088l.1829.041h.0034s.0237-.007.0338-.007c.0305 0 .0576.007.0847.027.1219.017.2472.037.3724.058.1219.02.2472.037.3725.057.0576.017.1185.034.1795.051.2336.068.4672.136.6975.207.1727.03.3454.064.5181.094.1185.055.2336.109.3521.163l.5892.122c.2065.095.4131.19.6196.284l.0711.021c.1524.044.3014.091.4504.135h.0067c.0204.01.0441.02.0644.031.0203.01.044.02.0643.03v-.007l.0474-.013-.0338.02c.1828.085.369.166.5519.251.1084.05.2133.098.3183.145.0779.034.1524.068.2268.105h.0034c.0576.02.1118.041.1659.061l.1626.061.1422.081c.3251.173.6535.349.9786.522.0406.023.0778.047.1185.074.0406.024.0812.048.1185.075.0034 0 .0034.003.0068.003.0135.007.0304.017.044.024 0 .003.0101.007.0135.01h.0034s.0102.007.0169.01c.0305.017.0644.034.0948.051.0576.03.1118.061.1693.095.0373.017.0712.037.1084.057l.0914.051c.0305.017.0644.034.0948.051 0 0 .0237.013.0373.024v-.007l.0406-.02-.0338.027c.0338.027.0677.054.1015.077.0339.028.0678.055.1016.085h.0034s.0102.017.0203.02c.0102.011.0271.011.044.004.0068 0 .0102-.004.017-.007 0-.003.0034-.003.0034-.003.027.023.0575.044.0846.061 0 .003.0102.006.0136.01 0 0 .0033 0 .0033.003.0068.004.0102.007.017.01 0 0 .0034 0 .0034.004.0101.007.0237.013.0338.02.0305.02.061.041.0948.061.0474.03.0914.061.1389.088.044.031.0914.061.1388.088.0745.054.1422.108.2167.163l.0135-.038-.0067.044c.0304.027.0643.055.0948.078 0 0 .0067.004.0101.01.0339.027.0711.055.105.082l.0745.02s.0305.027.0474.044c.0203.02.0406.037.0609.051.0034.003.0034.007.0068.007h.0068s.0034.006.0034.01h.0034l.0169.017c.0508.04.1016.081.1524.122.0169.027.0372.044.0609.05.0068.004.0136.004.0203.004.0102 0 .017.003.0271 0 .1355.108.2709.21.4063.318.1592.125.3149.251.4741.372.1964.16.3894.319.5858.475.3356.301.6666.606 1.0026.907.034.03.064.061.098.088.027.027.054.051.081.078.003 0 .007.003.01.007.004.003.01.006.014.013.007.007.017.014.024.021h.003s.007.01.01.01c0 0 .027.027.041.037.03.034.064.064.095.091.027.024.057.055.084.082.027.027.058.057.085.088.027.023.057.054.084.081.031.027.061.058.092.088l.349.352c.115.122.227.244.345.366.108.115.213.227.318.338.051.058.099.119.146.177.013.016.027.03.044.047.013.02.027.034.041.051.064.071.125.145.189.22.054.064.105.128.156.193.054.064.105.128.156.193.176.227.352.454.525.68.176.227.348.458.524.684.014.017.024.038.038.055h.003s.007.013.01.02h.004s0 .007.003.01c0 .003.003.003.007.007 0 .003 0 .007.003.01l.007.01.007.007h.003c.01.024.024.044.041.064.003.007.01.017.017.024l.033-.014-.027.021s.014.017.021.027c.047.064.098.125.149.186-.01.02-.01.037-.004.054h1.615l.007-.003Zm-10.6049-.495c-.0271.038-.0644.078-.1118.126-.0982.105-.2404.23-.3995.369h6.5962s-.021-.02-.031-.031c-.04-.037-.081-.074-.125-.108-.044-.041-.085-.078-.129-.112-.04-.034-.077-.067-.118-.095-.098-.084-.2-.159-.305-.233-.125-.092-.257-.18-.389-.261-.132-.081-.268-.159-.407-.234-.3416-.182-.6836-.372-1.0222-.568-.342-.193-.6806-.393-1.0124-.6-1.3409-.819-2.6411-1.727-3.8567-2.712-.2235-.183-.447-.369-.6671-.562-.1524-.129-.3013-.257-.4469-.389-.1084-.099-.2168-.197-.3251-.295-.1084-.098-.2133-.196-.3183-.298-.2099-.2-.4233-.389-.6366-.565-1.9029-1.592-3.8736-2.245-6.0881-1.754-.2404.057-.4842.121-.7314.203h-.0034c-.1625.057-.3284.118-.4977.183-.0847.033-.1693.071-.254.105-.0846.037-.1693.074-.2539.115-.1727.078-.3454.166-.5181.257l-.132.071c-.0441.024-.0881.047-.1321.071l-.1117.061s0 .004-.0034.004c-.0779.04-.1592.081-.2438.115-.017.01-.0339.017-.0542.023-.0677.027-.1355.055-.2032.075-.1727.051-.3386.078-.4842.057-.0305-.006-.0609-.013-.0914-.023-.1287-.041-.2607-.092-.3928-.143-.0643-.027-.132-.054-.193-.077-.4368-.173-.833-.329-.9819-.2-.017.017-.0339.04-.0441.068-.044.111-.0033.318.1558.663.0102.027.0237.054.0372.081.0779.163.1829.356.3116.583.0135.024.0169.051.0169.085 0 .088-.0406.199-.0508.294-.0372-.01-.0711-.024-.1084-.034h-.0033c-.1084-.037-.2167-.078-.3251-.115-.0372-.01-.0745-.024-.1117-.037-.1118-.037-.2235-.068-.3386-.085-.5418-.081-1.0971-.115-1.6457-.169v.003c.1863.254.3793.501.5621.759.0576.084.1151.172.1727.261.0406.06.0779.125.1117.189.0678.132.1253.264.1863.4.0304.067.0575.135.0914.199h.0034c-.4436-.037-.8872-.077-1.3307-.125-.1389-.013-.2777-.027-.4165-.04-.1659-.014-.3318-.028-.4978-.044-.0169-.004-.0338-.004-.0508-.007-.1659-.017-.3318-.034-.5011-.051.0474.163.1016.318.1558.477.0372.126.0778.251.1083.38.0271.108.0542.216.0779.325.0745.325.1422.653.2133.978h-.0034c-.3081-.061-.6501-.23-.9244-.155-.1625.044-.3318.149-.474.277-.0169.017-.0372.031-.0508.048-.0169.013-.0305.03-.0406.044-.0745.077-.1355.159-.1761.243-.0373.075-.0745.153-.1117.227-.1186.264-.2269.535-.3285.81-.1016.274-.1896.551-.281.829-.0576.169-.0474.369-.0305.559h18.7283s-.0136-.017-.017-.024c-.0067-.007-.0135-.013-.0203-.024-.3487-.44-.6874-.863-.9819-1.229.1726-.772.2979-1.317.3961-1.76.044-.197.0847-.376.1219-.546.0271-.125.0542-.247.0813-.369h.0034c.3149.417.6399.826.9548 1.236.1321.173.2642.342.3928.515.1287.173.2574.349.3826.525.1253.176.2472.352.3657.531.1186.18.2337.363.3454.545.0102.021-.0034.055-.0338.102l-.0034.003Zm-4.1615-3.528c-.4977.891-.8533 1.602-1.2968 2.255-.0068.007-.0136.017-.0238.024-.0203.017-.0474.034-.0812.044-.1829.068-.5181.064-.6501-.03-.0711-.055-.1456-.136-.21-.227-.0271-.041-.0541-.082-.0778-.126-.0305-.054-.0576-.111-.0745-.166-.0271-.081-.0407-.159-.0305-.226-.0034-.014 0-.024.0034-.034.3115-1.206.711-2.387 1.0801-3.576v-.007c.1118.17.2235.339.3352.508.2201.339.447.681.6773 1.033.1185.173.2336.349.3521.525 0 0 0 .003-.0034.003Z"/><path fill="#C4B634" d="M105.461 163.219c-.112-.153-.227-.305-.339-.461.112.152.227.305.339.461ZM106.153 164.24l-.056-.01.03-.04.026.05ZM104.911 162.479l-.06.007.007-.06.053.053Z"/><path fill="#DE121C" d="M104.689 164.421c-.01.02-.01.037-.004.054h-2.905s-.02-.02-.03-.031c-.041-.037-.082-.074-.126-.108-.044-.041-.084-.078-.128-.112-.041-.034-.078-.067-.119-.095-.098-.084-.2-.159-.304-.233-.126-.092-.258-.18-.39-.261-.132-.085-.267-.162-.406-.237-.3422-.183-.6842-.372-1.0228-.565-.342-.197-.6806-.397-1.0124-.6-1.3409-.819-2.6411-1.727-3.8567-2.712-.2235-.183-.447-.369-.6671-.562-.1524-.129-.3014-.257-.447-.389-.1083-.099-.2167-.197-.325-.295-.1084-.098-.2133-.196-.3183-.295-.2099-.199-.4233-.389-.6366-.568-1.9029-1.592-3.8736-2.245-6.0881-1.754-.2404.057-.4842.121-.7314.203h-.0034c-.1625.057-.3284.118-.4977.183-.0847.033-.1693.071-.254.105-.0846.037-.1693.074-.2539.115-.1727.078-.3454.166-.5181.257l-.1321.071c-.044.024-.088.051-.132.075-.0339.02-.0711.04-.1118.057 0 0 0 .004-.0033.004-.0779.04-.1592.081-.2438.115-.017.01-.0339.017-.0542.023-.0677.027-.1355.055-.2032.075-.1727.051-.3386.078-.4842.057-.0338-.003-.0643-.01-.0948-.02-.1287-.04-.2607-.091-.3894-.145-.0643-.028-.132-.055-.193-.078-.4368-.173-.833-.329-.982-.2-.0203.017-.0372.041-.044.068-.044.111-.0034.318.1558.663.0068.027.0203.054.0372.082.0745.165.1795.358.3082.585.0135.024.0203.051.0203.082 0 .088-.0407.199-.0508.294-.0373-.007-.0711-.02-.1084-.034h-.0034c-.1083-.037-.2167-.078-.325-.115-.0373-.01-.0745-.024-.1118-.037-.1117-.034-.2234-.064-.3386-.081-.5417-.082-1.0937-.115-1.6422-.17.1862.254.3792.501.5621.759.0609.084.1185.173.1761.261.0406.061.0745.125.1083.189.0677.132.1253.264.1863.4.0304.067.0575.135.0914.2-.4436-.041-.8872-.082-1.3274-.126-.1388-.01-.2742-.023-.4131-.037-.1659-.017-.3352-.034-.5011-.047-.0169-.004-.0339-.004-.0508-.007-.1693-.014-.3352-.031-.5011-.048.0474.16.1016.315.1557.474.0373.126.0779.251.1084.38.0271.108.0542.216.0779.325.0745.325.1388.653.2099.978-.3081-.061-.6501-.23-.9244-.155-.1625.044-.3318.149-.474.277-.017.017-.0373.031-.0508.048-.017.013-.0305.03-.0407.044-.0744.078-.1354.159-.176.243-.0373.075-.0745.153-.1118.227-.1185.264-.2268.535-.3284.81-.0982.274-.1896.552-.2777.829-.0575.173-.0474.369-.0305.559H62.7627c.0406-.051.0846-.102.1287-.153.5316-.653 1.0226-1.323 1.3138-2.058.1083-.122.2133-.244.325-.366.044-.057.0914-.112.1355-.166.0304-.034.0609-.071.0914-.108.0305-.034.0643-.071.0982-.109.0304-.037.0609-.074.0948-.111.7348-.678 1.4661-1.358 2.2009-2.035.2506-.234.5045-.464.7551-.698.0643-.061.1253-.122.1896-.186l-.0237-.041.0271.038s.0034 0 .0034-.004c.0711-.054.1456-.108.2167-.162.1456-.119.2946-.234.4402-.349.0372-.027.0745-.058.1117-.085.0373-.023.0711-.051.105-.074l-.0203-.031s.0169.014.0203.017c.0034 0 .0068.004.0068.004.0372-.028.0745-.051.1117-.078.0068-.004.0136-.007.0169-.014.0305-.02.061-.041.0915-.064.0338.02.0643.013.0846-.021.0373-.027.0711-.054.1084-.084.0338-.024.0711-.051.1049-.078 0 0 .0102-.007.0102-.01.0711-.054.1422-.109.2133-.163.0136-.007.0305-.013.044-.02.0644-.024.1253-.051.1897-.078.1015-.081.1997-.162.3013-.244l.0711-.017c.1964-.122.3928-.24.5892-.362.0135.003.0237.007.0372.007.0237 0 .0407-.014.0576-.034.0339-.027.0711-.054.105-.078.0338-.024.0677-.047.1016-.074.0067-.004.0169-.011.0237-.014.0338-.024.0643-.044.0982-.061.0406-.027.0778-.054.1185-.078h.0034c.0778-.027.1591-.057.2404-.084.1015-.082.1997-.163.3013-.244.0373-.01.0779-.024.1151-.031.0373-.013.0779-.023.1152-.034.2065-.101.4097-.203.6128-.304.0068 0 .0136.006.017.006.0034.004.0101.004.0169.004.0136 0 .0237-.004.0339-.007.0101-.01.0169-.017.0237-.027h.0034c.0846-.044.1693-.088.2505-.129.0847-.044.1693-.088.2506-.132.0779-.02.1524-.044.2302-.067.0237-.007.0508-.014.0779-.024.0745-.021.149-.044.2235-.065.1117-.06.2269-.125.342-.186.0609-.017.1253-.037.1862-.054.061-.02.1253-.037.1863-.057.0982-.044.1964-.089.2979-.136.0678-.03.1389-.064.2066-.095.1761-.047.3521-.091.5248-.135.0576-.017.1151-.034.1727-.048.1185-.057.2336-.111.3522-.165.193-.045.3894-.085.5824-.126.0982-.02.193-.04.2912-.061.0846-.027.1693-.057.2573-.084.0305-.011.061-.017.0914-.027.0576-.021.1152-.038.1727-.058.0745-.01.1456-.02.2201-.034.1354-.02.2675-.041.4029-.061l.0712-.01c.4097-.081.816-.163 1.2257-.244.1761-.017.3488-.03.5248-.047.1727-.014.3488-.031.5215-.044 1.6998-.027 3.3962-.054 5.096-.085.1151.007.2303.014.3454.02.1761.021.3488.041.5248.061.2066.017.4097.031.6163.048.2032.013.4097.03.6163.044.1151.03.2302.061.3453.091.1152.027.2303.058.3488.088.0609.014.1219.024.1828.038h.0034l.0508.057.0677-.034c.1219.017.2472.037.3725.058.1253.017.2506.034.3725.054.0609.017.1219.037.1794.054.2337.068.4673.136.6976.207.1726.03.3453.064.518.095.1185.054.2337.108.3522.162l.5891.122c.2066.095.4131.19.6197.284l.0711.021c.1524.044.3014.091.4503.135h.0034s.0102.02.0204.027c.0101.017.0304.027.0474.034.0169.007.0406.007.0643 0l.0474-.02-.0406.02c.0237.01.0474.02.0711.034.1625.071.325.146.4876.217.1083.05.2133.098.3183.145.0778.034.1523.068.2268.105h.0034c.0576.021.1117.041.1659.061.0542.017.1084.037.1625.058l.0915.05s.0338.024.0508.034c.325.173.6535.349.9785.522.0407.024.0779.047.1185.074.0441.024.0881.051.1321.078h-.0068s.0305.017.044.024c0 .003.0102.007.0136.01h.0034s.0101.007.0169.01c.0305.017.0643.034.0948.051.0576.03.1118.061.1693.095.0373.017.0711.037.1084.057l.0914.051c.0305.017.0643.034.0948.051.0068 0 .0102.003.0169.007l.0204.01.0033.003.0407-.023-.0339.027c.0339.027.0677.054.1016.078.0339.027.0677.054.1016.084h.0034s.0101.017.0203.02c.0101.011.0271.011.044.004.0068 0 .0101-.003.0169-.007.0305.02.0576.041.0881.058 0 .003.0101.006.0135.01 0 0 .0034 0 .0034.003.0068.004.0102.007.0169.01 0 0 .0034 0 .0034.004.0102.007.0237.013.0339.02.0304.02.0643.044.0948.064.044.031.0914.058.1388.085.044.031.0914.061.1388.088.0745.054.1422.108.2167.163 0 .003.0034.003.0034.003h.0034c.0305.031.0644.058.0948.081 0 0 .0068.004.0102.01.0338.028.0711.055.105.082l.0711.023.0507.041c.0204.02.0407.037.061.051.0034.003.0034.007.0068.007h.0067s.0034.006.0034.01h.0034l.0169.017c.0508.04.1016.081.1524.122.0169.027.0373.044.061.05.0067.004.0135.004.0203.004.0068.003.0169.003.0237.003.1354.105.2743.21.4097.315.1591.125.3149.251.474.373.1964.159.3894.318.5858.474.3355.301.6675.606 1.0025.907.034.031.064.061.098.088.027.027.054.051.081.078.004 0 .007.003.01.007.004.003.011.006.014.013.007.007.017.014.024.021h.003s.007.01.01.01c0 0 .027.027.041.037l.091.085h.004v.006c.027.024.057.055.084.082.027.027.058.057.085.088.027.023.058.054.085.081l.091.091.349.349c.115.122.227.244.345.366.109.115.213.227.318.338.051.058.099.119.146.177.014.016.027.03.044.047.014.02.027.034.041.051.064.071.125.145.189.22.055.064.105.128.156.193.054.061.108.125.159.189.173.227.349.458.522.684.176.227.348.458.525.684.013.017.023.038.037.055h.003s.007.013.01.02h.004v.007l.006.006s.004.011.007.014l.007.007.007.01h.003c.01.024.024.044.041.064.003.007.01.017.017.024l.047-.024-.013.01-.027.021s.013.017.02.027c.047.064.095.122.149.186v-.003Z"/><path fill="#CF161C" d="M95.7361 163.876c.0101.02-.0034.054-.0373.101-.0271.037-.0643.078-.1117.125-.0982.105-.2404.231-.3996.369h-1.4729s-.0135-.016-.0203-.023c-.0068-.007-.0136-.014-.0203-.024-.3488-.44-.6874-.863-.982-1.229.1727-.772.298-1.317.3962-1.761.044-.196.0846-.376.1219-.545.0305-.125.0575-.244.0846-.366.3149.413.64.823.9549 1.233.1321.173.2641.342.3928.515.1286.172.2573.348.3826.524.1253.176.2472.353.3657.532.1219.179.237.362.3488.545l-.0034.004ZM91.5339 160.452c-.4977.891-.8533 1.602-1.2968 2.255-.0915.136-.5926.159-.7551.041-.2167-.159-.447-.555-.3894-.779.3115-1.205.7111-2.39 1.0801-3.582.4436.677.8906 1.351 1.3612 2.069v-.004Z"/><path fill="#53130F" d="M72.8463 155.532c-.2032.102-.4097.203-.6129.308.2032-.101.4097-.203.6129-.308ZM102.271 161.414c-.115-.122-.23-.247-.349-.369.115.122.231.247.349.369ZM70.2559 156.944c-.1015.081-.2031.163-.3013.244.1016-.081.2031-.163.3013-.244ZM69.4975 157.459c-.0711.054-.1422.108-.2167.161.0711-.053.1422-.107.2167-.161ZM69.721 157.286c-.0711.054-.1456.108-.2167.162.0711-.054.1422-.108.2167-.162ZM97.1921 157.099c-.0846-.057-.1659-.114-.2506-.172.0847.058.1693.115.2506.172ZM68.0947 158.482c-.064.063-.128.127-.1954.191.064-.064.128-.128.1954-.191ZM96.8568 156.913c-.0711-.058-.1422-.111-.2167-.168.0711.057.1422.11.2167.168ZM71.2278 156.379c-.0711.05-.1422.101-.2167.154.0711-.05.1422-.1.2167-.154ZM95.9731 156.378c-.0813-.051-.1659-.101-.2506-.148.0813.05.166.101.2506.148ZM71.4581 156.23c-.0813.05-.1626.104-.2404.154.0812-.05.1625-.104.2404-.154ZM94.7442 155.705c-.0475-.027-.095-.058-.1458-.085.0474.027.0949.058.1458.085ZM104.684 164.421c-.057-.075-.114-.149-.175-.22.058.074.115.149.175.22ZM93.1594 155.001c-.061.013-.1051-.007-.1322-.061l.1322.061ZM104.512 164.207l-.145-.213c.047.071.098.142.145.213ZM88.7982 153.748l-.0678.034-.0543-.058c.0441-.01.0848-.003.1221.024ZM102.778 161.976c-.064-.075-.128-.149-.189-.224.065.075.129.149.189.224Z"/></g><defs><clipPath id="a"><path fill="#fff" d="M0 0h165v165H0z"/></clipPath></defs></svg>