<svg xmlns="http://www.w3.org/2000/svg" fill="none" viewBox="0 0 165 164"><path fill="#FEC400" d="M151.697.164062H12.9115C6.13461.164062.640869 5.66191.640869 12.4438V151.333c0 6.782 5.493741 12.28 12.270631 12.28H151.697c6.777 0 12.27-5.498 12.27-12.28V12.4438c0-6.78189-5.493-12.279738-12.27-12.279738Z"/><path fill="#CAC9C9" d="M47.6153 131.807s-7.2835-12.165 20.1166-14.156c27.4001-1.992 39.1021 2.16 42.3211 3.986 3.219 1.827 4.488 5.884 1.771 8.691-2.721 2.81-29.1546 29.298-64.2087 1.479Z"/><path fill="#353535" d="M81.4435 120.354c19.2515 0 26.2825 3.676 27.0195 4.094.872.495 1.485 1.301 1.6 2.103.08.562-.101 1.065-.556 1.533-1.172 1.21-4.418 4.33-9.27 7.208-6.5936 3.913-13.5202 5.894-20.5883 5.894-9.7686 0-19.6687-3.848-29.4306-11.441-.2256-.623-.4849-1.809.1549-2.989.6432-1.183 2.0911-2.288 4.1924-3.198 3.1552-1.365 7.664-2.268 13.402-2.682 4.7446-.344 9.2804-.519 13.4761-.519v-.003Zm0-3.232c-4.0576 0-8.6103.158-13.7084.529-27.4002 1.991-20.1166 14.157-20.1166 14.157 11.8598 9.412 22.7296 12.606 32.0302 12.606 18.1904 0 30.3773-12.226 32.1753-14.086 2.721-2.81 1.448-6.864-1.772-8.691-2.619-1.486-10.8592-4.515-28.6119-4.515h.0034Z"/><path fill="#8D8D8E" d="M109.507 128.081c-.754.778-2.37 2.352-4.724 4.144-4.7952-.808-9.5297-2.116-10.3884-4.188-1.8352-4.428-37.583-5.274-37.583-5.274.0202-.017.0371-.034.0573-.047 2.9161-.9 6.637-1.52 11.0988-1.844 4.7479-.347 9.2804-.522 13.4761-.522 19.2512 0 26.2822 3.677 27.0192 4.094.873.496 1.485 1.301 1.6 2.103.081.563-.101 1.062-.556 1.534Z"/><path fill="#E83D59" d="M93.9467 127.599v.037c-.1347-.017-.266-.027-.4007-.037h.4007Z"/><path fill="#ECE2D1" d="M94.3945 128.037v-12.523c.0573-1.105-.2424-2.207-.8856-3.238-.6431-1.031-1.6163-1.971-2.8588-2.767-1.2426-.795-2.7343-1.425-4.381-1.856-1.6466-.432-3.4178-.654-5.2059-.654-1.788 0-3.5593.222-5.2059.654-1.6466.431-3.135 1.064-4.3809 1.856-1.2426.796-2.2157 1.736-2.8589 2.767-.6432 1.031-.9462 2.133-.8856 3.238v12.523c-22.0898 2.541-35.7882 13.486-35.7882 24.445h98.2393c0-10.949-13.742-21.904-35.7885-24.445ZM33.5702 90.8741c.0202 1.2098.2828 2.4061.7711 3.5148.4883 1.1086 1.1887 2.1095 2.0676 2.9419.8755.8357 1.9126 1.4861 3.0407 1.9174 1.1314.4313 2.3369.6302 3.5458.5931 2.4447.0438 4.8052-.8762 6.5764-2.5611 1.7712-1.6849 2.805-4.0034 2.8791-6.4465-.0168-1.2166-.2728-2.4196-.761-3.535-.4849-1.1155-1.1921-2.123-2.0709-2.9621-.8789-.8391-1.9228-1.4929-3.0576-1.9242-1.1381-.4314-2.3504-.6302-3.566-.5864-2.4447-.0371-4.8052.893-6.5697 2.5881-1.7645 1.695-2.7882 4.0168-2.8521 6.4634l-.0034-.0034Z"/><path fill="#B5AA9A" d="M39.1499 90.1393c1.5456-.037 3.0912.1146 4.5998.455 1.1886.3437 2.1551 1.112 3.3336 1.4558.0809.0202.1684.0134.2459-.0135.0808-.027.1481-.0809.1986-.1483.0505-.0674.0808-.1483.0876-.2325.0067-.0843-.0135-.1685-.0539-.2426-1.2796-2.6454-6.1016-2.0691-8.4251-1.8568-.0775 0-.1515.0303-.2054.0842-.0539.0539-.0842.1281-.0842.2056 0 .0775.0303.1516.0842.2055.0539.0539.1279.0843.2054.0843h.0101l.0034.0033Z"/><path fill="#ECE2D1" d="M127.122 90.9852c-.02 1.1997-.276 2.3859-.754 3.4845-.479 1.1019-1.172 2.096-2.034 2.9284-.866.8323-1.886 1.4861-3.001 1.9242-1.118.4381-2.31.6504-3.508.6234-2.445.0472-4.809-.8728-6.58-2.5577-1.771-1.6883-2.805-4.0034-2.879-6.4499.02-1.2065.283-2.3926.764-3.498.482-1.1053 1.179-2.1028 2.051-2.9351.869-.8324 1.896-1.4861 3.02-1.9208 1.125-.4347 2.32-.6437 3.526-.61 2.435-.0337 4.785.893 6.543 2.578 1.757 1.6849 2.784 3.9933 2.859 6.4297l-.007.0033Z"/><path fill="#B5AA9A" d="M121.822 89.6069c-2.334-.2123-7.146-.802-8.436 1.8568-.043.0742-.06.1584-.057.246.007.0843.037.1685.091.2359.054.0674.125.1179.205.1449.081.027.169.0303.253.0067 1.189-.2898 2.135-1.112 3.334-1.4557 1.515-.337 3.061-.4887 4.613-.455.077 0 .151-.0303.205-.0842.054-.0539.085-.1281.085-.2056 0-.0775-.031-.1516-.085-.2055-.054-.054-.128-.0843-.205-.0843h-.003Z"/><path fill="#D1C7B8" d="M67.7352 111.454h26.6593v12.799s-12.0349 6.048-26.6593 0v-12.799Z"/><path fill="#ECE2D1" d="M116.114 56.6094v31.5082c0 1.6445-.142 3.2553-.418 4.8257-2.367 13.7217-14.688 24.1787-29.5279 24.1787H75.3993c-14.8433 0-27.161-10.457-29.5316-24.1787-.2728-1.5704-.4142-3.1812-.4142-4.8257V56.6094c0-6.5476 2.2393-12.5898 6.0208-17.4458 5.4652-7.0194 14.1496-11.5586 23.925-11.5586h10.7688c16.5369 0 29.9459 12.9874 29.9459 29.0044Z"/><path fill="#B5AA9A" d="M98.496 62.3819c-.0977 0-.1987-.027-.293-.0809-1.2695-.7447-2.7175-1.1862-4.189-1.2771-1.485-.0203-3.007.2931-4.3843.9166-.2896.1314-.633 0-.7644-.2899-.1313-.2898 0-.6335.2896-.7649 1.5288-.6908 3.226-1.048 4.9029-1.0177 1.6769.1011 3.3034.5998 4.7277 1.4356.2762.1617.3671.5155.2055.7919-.1078.1819-.2997.2864-.4984.2864h.0034ZM72.2575 62.8367c-.0909 0-.1852-.0202-.2727-.0674-1.2897-.6874-2.7444-1.0918-4.2025-1.1659-1.5119-.0371-3.0036.2359-4.4213.8054-.2963.1179-.633-.0236-.7509-.3202-.1179-.2965.0236-.6335.3199-.7515 1.5624-.6301 3.2124-.9233 4.8961-.8862 1.6433.0842 3.2663.5358 4.7042 1.3007.2829.1517.3872.5021.2391.7818-.1044.1955-.3031.3067-.5119.3067v-.0034Z"/><path stroke="#E0D6C2" stroke-linecap="round" stroke-linejoin="round" stroke-width="3.3" d="M78.1134 83.0796s3.4347 1.7254 6.4249 0"/><path fill="#fff" d="M67.7015 81.2227c3.8162 0 6.9098-3.0959 6.9098-6.9149 0-3.819-3.0936-6.915-6.9098-6.915-3.8161 0-6.9098 3.096-6.9098 6.915s3.0937 6.9149 6.9098 6.9149ZM93.9434 81.2227c3.8161 0 6.9096-3.0959 6.9096-6.9149 0-3.819-3.0935-6.915-6.9096-6.915-3.8162 0-6.9098 3.096-6.9098 6.915s3.0936 6.9149 6.9098 6.9149Z"/><path fill="#ECE2D1" d="M74.6114 65.1216H60.7885v5.5973h13.8229v-5.5973ZM100.951 65.1216H87.1278v5.5973h13.8232v-5.5973Z"/><path fill="#404040" d="M67.7016 78.7864c1.6812 0 3.044-1.5615 3.044-3.4878s-1.3628-3.4878-3.044-3.4878-3.0441 1.5615-3.0441 3.4878 1.3629 3.4878 3.0441 3.4878ZM93.9433 78.7864c1.6812 0 3.044-1.5615 3.044-3.4878s-1.3628-3.4878-3.044-3.4878-3.0441 1.5615-3.0441 3.4878 1.3629 3.4878 3.0441 3.4878Z"/><path fill="#353535" d="M135.544 163.552H26.5863c0-7.252 2.9094-14.11 7.8055-19.859 7.0849-8.327 18.3319-14.335 30.919-15.855 2.0541 5.715 8.452 9.884 16.0353 9.884 7.5833 0 13.9307-4.135 16.0084-9.813 12.3585 1.621 23.3725 7.562 30.3595 15.761 4.913 5.755 7.83 12.62 7.83 19.882Z"/><path fill="#444" d="M115.767 92.7645c-2.374 13.8235-14.722 24.3575-29.5922 24.3575H75.3825c-14.877 0-27.2217-10.534-29.5956-24.3575 0 0 27.1206-10.2411 69.9831 0h-.003Z"/><path fill="#ECE2D1" d="M82.0297 97.0241c-5.5292 0-9.9774-2.8576-10.2233-3.0194-.266-.1752-.3401-.5324-.1683-.7986.1717-.2663.532-.3404.798-.1685.0775.0505 7.6843 4.9233 15.0117 1.722.2929-.1281.633.0067.761.2999.1279.2932-.0067.6335-.2997.7616-2.0036.8761-4.0038 1.2064-5.8828 1.2064l.0034-.0034Z"/><path fill="#444" d="M52.4508 45.1013s-5.9231 21.739-6.9973 36.7281v-25.22c0-6.5477 2.2393-12.5899 6.0208-17.4458l.9765 5.9377ZM109.117 45.1013s5.923 21.739 6.997 36.7281v-25.22c0-6.5477-2.239-12.5899-6.021-17.4458l-.976 5.9377Z"/><path fill="#717070" d="M81.9454 16.5046s-21.0897-1.7489-33.6869 12.5427c0 0-4.7614 10.2073-4.7614 28.29 0 0 33.5219-23.0398 74.4589 0 0 0 .128-22.167-4.381-30.6254 0 0-13.092-10.0624-31.6296-10.2073Z"/><path fill="#D79F10" d="M117.956 59.8646c-.408 0-.818-.0977-1.202-.3066-21.1573-11.4812-39.6003-10.8813-51.3456-8.3539-12.6747 2.7262-20.3657 8.1382-20.4431 8.1921-1.1382.8088-2.7141.5426-3.5223-.5931-.8081-1.1356-.5455-2.7161.5927-3.5249.3468-.246 8.6271-6.0725 22.312-9.0143 12.5804-2.706 32.2996-3.3665 54.8133 8.8526 1.226.6638 1.681 2.2005 1.017 3.4271-.458.8425-1.326 1.3244-2.222 1.3244v-.0034Z"/><path fill="#D1C7B8" d="M113.026 61.6406c-27.4943-16.6505-62.7672-5.1323-63.4104-4.92 3.5222-1.7759 8.9268-4.0405 15.7929-5.5165 10.8698-2.3387 27.4741-3.0295 46.6575 5.9815l.96 4.455Z"/><path fill="#D79F10" d="M81.3259 42.1727c3.872 0 7.0108-3.1412 7.0108-7.016 0-3.8749-3.1388-7.0161-7.0108-7.0161s-7.0108 3.1412-7.0108 7.0161c0 3.8748 3.1388 7.016 7.0108 7.016Z"/></svg>