<svg xmlns="http://www.w3.org/2000/svg" fill="none" viewBox="0 0 166 165"><g clip-path="url(#a)"><path fill="#FEC400" d="M153.262.244385H13.0383C6.19119.244385.640503 5.76864.640503 12.5832V152.139c0 6.815 5.550687 12.339 12.397797 12.339H153.262c6.847 0 12.398-5.524 12.398-12.339V12.5832c0-6.81456-5.551-12.338815-12.398-12.338815Z"/><path fill="#77655B" d="M108.597 24.4372c0-.0013.002-.0022.003-.0016 2.979 1.5106 12.519 4.6975 18.04 25.8343 3.232 22.9981 4.256 29.1337 5.256 34.1958 1 5.0622 1.347 12.9618 7.073 23.6343 5.161 9.619 1.796 15.198 1.081 16.206-.081.114-.176.214-.279.309-2.42 2.235-7.113-.31-7.45-3.587-.018-.173-.038-.346-.06-.519-.401-3.175-3.112-2.199-2.947.998.206 3.995.116 8.085-.909 9.615-.382.571-.919 1.172-1.548 1.776-4.042 3.886-10.499 1.919-13.066-3.066-.294-.572-.593-1.156-.893-1.747-2.895-5.709 3.12 12.291.088 13.51-3.031 1.219-21.1311 6.986-34.359 4.314-6.9691-1.407-13.3045-2.883-18.1456-4.093-3.2163-.804-6.9333-7.735-7.9395-10.894-2.2251-6.985-1.1227-8.482-1.7079-7.821-.5852.66-2.3578 3.352-1.1228 8.37.3777 1.409.3777 2.888 0 4.297-.6567 2.449-3.678 2.732-5.9276 1.561-2.8943-1.507-6.9862-3.307-10.5631-3.657-2.0489-.187-4.0858-.481-6.1014-.883-2.9184-.582-5.2769-2.681-5.9968-5.569-1.2214-4.898-2.3094-13.221.9831-21.862 5.1646-13.5547 8.3083-15.0649 8.6689-32.0832.3606-17.0183 2.7048-38.7331 22.9176-50.2863 20.2077-11.5523 42.8205-9.4644 54.9031 1.45.001.001.002.0002.002-.0013Z"/><path fill="#ECE2D1" d="M101.94 130.857c-4.6655-1.663-8.3568-5.734-8.3568-10.687v-3.963c.0443-1.111-.1871-2.218-.6872-3.254-.5002-1.036-1.2555-1.981-2.2183-2.78-.9662-.799-2.123-1.433-3.3988-1.866-1.2793-.433-2.6538-.657-4.0419-.657-1.3881 0-2.7627.224-4.0419.657-1.2793.433-2.4326 1.07-3.3989 1.866-.9662.799-1.7215 1.744-2.2182 2.78-.5001 1.036-.7349 2.143-.6873 3.254v3.961c0 4.954-3.6926 9.025-8.3602 10.685-7.8252 2.783-13.6148 7.53-16.7521 12.98-2.7551 4.786 1.8101 9.519 7.3329 9.519h56.2517c5.522 0 10.085-4.733 7.326-9.517-3.142-5.447-8.935-10.194-16.749-12.978Z"/><path fill="#4DB5B9" d="M83.8732 150.213c-31.2859 0-29.0701-30.659-28.5483 4.18.0827 5.522 4.552 10.055 10.0748 10.055h36.8783c5.527 0 9.998-4.54 10.076-10.066.493-34.779 2.79-4.169-28.4774-4.169h-.0034Z"/><path fill="#E83D59" d="M72.8805 139.491c0-5.885-5.1713-10.579-10.5764-8.252-9.9185 4.269-17.8153 12.947-20.9455 23.377-1.5875 5.29 3.021 9.859 8.5439 9.859h12.978c5.5228 0 10-4.477 10-10v-14.984ZM93.5526 139.333c0-5.893 5.1895-10.585 10.5744-8.194 9.73 4.321 17.486 13.024 20.56 23.472 1.558 5.298-3.049 9.864-8.571 9.864h-12.563c-5.5232 0-10.0004-4.477-10.0004-10v-15.142Z"/><path fill="#ECE2D1" d="M36.6143 91.4496c-.0006-.0006-.0017-.0002-.0017.0007.0207 1.2148.2861 2.416.7791 3.5292.4933 1.114 1.201 2.1197 2.0889 2.9561.8846.8397 1.9325 1.4932 3.0723 1.9266 1.1431.4338 2.3611.6328 3.5826.5958 2.47.044 4.855-.8802 6.6446-2.5732 1.7895-1.6931 2.834-4.0227 2.9089-6.4776-.017-1.2223-.2756-2.4311-.7689-3.5519-.49-1.1208-1.2044-2.1332-2.0924-2.9764-.888-.8431-1.9427-1.5-3.0893-1.9334-1.1499-.4334-2.3747-.6332-3.6029-.5892-2.4701-.0372-4.8551.8973-6.6378 2.6005-1.7823 1.7026-2.8165 4.0347-2.8817 6.4921 0 .0009-.0011.0013-.0017.0007Z"/><path fill="#B5AA9A" d="M42.2483 90.7081c.0011.0011.0026.0017.0042.0016 1.5608-.037 3.1216.1154 4.645.4572 1.201.3454 2.1775 1.1174 3.3683 1.4628.0816.0203.1701.0135.2483-.0136.0817-.0271.1497-.0812.2008-.149.051-.0677.0816-.1489.0884-.2336.0068-.0846-.0136-.1693-.0544-.2438-1.2929-2.658-6.1649-2.079-8.5125-1.8657-.0782 0-.1531.0305-.2075.0846-.0544.0542-.0851.1287-.0851.2066s.0307.1524.0851.2065c.0544.0542.1293.0847.2075.0847h.0079c.0015 0 .0029.0006.004.0017Z"/><path fill="#ECE2D1" d="M127.395 91.5579c-.002.001-.004.0031-.004.0053-.02 1.2042-.279 2.3948-.762 3.4975-.483 1.1073-1.184 2.1062-2.055 2.9425-.874.8364-1.905 1.4933-3.031 1.9335-1.13.4403-2.334.6533-3.545.6263-2.47.047-4.859-.8769-6.648-2.5699-1.79-1.6965-2.834-4.0227-2.909-6.481.02-1.2122.286-2.4041.772-3.5147.487-1.1106 1.191-2.1129 2.072-2.9492.878-.8364 1.916-1.4933 3.052-1.9301 1.136-.4368 2.344-.6467 3.562-.6129 2.46-.0338 4.835.8973 6.611 2.5904 1.775 1.6921 2.812 4.01 2.888 6.4567 0 .0023-.001.0045-.003.0056Z"/><path fill="#B5AA9A" d="M122.036 90.1746c-2.358-.2134-7.219-.8059-8.522 1.8657-.045.0745-.062.1591-.058.2472.007.0846.037.1693.092.237.054.0677.125.1185.207.1456.082.0271.17.0305.255.0068 1.201-.2912 2.157-1.1174 3.369-1.4628 1.531-.3386 3.092-.491 4.661-.4571.078 0 .153-.0305.207-.0847.055-.0542.085-.1287.085-.2065 0-.0779-.03-.1524-.085-.2066-.054-.0542-.129-.0846-.207-.0846h-.004Z"/><path fill="#F0CFBA" d="M72.8805 118.204c0-4.479 3.6304-8.109 8.1088-8.109h4.8313c4.2703 0 7.732 3.461 7.732 7.732 0 3.108-1.8687 5.937-4.9047 6.603-3.0976.679-7.271 1.149-11.3412.211-2.8594-.659-4.4262-3.503-4.4262-6.437Z"/><path fill="#ECE2D1" d="M77.6505 117.822h10.5334c16.1741 0 29.2831-13.047 29.2831-29.144V57.0184c0-16.0939-13.109-29.1438-29.2831-29.1438H77.6505c-16.1743 0-29.2832 13.0499-29.2832 29.1438V88.678c0 16.097 13.1089 29.144 29.2832 29.144Z"/><path fill="#B5AA9A" d="M100.85 62.8188c-.098 0-.2-.0271-.296-.0813-1.2822-.7483-2.7451-1.1919-4.2319-1.2833-1.5038-.0203-3.0382.2946-4.4263.921-.296.1321-.6397 0-.7724-.2912-.1326-.2912 0-.6366.2926-.7686 1.5447-.6941 3.256-1.0531 4.9537-1.0226 1.6943.1016 3.3376.6027 4.7763 1.4425.279.1625.371.518.208.7957-.109.1828-.303.2878-.504.2878ZM74.34 63.2776c0-.0009-.0007-.0017-.0017-.0017-.0913-.0002-.1859-.0206-.2738-.0677-1.3031-.6907-2.7729-1.097-4.2461-1.1715-1.5276-.0373-3.0348.2336-4.4671.8092-.2994.1185-.6396-.0237-.7587-.3217-.1191-.2979.0238-.6365.3232-.755 1.582-.6332 3.2457-.9278 4.9469-.8906 1.6603.0847 3.3002.5384 4.7529 1.307.2858.1524.3913.5046.2416.7856-.1052.1959-.3051.3075-.5155.3081-.0009 0-.0017-.0007-.0017-.0017ZM84.2118 97.6291c.0006-.0006.0001-.0017-.0008-.0017-5.5853-.0008-10.0784-2.8714-10.3268-3.0339-.2688-.176-.3436-.535-.1701-.8025.1735-.2674.5376-.3419.8063-.1693.0783.0508 7.764 4.9471 15.1673 1.7303.296-.1287.6396.0068.7689.3014.1293.2946-.0068.6365-.3028.7652-2.0235.88-4.0436 1.212-5.9413 1.2122-.0009 0-.0014-.001-.0007-.0017Z"/><path fill="#E0D6C2" d="M83.7133 84.9482c.0009-.0004.0006-.0017-.0004-.0017-2.0055-.001-3.6094-.7822-3.708-.833-.2756-.1388-.3879-.474-.2518-.7483.1395-.2742.4763-.386.7519-.2505.0511.0237 3.2526 1.5677 5.9574.0169.2687-.1524.6124-.061.7655.2065.1565.2675.0612.6095-.2076.7619-1.1078.6358-2.2631.8494-3.3066.8499-.0009 0-.0012-.0013-.0004-.0017Z"/><path fill="#77655B" d="M115.861 40.5774c0-.0033-.001-.0064-.003-.0089-5.483-6.5038-18.0736-14.089-21.0738-14.265-2.9974-.1795-14.5957-2.0892-23.1864 0-8.5907 2.0891-17.9639 5.0384-21.0769 9.2303-2.0056 2.7036-4.3055 10.2862-5.2642 17.2519-.5893 4.2818 4.5211 6.5524 8.4943 4.8511.6119-.262 1.2599-.5242 1.9452-.7842.7379-.2799 1.2719-.9382 1.3773-1.7203.0559-.4151.1246-.905.2033-1.429.2417-1.6093.9726-1.4634 1.0261.1631.0344 1.0473 1.072 1.7353 2.0795 1.4476 2.2039-.6291 4.4403-1.1454 6.6989-1.545.326-.0577.5559-.3528.5343-.6831-.0039-.0593-.0077-.1185-.0113-.1778-.0472-.7714.7705-.7676.8623-.0002.0419.3501.3674.5935.716.5404 1.8969-.289 3.9312-.5361 6.0933-.7218.3395-.0292.6082-.2999.6346-.6396.0028-.0361.0058-.0737.0089-.1128.0627-.7899 1.0914-.9161 1.1981-.1309.0469.3456.3748.7278.7229.7065 1.8103-.1111 3.6983-.1757 5.6959-.1939.6709-.0067 1.3418-.0056 2.0126.0032 4.362.0573 9.6317-3.6901 7.9696-7.7235-.1857-.4508.5783 1.061 1.1959 4.4051.4275 2.3148 2.2062 4.1861 4.5155 4.6417 1.9201.3788 3.8211.8551 5.6921 1.4274.129.0393.259-.026.272-.1599.026-.2748 1.759-.5402 1.773-.2645.017.3173.021.6282.009.929-.004.1044.062.1998.16.2354.996.3605 1.92.7367 2.776 1.1209 3.626 1.6286 9.962-.9588 9.609-4.9182-.383-4.3047-1.378-8.7701-3.657-11.4661-.002-.0025-.003-.0057-.003-.0089Z"/><path fill="#fff" d="M69.7368 81.7501c3.8557 0 6.9814-3.1108 6.9814-6.9482 0-3.8373-3.1257-6.9481-6.9814-6.9481-3.8557 0-6.9814 3.1108-6.9814 6.9481 0 3.8374 3.1257 6.9482 6.9814 6.9482ZM96.2506 81.7501c3.8554 0 6.9814-3.1108 6.9814-6.9482 0-3.8373-3.126-6.9481-6.9814-6.9481-3.8557 0-6.9814 3.1108-6.9814 6.9481 0 3.8374 3.1257 6.9482 6.9814 6.9482Z"/><path fill="#ECE2D1" d="M73.9062 65.5715h-8.342c-1.5531 0-2.8121 1.2591-2.8121 2.8122 0 1.553 1.259 2.8121 2.8121 2.8121h8.342c1.5531 0 2.8121-1.2591 2.8121-2.8121 0-1.5531-1.259-2.8122-2.8121-2.8122ZM100.519 65.5715h-8.3425c-1.5531 0-2.8121 1.2591-2.8121 2.8122 0 1.553 1.259 2.8121 2.8121 2.8121h8.3415c1.554 0 2.813-1.2591 2.813-2.8121 0-1.5531-1.259-2.8122-2.812-2.8122Z"/><path fill="#404040" d="M69.7368 79.3021c1.6986 0 3.0756-1.569 3.0756-3.5046 0-1.9355-1.377-3.5045-3.0756-3.5045-1.6987 0-3.0757 1.569-3.0757 3.5045 0 1.9356 1.377 3.5046 3.0757 3.5046ZM96.2506 79.3021c1.6986 0 3.0756-1.569 3.0756-3.5046 0-1.9355-1.377-3.5045-3.0756-3.5045-1.6987 0-3.0757 1.569-3.0757 3.5045 0 1.9356 1.377 3.5046 3.0757 3.5046Z"/></g><defs><clipPath id="a"><path fill="#fff" d="M0 0h166v165H0z"/></clipPath></defs></svg>