<svg xmlns="http://www.w3.org/2000/svg" fill="none" viewBox="0 0 70 83"><path fill="#D0D2D5" d="M69.9395 7.36457 58.9703 75.8996C58.3158 79.9928 54.8235 83 50.7256 83H21.2755c-4.0979 0-7.5902-3.0072-8.2447-7.1004L2.05988 7.36457C1.60959 4.55161 3.7563 2 6.5732 2h58.8529c2.8169 0 4.9636 2.55161 4.5134 5.36457Z"/><path fill="#E7EBF3" d="M67.9385 5.36457 56.9693 73.8996C56.3148 77.9928 52.8225 81 48.7246 81H19.2745c-4.0979 0-7.5902-3.0072-8.2447-7.1004L.0588988 5.36457C-.391386 2.55161 1.75532 0 4.57222 0H63.4252c2.8169 0 4.9636 2.55161 4.5133 5.36457Z"/><path fill="#A94007" d="M44.6339 71.7964H23.3937c-3.817 0-7.0684-2.8041-7.674-6.6165L8.22363 17.9495H59.1704l-6.8468 47.128c-.5602 3.8601-3.8326 6.7189-7.6897 6.7189Z"/><path fill="#F4F4F4" d="M21.0986 50.2217c-1.7418 0-3.248-1.3173-3.4609-3.1096l-2.1031-17.6864c-.2303-1.9372 1.1345-3.6959 3.0491-3.929 1.9145-.2349 3.6529 1.1478 3.8832 3.0849l2.1049 17.6865c.2303 1.9371-1.1345 3.6958-3.0491 3.9289-.1413.0177-.2827.0265-.4223.0265l-.0018-.0018Z"/></svg>