<svg xmlns="http://www.w3.org/2000/svg" fill="none" viewBox="0 0 82 111"><g clip-path="url(#a)"><path fill="#70AF56" d="M60.7808 22.2986 35.0511 80.2489l-4.2074 9.4727c-1.4902-.434-3.0359-.9506-4.6057-1.5461-1.4188-.5394-2.7768-1.1116-4.0593-1.7072l3.2914-9.8912 20.0487-60.2752c1.4316-4.302 6.1975-6.56418 10.4733-4.9721.0543.019.1074.0397.1619.0601 4.4206 1.6462 6.5313 6.6223 4.6268 10.9087ZM60.1414 6.49258c-.4185.10771-.8531.27156-1.2875.49332-.475.24264-.9049.53034-1.2805.84576-.064-.48259-.1876-.98045-.3734-1.47291-.2002-.52787-.4541-.9966-.7392-1.39376.8288-1.04292 1.8285-1.57655 2.6173-1.27727.7888.29928 1.1911 1.42425 1.0633 2.80486Z"/><path fill="#C4BE94" d="M62.3898 6.9845c1.5371-.39774 2.8657-.06872 3.2399.91433.4806 1.25904-.7832 3.11787-2.8217 4.15067-1.6556.838-3.3138.8751-4.1343.1867l-.9218-.3059c-1.0479-.1094-2.1805-1.198-2.8036-2.83309-.8002-2.09996-.4571-4.30403.7651-4.92331.9113-.46179 2.0544.08617 2.9075 1.2621"/><path fill="#5E8E47" d="M63.0367 23.2775 36.0928 83.2614l-4.406 9.8053c-1.5553-.447-3.1679-.9792-4.8051-1.5931-1.4801-.5559-2.8966-1.1464-4.2346-1.7594l3.4499-10.2363 21.0186-62.3806c1.5004-4.4518 6.4787-6.7995 10.9393-5.1596.0574.0199.1119.0404.1695.0618 4.6117 1.6958 6.8074 6.8397 4.8138 11.2778l-.0015.0002Z"/><path fill="#C4BE94" d="m32.2793 91.6205-7.5382 16.8155-7.1882-2.7 5.8555-17.4105M62.3899 6.98451c-.4298.11092-.8742.27775-1.3196.50413-.486.24727-.9283.53982-1.3119.86083-.0651-.48966-.19-.99601-.3816-1.49769-.2044-.53591-.4639-1.01244-.7559-1.41578.8495-1.06065 1.8738-1.60539 2.6823-1.30196.8086.30343 1.2195 1.44588 1.0867 2.85047Z"/><path fill="#70AF56" d="M56.4355 10.8299c.0799.1353.1819.2525.3035.3552-.1831.0099-.3616-.0157-.5285-.0794-.1358-.0525-.2604-.1272-.3721-.2226.2042.0215.4041.0061.5971-.0532Z"/><path fill="#DBD9BF" d="M60.1413 6.49264c1.5004-.38907 2.7974-.06523 3.1648.90294.4701 1.23895-.7604 3.06652-2.7506 4.08012-1.6155.823-3.2344.8583-4.036.1785l-.9006-.302c-1.0229-.1089-2.1295-1.1813-2.7413-2.7907-.7832-2.0664-.4521-4.23525.7412-4.84274.889-.45396 2.0045.08672 2.8402 1.2451"/><path fill="#70AF56" d="M60.7808 22.2986 35.0511 80.2489l-4.2074 9.4727c-1.4902-.434-3.0359-.9506-4.6057-1.5461-1.4188-.5394-2.7768-1.1116-4.0593-1.7072l3.2914-9.8912 20.0487-60.2752c1.4316-4.302 6.1975-6.56418 10.4733-4.9721.0543.019.1074.0397.1619.0601 4.4206 1.6462 6.5313 6.6223 4.6268 10.9087Z"/><path fill="#DBD9BF" d="m30.8438 89.7217-7.3391 16.5333-7.0215-2.665 5.6956-17.1217M60.1414 6.49258c-.4185.10771-.8531.27156-1.2875.49332-.475.24264-.9049.53034-1.2805.84576-.064-.48259-.1876-.98045-.3734-1.47291-.2002-.52787-.4541-.9966-.7392-1.39376.8288-1.04292 1.8285-1.57655 2.6173-1.27727.7888.29928 1.1911 1.42425 1.0633 2.80486Z"/></g><defs><clipPath id="a"><path fill="#fff" d="M0 10.2495 65.30172498-.00005397 81.0702457 100.4639863l-65.30172498 10.24955397z"/></clipPath></defs></svg>