<svg xmlns="http://www.w3.org/2000/svg" width="259" height="213" fill="none"><g clip-path="url(#a)"><path fill="#F5FBFC" d="M61.331 4.422c5.5 0 9.945 4.44 8.11 11.562l-9.661 36.66c.339.01.67.018 1.002.018 3.601 0 6.878-.991 12.042-9.256 1.341.07 3.173 1.411 3.597 2.609-5.344 9.414-9.082 13.32-16.03 13.32-.751 0-1.54-.044-2.377-.136l-4.021 15.369-8.462-5.428 3.383-12.476c-3.667-1.481-7.475-3.453-10.932-5.288-4.725 7.333-10.788 12.62-19.32 12.62-9.027 0-14.246-5.71-14.246-12.76 0-7.049 5.569-13.958 15.727-13.958 5.005 0 9.52 1.622 13.962 3.667l14.315-24.11C52.511 9.997 54.837 4.43 61.324 4.43m-10.508 45.33 9.38-34.121-.704-.28-17.699 29.68c3.174 1.692 6.347 3.453 9.027 4.724m-31.945 6.205c2.116 0 6.557-1.41 11.282-8.39-3.243-1.481-6.627-2.538-9.73-2.538-5.5 0-7.615 3.102-7.615 5.85 0 3.033 2.75 5.078 6.063 5.078ZM61.33 0c-8.245 0-11.83 6.187-15.303 12.174-.45.778-.914 1.577-1.4 2.388l-12.344 20.79c-3.572-1.39-7.626-2.499-12.137-2.499-5.938 0-11.04 1.905-14.751 5.505C1.916 41.733 0 46.306 0 51.233c0 4.926 1.817 9.1 5.116 12.23 3.413 3.238 8.098 4.952 13.553 4.952 4.938 0 9.527-1.47 13.637-4.37 2.525-1.78 4.858-4.076 7.073-6.957 1.386.71 2.823 1.422 4.275 2.096L41.27 67.98a4.42 4.42 0 0 0 1.88 4.878l8.462 5.428a4.412 4.412 0 0 0 3.995.398 4.416 4.416 0 0 0 2.669-3L61.4 63.731c8.636-.387 13.35-5.818 18.868-15.535a4.411 4.411 0 0 0 .324-3.655c-1.02-2.896-4.404-5.387-7.533-5.553a4.421 4.421 0 0 0-3.98 2.07c-1.01 1.619-1.895 2.868-2.684 3.84l7.323-27.794.008-.025c1.19-4.632.457-8.973-2.068-12.23C69.267 1.761 65.5-.007 61.331-.007V0ZM47.967 43.32l.074-.121-.037.14s-.023-.011-.033-.019h-.004Zm-29.085 8.214c-.95 0-1.64-.39-1.64-.656 0-1.054 1.721-1.43 3.192-1.43.652 0 1.356.066 2.108.203-2.208 1.85-3.638 1.879-3.66 1.879v.004Z"/><path fill="#F5FBFC" d="M89.354 61.686c16.078 0 25.104 10.222 25.104 25.38 0 16.287-10.294 37.504-28.981 37.504-6.347 0-9.944-2.539-14.67-6.415-3.527 3.032-8.108 5.077-13.611 5.077-9.237 0-12.554-5.781-12.554-10.435 0-4.654 3.384-10.645 11.566-10.645 3.951 0 7.405 1.411 12.2 4.864 1.268-1.975 2.326-4.16 3.174-6.275l7.19-17.838c1.976-4.864 6.701-9.868 13.048-9.868l1.832 5.498s-3.667 1.411-5.853 6.769c0 0-7.405 18.258-7.405 18.328-1.198 3.102-2.75 6.205-4.725 8.953 2.89 2.116 5.783 3.807 9.38 3.807 11.072 0 19.675-16.003 19.675-29.327 0-9.941-4.795-17.624-16.007-17.624-12.48 0-19.111 9.798-19.111 16.92 0 3.526 1.622 6.555 1.622 6.555l-6.701 5.004s-3.033-4.37-3.033-11.279c0-12.97 10.578-24.956 27.853-24.956m-32.579 53.719c2.75 0 5.15-1.197 7.195-3.032-3.103-2.469-5.36-3.667-7.545-3.667-2.75 0-4.301 1.762-4.301 3.597 0 2.045 1.976 3.102 4.655 3.102m32.579-58.141c-9.2 0-17.537 3.143-23.471 8.847-5.68 5.457-8.806 12.75-8.806 20.531 0 5.074 1.36 9.01 2.466 11.364a19.583 19.583 0 0 0-3.332-.276c-10.383 0-15.989 7.763-15.989 15.067 0 7.303 5.311 14.856 16.977 14.856 4.873 0 9.484-1.348 13.52-3.931 4.135 3.102 8.344 5.269 14.757 5.269 9.933 0 18.875-5.188 25.178-14.61 5.153-7.705 8.23-17.915 8.23-27.319 0-8.733-2.679-16.142-7.751-21.434-5.249-5.475-12.779-8.368-21.776-8.368l-.003.004Zm5.956 25.377c1.102-.362 1.887-1.098 2.421-2.138.395-.77.48-1.606.35-2.442 1.482 2.17 2.227 5.173 2.227 9.001 0 5.811-1.876 12.285-5.017 17.322-3.007 4.82-6.737 7.587-10.235 7.587-1.131 0-2.197-.28-3.284-.785a49.308 49.308 0 0 0 2.757-5.958c.015-.037.026-.07.04-.107.38-.976 4.571-11.334 7.339-18.154 1.246-3.055 3.04-4.131 3.406-4.323l-.004-.003Z"/><path fill="#F5FBFC" d="M131.35 83.356a7.843 7.843 0 0 1 7.899 5.712l1.975-4.794h9.945l-8.957 22.348c-3.103 7.682-1.975 8.953-.564 8.953 3.104 0 8.179-5.567 13.118-14.097 1.338.07 3.174 1.411 3.597 2.608-5.429 9.518-12.059 17.695-20.238 17.695-7.051 0-7.615-5.782-7.615-5.782s-4.655 5.782-10.718 5.782c-5.006 0-7.615-3.947-7.615-8.814 0-7.543 6.207-29.61 19.181-29.61m-7.265 30.383c4.017 0 7.475-5.497 7.475-5.497l5.005-12.337s0-4.3-3.243-4.3c-5.994 0-11.496 14.592-11.496 19.459 0 1.905.847 2.679 2.255 2.679m7.261-34.806c-4.15 0-8.002 1.588-11.444 4.717-2.635 2.395-4.983 5.67-6.981 9.731-3.557 7.241-5.178 15.225-5.178 19.581 0 7.793 4.95 13.235 12.037 13.235 3.845 0 7.14-1.558 9.587-3.253 1.939 1.872 4.799 3.253 8.75 3.253 11.397 0 19.199-11.371 24.079-19.927a4.412 4.412 0 0 0 .328-3.662c-1.024-2.897-4.404-5.388-7.533-5.553-.078-.004-.155-.008-.233-.008a4.416 4.416 0 0 0-3.825 2.207 76.562 76.562 0 0 1-2.824 4.522l7.114-17.746a4.422 4.422 0 0 0-4.058-6.183h-9.945a4.421 4.421 0 0 0-2.852 1.043c-1.803-1.165-4.114-1.96-7.022-1.96v.003Zm-4.202 27.883a35.984 35.984 0 0 1 1.807-4.643c.442-.94.877-1.758 1.297-2.462l-2.621 6.46a9.932 9.932 0 0 1-.483.645Z"/><path fill="#F5FBFC" d="M198.236 83.67c4.091 0 6.487 2.254 6.487 5.92 0 2.046-.774 4.584-2.256 8.177l-3.667 9.164c-3.313 8.107-1.762 8.954-.564 8.954 3.104 0 8.179-5.568 13.118-14.098 1.338.07 3.173 1.411 3.597 2.609-5.643 9.798-12.2 17.694-20.238 17.694-6.771 0-9.945-5.077-4.936-17.624l1.692-4.09c1.268-3.243 2.47-6.062 2.47-7.119 0-.918-.848-1.481-1.906-1.481-1.835 0-5.149 1.621-8.109 4.934l-9.874 24.463h-10.014c1.552-3.877 6.701-16.497 8.392-20.797 1.268-3.173 2.47-6.062 2.47-7.193 0-.847-.774-1.41-1.832-1.41-1.836 0-5.079 1.55-8.109 5.003l-9.874 24.393h-9.944l14.809-36.59h9.945l-1.482 3.737c1.411-1.341 6.063-4.654 10.932-4.654 3.951 0 6.417 2.325 6.347 5.921 2.539-2.468 7.545-5.921 12.55-5.921m0-4.422c-3.782 0-7.519 1.43-10.667 3.342-.077-.084-.158-.17-.239-.254-1.954-1.993-4.796-3.091-7.995-3.091-2.539 0-4.994.652-7.154 1.558a4.416 4.416 0 0 0-2.296-.64h-9.944a4.42 4.42 0 0 0-4.099 2.763l-14.809 36.589a4.419 4.419 0 0 0 4.098 6.08h9.944a4.42 4.42 0 0 0 4.099-2.764l.464-1.142a4.417 4.417 0 0 0 4.394 3.906h10.014a4.423 4.423 0 0 0 4.102-2.767l5.389-13.35c-1.191 5.247-.741 9.337 1.334 12.399 1.434 2.115 4.305 4.635 9.838 4.635 11.3 0 19.151-11.363 24.071-19.912a4.408 4.408 0 0 0 .336-3.677c-1.025-2.896-4.405-5.387-7.534-5.553a4.417 4.417 0 0 0-4.058 2.2 75.255 75.255 0 0 1-2.827 4.532l1.869-4.672c1.832-4.455 2.58-7.307 2.58-9.842 0-3.077-1.084-5.7-3.137-7.59-1.957-1.803-4.648-2.757-7.773-2.757v.007Z"/><path fill="#F5FBFC" d="M233.727 83.67c4.021 0 6.346 2.184 6.346 5.92 0 1.976-.704 4.51-2.185 8.177l-3.668 9.164c-3.313 8.107-1.761 8.954-.563 8.954 3.103 0 8.108-5.568 13.117-14.098 1.338.07 3.174 1.412 3.598 2.609-5.643 9.798-12.2 17.694-20.239 17.694-6.841 0-9.944-5.147-4.935-17.624l1.621-4.09c1.412-3.383 2.47-6.061 2.47-7.119 0-.917-.774-1.481-1.832-1.481-1.835 0-5.079 1.551-8.109 5.004l-9.874 24.393h-9.944l14.809-36.59h9.945l-1.482 3.737c1.412-1.342 6.063-4.654 10.932-4.654m-.004-4.422c-2.539 0-4.994.652-7.154 1.559a4.415 4.415 0 0 0-2.296-.641h-9.944a4.421 4.421 0 0 0-4.099 2.763l-14.809 36.59a4.417 4.417 0 0 0 4.098 6.079h9.944a4.42 4.42 0 0 0 4.099-2.763l5.341-13.199c-1.15 5.159-.697 9.197 1.36 12.233 1.434 2.119 4.308 4.647 9.859 4.647 11.305 0 19.152-11.364 24.072-19.912a4.407 4.407 0 0 0 .335-3.678c-1.024-2.896-4.404-5.387-7.533-5.553-.078-.003-.155-.007-.232-.007a4.42 4.42 0 0 0-3.815 2.185 79.902 79.902 0 0 1-2.798 4.444l1.832-4.584c1.755-4.337 2.503-7.277 2.503-9.82 0-6.187-4.327-10.343-10.77-10.343h.007ZM110.105 127.975c11.213 0 29.055 6.485 40.832 6.485 6.346 0 8.462-2.045 8.462-2.045l5.219 2.889s-1.058 7.472-13.328 7.472c-2.609 0-7.194-.353-10.508-.847l-12.13 29.96c-6.207 15.723-15.727 18.402-22 18.402-10.932 0-16.501-7.613-16.501-15.369 0-7.756 5.937-15.071 15.325-15.071.479 0 .966.019 1.46.056v8.25a13.159 13.159 0 0 0-.996-.037c-5.753 0-7.397 4.072-7.397 6.876 0 3.946 3.174 7.049 7.615 7.049 6.771 0 10.932-5.992 14.809-15.65l10.579-26.224c-8.463-1.761-16.855-3.876-21.931-3.876-5.573 0-7.615 2.609-7.615 5.427 0 3.033 2.4 4.584 4.936 4.584 2.889 0 5.005-2.185 5.005-2.185l4.021 6.135s-3.457 3.737-9.52 3.737c-6.557 0-12.554-4.511-12.554-12.337 0-6.769 4.585-13.678 16.217-13.678m35.944 15.793 4.302 2.609-2.396 5.781c2.889 2.609 10.508 6.275 10.508 11.279 0 .848-.21 1.975-.848 3.597l-2.326 5.921c-3.383 8.176-1.411 9.024-.493 9.024 2.185 0 5.853-4.794 11.282-14.098 1.338.07 3.173 1.411 3.597 2.609-5.359 9.378-10.932 17.694-18.337 17.694-5.499 0-10.508-4.23-5.499-16.567l2.4-5.921c.563-1.411.634-2.115.634-2.395 0-1.411-1.268-2.469-3.528-4.44-6.137 13.534-13.047 25.167-16.711 28.409-1.268-.07-3.104-1.621-3.457-2.819 3.243-3.102 9.66-13.044 16.571-28.269-1.268-1.341-2.186-2.679-2.186-4.37 0-3.526 3.598-7.119 6.487-8.036m-35.944-20.215c-14.26 0-20.64 9.09-20.64 18.099 0 4.897 1.869 9.29 5.267 12.377a16.432 16.432 0 0 0 3.774 2.569 18.884 18.884 0 0 0-7.404 4.742c-3.465 3.611-5.374 8.438-5.374 13.589 0 9.835 7.187 19.791 20.924 19.791 4.928 0 9.465-1.363 13.486-4.049a26.061 26.061 0 0 0 2.573-1.968c1.518 1.658 3.682 2.87 5.676 2.981a4.434 4.434 0 0 0 3.177-1.102c2.208-1.953 4.954-5.814 7.788-10.542-.066 2.985.616 5.549 2.042 7.668 2.097 3.114 5.724 4.901 9.944 4.901 4.696 0 9.012-2.211 13.192-6.762 3.398-3.696 6.325-8.508 8.982-13.162a4.424 4.424 0 0 0 .332-3.666c-1.025-2.896-4.405-5.387-7.534-5.553a4.43 4.43 0 0 0-3.538 1.478 10.3 10.3 0 0 0 .114-1.504c0-6.035-5.481-9.893-9.484-12.708-.018-.011-.033-.026-.051-.037l1.087-2.624c.144-.346.24-.7.291-1.057 5.754-.663 9.126-2.941 11.013-4.901 2.654-2.76 3.177-5.634 3.255-6.183a4.423 4.423 0 0 0-2.237-4.488l-5.219-2.889a4.42 4.42 0 0 0-2.142-.552 4.42 4.42 0 0 0-2.845 1.035c-.24.144-1.825 1.006-5.617 1.006-5.478 0-12.831-1.625-19.941-3.199-7.644-1.691-14.868-3.286-20.887-3.286l-.004-.004Zm-3.685 18.243v-.074c0-.269.059-.316.125-.372.118-.095.748-.545 2.532-.622a4.492 4.492 0 0 0-.295.291c-.328.298-1.153.862-1.85.862a1.3 1.3 0 0 1-.512-.089v.004Zm4.445 16.091c5.049-1.227 7.954-4.215 8.341-4.631a4.425 4.425 0 0 0 .453-5.424l-4.021-6.135a5.684 5.684 0 0 0-.255-.354c2.96.505 6.406 1.253 9.959 2.023.045.011.089.018.133.029l-8.61 21.35c-4.559 11.352-7.969 12.882-10.707 12.882-1.909 0-3.192-1.058-3.192-2.628 0-.501.14-1.201.531-1.676.427-.516 1.249-.781 2.443-.781.211 0 .435.007.664.025a4.43 4.43 0 0 0 3.339-1.168 4.42 4.42 0 0 0 1.416-3.242v-8.25a4.4 4.4 0 0 0-.491-2.023l-.003.003Z"/><path fill="#F5FBFC" d="M177.515 136.391c3.033 0 5.643 2.468 5.643 5.497s-2.61 5.642-5.643 5.642c-3.034 0-5.499-2.609-5.499-5.642a5.505 5.505 0 0 1 5.499-5.497Zm1.481 14.521-9.026 22.348c-3.174 7.896-1.906 8.954-.564 8.954 3.103 0 8.252-5.568 13.188-14.098 1.338.07 3.173 1.411 3.597 2.609-5.499 9.588-12.34 17.694-20.029 17.694-6.206 0-10.368-4.724-5.289-17.414l8.179-20.093h9.944Zm-1.481-18.943c-5.474 0-9.922 4.451-9.922 9.919 0 1.662.398 3.232 1.105 4.617a4.42 4.42 0 0 0-3.741 2.742l-8.179 20.092-.011.026c-3.254 8.133-3.435 14.419-.545 18.686 2.093 3.087 5.624 4.79 9.94 4.79 4.74 0 9.418-2.182 13.9-6.485 3.339-3.21 6.693-7.727 9.966-13.431a4.42 4.42 0 0 0 .335-3.67c-1.021-2.896-4.4-5.387-7.533-5.553-.078-.004-.155-.008-.233-.008a4.428 4.428 0 0 0-3.829 2.208 70.575 70.575 0 0 1-2.938 4.672l7.224-17.886a4.464 4.464 0 0 0 .284-2.645c2.551-1.847 4.246-4.842 4.246-8.151 0-5.472-4.515-9.919-10.066-9.919l-.003-.004Z"/><path fill="#F5FBFC" d="M206.087 149.755c5.289 0 7.545 4.3 7.545 9.448 0 9.164-7.121 21.007-10.015 23.899 5.993-2.325 11.072-6.909 15.938-15.229 1.338.07 3.173 1.411 3.597 2.609-5.359 9.447-13.892 17.694-25.598 17.694-8.532 0-10.932-4.37-10.932-4.37l3.314-3.033s1.058 1.482 2.255 1.482c4.232 0 11.496-15.016 11.496-21.575 0-1.975-.704-2.962-2.185-2.962-2.54 0-5.643 2.609-7.969 5.921l-15.163 37.577h-9.944l20.448-50.547h9.874l-1.197 3.032c.07-.14 3.523-3.946 8.532-3.946m-.004-4.422c-1.949 0-3.91.406-5.794 1.191a4.42 4.42 0 0 0-1.537-.277h-9.874a4.42 4.42 0 0 0-4.098 2.764l-20.449 50.547a4.419 4.419 0 0 0 4.099 6.08h9.944a4.423 4.423 0 0 0 4.102-2.767l5.064-12.547c2.289 1.249 5.533 2.274 10.018 2.274 11.695 0 22.152-7.079 29.446-19.935a4.439 4.439 0 0 0 .324-3.655c-1.024-2.896-4.404-5.387-7.533-5.553a4.41 4.41 0 0 0-2.182.446c.28-1.559.449-3.14.449-4.702 0-3.637-.903-6.824-2.609-9.219-2.138-2.999-5.463-4.65-9.358-4.65l-.012.003Zm-8.65 20.458c.402-.545.8-1.021 1.176-1.433-.498 1.779-1.294 3.95-2.414 6.319-.944 1.994-1.854 3.548-2.636 4.709l3.87-9.595h.004ZM65.54 11.78c5.5 0 9.945 4.44 8.11 11.563l-9.661 36.66c.339.01.67.018 1.003.018 3.6 0 6.877-.992 12.04-9.256 1.343.07 3.174 1.41 3.598 2.608-5.344 9.415-9.081 13.32-16.03 13.32-.751 0-1.54-.043-2.377-.135l-4.02 15.368L49.74 76.5l3.383-12.477c-3.667-1.48-7.474-3.452-10.932-5.287-4.725 7.332-10.788 12.62-19.32 12.62-9.027 0-14.246-5.711-14.246-12.76 0-7.05 5.569-13.958 15.723-13.958 5.006 0 9.52 1.621 13.962 3.666l14.316-24.109c4.09-6.839 6.417-12.406 12.904-12.406M55.02 57.117l9.38-34.121-.703-.28-17.7 29.68c3.174 1.691 6.348 3.453 9.027 4.724M23.08 63.326c2.116 0 6.557-1.411 11.283-8.39-3.244-1.481-6.628-2.539-9.73-2.539-5.5 0-7.616 3.102-7.616 5.851 0 3.033 2.75 5.078 6.063 5.078ZM65.54 7.358c-8.245 0-11.83 6.187-15.303 12.175-.45.777-.914 1.577-1.4 2.387L36.493 42.71c-3.572-1.39-7.626-2.498-12.137-2.498-5.938 0-11.04 1.905-14.75 5.505-3.48 3.375-5.4 7.947-5.4 12.874 0 4.926 1.817 9.101 5.115 12.23 3.413 3.239 8.098 4.952 13.553 4.952 4.939 0 9.528-1.47 13.637-4.37 2.525-1.78 4.858-4.075 7.073-6.957 1.386.711 2.824 1.422 4.276 2.097l-2.385 8.795a4.42 4.42 0 0 0 1.88 4.879l8.463 5.427a4.412 4.412 0 0 0 3.995.398 4.416 4.416 0 0 0 2.668-2.999l3.126-11.953c8.636-.387 13.35-5.819 18.868-15.535a4.411 4.411 0 0 0 .324-3.655c-1.021-2.897-4.405-5.387-7.534-5.553a4.421 4.421 0 0 0-3.98 2.07c-1.01 1.618-1.895 2.867-2.684 3.84l7.324-27.794.007-.026c1.19-4.632.457-8.972-2.067-12.23-2.393-3.087-6.16-4.856-10.328-4.856l.004.007ZM52.177 50.68l.074-.122-.04.14s-.023-.01-.034-.018Zm-29.085 8.213c-.95 0-1.64-.39-1.64-.656 0-1.053 1.721-1.43 3.192-1.43.653 0 1.357.067 2.108.203-2.207 1.85-3.637 1.88-3.66 1.88v.003Z"/><path fill="#F5FBFC" d="M93.564 69.045c16.077 0 25.103 10.221 25.103 25.38 0 16.287-10.294 37.503-28.98 37.503-6.348 0-9.945-2.538-14.67-6.415-3.528 3.033-8.109 5.078-13.612 5.078-9.236 0-12.554-5.782-12.554-10.435 0-4.654 3.384-10.646 11.566-10.646 3.951 0 7.405 1.412 12.2 4.864 1.268-1.975 2.326-4.16 3.174-6.275l7.19-17.838c1.976-4.864 6.702-9.867 13.048-9.867l1.832 5.497s-3.667 1.411-5.853 6.77c0 0-7.405 18.257-7.405 18.327-1.197 3.103-2.75 6.205-4.725 8.954 2.89 2.115 5.783 3.806 9.38 3.806 11.073 0 19.675-16.003 19.675-29.327 0-9.941-4.795-17.624-16.007-17.624-12.48 0-19.11 9.798-19.11 16.92 0 3.527 1.62 6.556 1.62 6.556l-6.7 5.004s-3.033-4.37-3.033-11.28c0-12.97 10.578-24.956 27.853-24.956m-32.578 53.72c2.75 0 5.149-1.198 7.194-3.033-3.103-2.469-5.359-3.666-7.545-3.666-2.75 0-4.3 1.761-4.3 3.596 0 2.045 1.975 3.103 4.654 3.103M93.56 64.619c-9.2 0-17.537 3.143-23.471 8.847-5.68 5.457-8.806 12.75-8.806 20.532 0 5.074 1.36 9.009 2.466 11.363a19.676 19.676 0 0 0-3.332-.276c-10.383 0-15.989 7.764-15.989 15.067s5.312 14.857 16.977 14.857c4.873 0 9.484-1.349 13.52-3.932 4.135 3.103 8.344 5.269 14.758 5.269 9.933 0 18.874-5.188 25.177-14.61 5.153-7.704 8.23-17.915 8.23-27.318 0-8.733-2.679-16.143-7.751-21.434-5.248-5.476-12.778-8.368-21.775-8.368l-.004.003Zm5.956 25.377c1.102-.361 1.887-1.098 2.422-2.137.394-.77.479-1.607.35-2.443 1.482 2.17 2.226 5.173 2.226 9.002 0 5.811-1.876 12.285-5.016 17.322-3.008 4.819-6.738 7.587-10.236 7.587-1.131 0-2.193-.28-3.284-.785a49.38 49.38 0 0 0 2.757-5.958c.015-.037.026-.07.04-.107.38-.98 4.571-11.335 7.34-18.155 1.245-3.055 3.04-4.13 3.405-4.322l-.004-.004ZM202.445 91.028c4.092 0 6.487 2.255 6.487 5.921 0 2.045-.774 4.584-2.255 8.177l-3.668 9.164c-3.313 8.106-1.762 8.953-.564 8.953 3.104 0 8.179-5.567 13.118-14.097 1.338.07 3.173 1.411 3.597 2.608-5.643 9.798-12.2 17.695-20.238 17.695-6.771 0-9.945-5.078-4.936-17.625l1.692-4.09c1.268-3.242 2.47-6.061 2.47-7.119 0-.917-.848-1.48-1.906-1.48-1.835 0-5.149 1.62-8.109 4.933l-9.874 24.463h-10.014c1.552-3.876 6.701-16.497 8.392-20.797 1.268-3.172 2.47-6.061 2.47-7.192 0-.848-.774-1.412-1.832-1.412-1.835 0-5.079 1.552-8.109 5.004l-9.874 24.393h-9.944l14.809-36.59h9.945l-1.482 3.737c1.412-1.341 6.063-4.654 10.932-4.654 3.951 0 6.417 2.326 6.347 5.922 2.539-2.469 7.545-5.922 12.55-5.922m0-4.421c-3.782 0-7.519 1.43-10.667 3.342-.077-.085-.158-.17-.239-.255-1.954-1.993-4.795-3.091-7.995-3.091-2.539 0-4.994.652-7.154 1.559a4.416 4.416 0 0 0-2.296-.641h-9.944a4.421 4.421 0 0 0-4.099 2.763l-14.809 36.59a4.417 4.417 0 0 0 4.098 6.079h9.944a4.42 4.42 0 0 0 4.099-2.763l.464-1.142a4.419 4.419 0 0 0 4.394 3.905h10.014a4.422 4.422 0 0 0 4.102-2.767l5.389-13.35c-1.19 5.247-.741 9.337 1.334 12.399 1.434 2.115 4.305 4.636 9.838 4.636 11.3 0 19.151-11.364 24.072-19.912a4.41 4.41 0 0 0 .335-3.678c-1.025-2.896-4.405-5.387-7.534-5.553-.077-.003-.155-.007-.232-.007a4.417 4.417 0 0 0-3.826 2.207 75.046 75.046 0 0 1-2.827 4.532l1.869-4.672c1.832-4.455 2.58-7.307 2.58-9.842 0-6.187-4.386-10.343-10.91-10.343v.004Z"/><path fill="#F5FBFC" d="M70.83 61.775 53.96 74.656l15.613 11.795 6.332 21.715 1.928 16.492 18.407 3.405 9.877 13.987-1.894 21.353-9.756 18.947 17.666 10.351 35.254-15.679 45.685-7.266-11.274-24.213-16.87-1.794-2.886-7.185-9.417-11.755-13.332-28.693-35.07-17.222-33.393-17.12ZM237.936 91.024c4.021 0 6.347 2.185 6.347 5.921 0 1.976-.704 4.511-2.186 8.177l-3.667 9.164c-3.314 8.106-1.762 8.954-.564 8.954 3.103 0 8.108-5.568 13.117-14.098 1.338.07 3.174 1.411 3.598 2.609-5.643 9.798-12.2 17.694-20.239 17.694-6.841 0-9.944-5.148-4.935-17.624l1.622-4.09c1.411-3.383 2.469-6.062 2.469-7.119 0-.918-.774-1.481-1.832-1.481-1.835 0-5.079 1.551-8.109 5.003l-9.874 24.393h-9.944l14.809-36.59h9.945l-1.482 3.737c1.412-1.341 6.063-4.654 10.932-4.654m-.004-4.421c-2.539 0-4.994.652-7.154 1.558a4.416 4.416 0 0 0-2.296-.64h-9.944a4.421 4.421 0 0 0-4.099 2.763l-14.809 36.589a4.419 4.419 0 0 0 4.098 6.08h9.945a4.42 4.42 0 0 0 4.098-2.763l5.341-13.199c-1.15 5.158-.697 9.197 1.36 12.233 1.434 2.119 4.309 4.647 9.859 4.647 11.305 0 19.152-11.364 24.072-19.913a4.408 4.408 0 0 0 .336-3.677c-1.025-2.896-4.405-5.387-7.534-5.553a4.42 4.42 0 0 0-4.047 2.178 78.929 78.929 0 0 1-2.798 4.443l1.832-4.583c1.751-4.337 2.503-7.278 2.503-9.82 0-6.187-4.327-10.343-10.77-10.343h.007Z"/><path fill="#F5FBFC" d="M114.315 135.329c11.212 0 29.055 6.486 40.831 6.486 6.347 0 8.462-2.045 8.462-2.045l5.219 2.888s-1.058 7.473-13.328 7.473c-2.609 0-7.194-.354-10.508-.847l-12.13 29.96c-6.206 15.723-15.727 18.402-22 18.402-10.932 0-16.501-7.613-16.501-15.369 0-7.757 5.938-15.071 15.325-15.071.479 0 .966.018 1.46.055v8.25a13.682 13.682 0 0 0-.995-.036c-5.754 0-7.398 4.071-7.398 6.875 0 3.947 3.174 7.049 7.615 7.049 6.771 0 10.932-5.991 14.81-15.649l10.578-26.224c-8.463-1.761-16.855-3.876-21.931-3.876-5.573 0-7.614 2.608-7.614 5.427 0 3.033 2.399 4.584 4.935 4.584 2.889 0 5.005-2.185 5.005-2.185l4.021 6.135s-3.457 3.736-9.52 3.736c-6.557 0-12.554-4.51-12.554-12.336 0-6.769 4.585-13.678 16.218-13.678m35.943 15.793 4.302 2.609-2.396 5.781c2.89 2.609 10.508 6.275 10.508 11.279 0 .847-.21 1.975-.848 3.596l-2.325 5.922c-3.384 8.176-1.412 9.024-.494 9.024 2.185 0 5.853-4.794 11.282-14.098 1.338.07 3.173 1.411 3.597 2.609-5.359 9.377-10.932 17.694-18.337 17.694-5.499 0-10.508-4.23-5.499-16.567l2.4-5.921c.564-1.412.634-2.115.634-2.395 0-1.412-1.268-2.469-3.528-4.44-6.137 13.534-13.047 25.166-16.711 28.409-1.268-.07-3.103-1.621-3.457-2.819 3.243-3.102 9.66-13.044 16.571-28.269-1.268-1.341-2.186-2.679-2.186-4.37 0-3.527 3.598-7.119 6.487-8.037m-35.943-20.214c-14.261 0-20.64 9.09-20.64 18.099 0 4.897 1.868 9.289 5.266 12.377a16.47 16.47 0 0 0 3.774 2.569 18.912 18.912 0 0 0-7.404 4.742c-3.465 3.611-5.374 8.438-5.374 13.589 0 9.835 7.187 19.791 20.924 19.791 4.928 0 9.465-1.364 13.486-4.05a25.782 25.782 0 0 0 2.573-1.967c1.518 1.658 3.682 2.87 5.676 2.981.081.003.162.007.247.007a4.434 4.434 0 0 0 2.93-1.109c2.208-1.953 4.954-5.815 7.788-10.542-.066 2.984.616 5.549 2.042 7.668 2.097 3.113 5.724 4.9 9.944 4.9 4.696 0 9.012-2.21 13.192-6.761 3.394-3.696 6.325-8.508 8.982-13.162a4.424 4.424 0 0 0 .332-3.666c-1.025-2.896-4.405-5.387-7.534-5.553a4.433 4.433 0 0 0-3.538 1.477c.077-.523.114-1.02.114-1.503 0-6.036-5.481-9.893-9.484-12.709-.018-.011-.033-.025-.051-.036l1.087-2.624c.144-.346.24-.7.291-1.058 5.754-.663 9.126-2.94 11.013-4.9 2.654-2.76 3.178-5.634 3.255-6.183a4.423 4.423 0 0 0-2.237-4.488l-5.219-2.889a4.42 4.42 0 0 0-4.987.483c-.24.143-1.825 1.006-5.617 1.006-5.477 0-12.831-1.625-19.94-3.199-7.645-1.691-14.869-3.287-20.888-3.287l-.003-.003Zm-3.686 18.243v-.074c0-.269.059-.317.125-.372.118-.096.748-.545 2.532-.623a4.492 4.492 0 0 0-.295.291c-.328.299-1.153.863-1.85.863a1.3 1.3 0 0 1-.512-.089v.004Zm4.445 16.091c5.049-1.227 7.954-4.215 8.341-4.632a4.418 4.418 0 0 0 .453-5.423l-4.021-6.136a6.454 6.454 0 0 0-.254-.353c2.959.504 6.405 1.252 9.959 2.023.044.011.088.018.132.029l-8.61 21.349c-4.559 11.353-7.968 12.882-10.707 12.882-1.909 0-3.192-1.057-3.192-2.627 0-.501.14-1.201.531-1.676.427-.516 1.249-.782 2.444-.782.21 0 .435.008.663.026a4.43 4.43 0 0 0 3.339-1.168 4.42 4.42 0 0 0 1.416-3.242v-8.251c0-.725-.177-1.415-.491-2.023l-.003.004Z"/><path fill="#F5FBFC" d="M158.5 136.564a12.26 12.26 0 0 1-5.028 2.192h22.568l2.33-10.159-13.446-4.027-6.424 11.994Z"/><path fill="#fff" d="M157.943 135.606a11.832 11.832 0 0 1-4.762 2.082c-1.242.239-.929 2.17.295 2.17h22.568c.468 0 .958-.343 1.065-.811.682-2.962 1.36-5.928 2.042-8.891.096-.42.192-.844.291-1.264.137-.593-.18-1.183-.774-1.36l-11.802-3.537-1.643-.494c-.454-.136-1.021.085-1.25.509l-5.624 10.498c-.266.497-.535.995-.8 1.496-.671 1.253 1.235 2.373 1.909 1.116l5.625-10.498c.265-.497.534-.995.799-1.496l-1.249.509 11.802 3.537 1.644.494-.774-1.36c-.682 2.963-1.36 5.929-2.042 8.892-.096.42-.192.843-.291 1.263l1.065-.81h-22.568l.295 2.17a13.274 13.274 0 0 0 5.292-2.307c.483-.35.719-.958.398-1.51-.276-.476-1.028-.752-1.511-.398Z"/><path fill="#F5FBFC" d="M181.724 143.749c3.033 0 5.643 2.469 5.643 5.498 0 3.029-2.61 5.641-5.643 5.641-3.034 0-5.499-2.609-5.499-5.641a5.505 5.505 0 0 1 5.499-5.498Zm1.482 14.522-9.027 22.348c-3.173 7.896-1.905 8.953-.564 8.953 3.104 0 8.253-5.567 13.188-14.097 1.338.07 3.173 1.411 3.597 2.608-5.499 9.588-12.34 17.695-20.028 17.695-6.207 0-10.368-4.724-5.289-17.415l8.178-20.092h9.945Zm-1.482-18.944c-5.474 0-9.922 4.452-9.922 9.92 0 1.661.398 3.231 1.105 4.617a4.42 4.42 0 0 0-3.741 2.741l-8.178 20.093s-.008.015-.011.026c-3.255 8.132-3.436 14.418-.546 18.685 2.094 3.088 5.625 4.79 9.941 4.79 4.74 0 9.417-2.181 13.899-6.485 3.339-3.209 6.693-7.727 9.966-13.431a4.423 4.423 0 0 0 .336-3.67c-1.021-2.896-4.401-5.387-7.534-5.553-.078-.003-.155-.007-.232-.007a4.427 4.427 0 0 0-3.83 2.207 70.313 70.313 0 0 1-2.938 4.672l7.225-17.885a4.472 4.472 0 0 0 .283-2.646c2.551-1.846 4.246-4.842 4.246-8.151 0-5.472-4.515-9.919-10.065-9.919l-.004-.004Z"/><path fill="#F5FBFC" d="M210.296 157.114c5.289 0 7.545 4.3 7.545 9.447 0 9.164-7.121 21.007-10.014 23.899 5.993-2.325 11.072-6.908 15.937-15.229 1.338.07 3.173 1.412 3.597 2.609-5.359 9.448-13.892 17.694-25.598 17.694-8.532 0-10.932-4.37-10.932-4.37l3.314-3.032s1.058 1.481 2.256 1.481c4.231 0 11.492-15.015 11.492-21.574 0-1.975-.704-2.963-2.186-2.963-2.539 0-5.643 2.609-7.968 5.922l-15.164 37.577h-9.944l20.449-50.548h9.874l-1.198 3.033c.07-.14 3.524-3.946 8.533-3.946m-.004-4.422c-1.95 0-3.911.405-5.794 1.19a4.42 4.42 0 0 0-1.537-.276h-9.874a4.421 4.421 0 0 0-4.099 2.763l-20.449 50.548a4.42 4.42 0 0 0 4.099 6.079h9.944a4.424 4.424 0 0 0 4.103-2.767l5.064-12.546c2.289 1.249 5.532 2.273 10.018 2.273 11.695 0 22.151-7.078 29.445-19.934a4.438 4.438 0 0 0 .325-3.656c-1.025-2.896-4.405-5.387-7.534-5.553-.077-.003-.155-.007-.232-.007-.686 0-1.349.159-1.95.453.28-1.558.45-3.139.45-4.701 0-3.637-.903-6.825-2.61-9.22-2.138-2.999-5.462-4.65-9.358-4.65l-.011.004Zm-8.651 20.458c.402-.546.8-1.021 1.176-1.434-.497 1.78-1.293 3.95-2.414 6.32-.944 1.993-1.854 3.548-2.635 4.709l3.87-9.595h.003Z"/><path fill="#F0F230" d="M80.74 53.44c-5.922 10.435-9.873 14.098-18.406 13.184l-4.021 15.369-8.463-5.428 3.384-12.476c-3.668-1.482-7.475-3.453-10.932-5.288-4.725 7.333-10.789 12.62-19.321 12.62-9.027 0-14.246-5.711-14.246-12.76 0-7.049 5.57-13.958 15.724-13.958 5.005 0 9.52 1.622 13.962 3.667l14.315-24.11c4.091-6.838 6.417-12.406 12.904-12.406 5.5 0 9.944 4.44 8.109 11.563l-9.66 36.659c4.02.14 7.404-.21 13.047-9.234 1.342.07 3.174 1.411 3.597 2.609l.008-.011ZM34.48 54.99c-3.243-1.481-6.627-2.539-9.73-2.539-5.5 0-7.615 3.103-7.615 5.852 0 3.032 2.75 5.077 6.063 5.077 2.116 0 6.557-1.411 11.282-8.39Zm20.663 2.185 9.38-34.12-.704-.28-17.699 29.68c3.174 1.691 6.347 3.453 9.027 4.724l-.004-.004Z"/><path fill="#3B597A" d="M58.316 82.73a.738.738 0 0 1-.398-.118l-8.462-5.428a.738.738 0 0 1-.314-.814l3.215-11.85c-3.343-1.393-6.767-3.154-9.801-4.757-5.536 8.335-11.942 12.392-19.571 12.392-8.82 0-14.983-5.55-14.983-13.498 0-7.303 5.654-14.694 16.464-14.694 5.157 0 9.779 1.706 13.667 3.46L52.11 23.88c.497-.833.969-1.647 1.426-2.432 3.347-5.774 5.993-10.336 12.115-10.336 3.023 0 5.724 1.25 7.416 3.43 1.81 2.337 2.311 5.55 1.408 9.054L65.05 59.361h.247c3.041 0 6.17-.829 11.227-8.917a.738.738 0 0 1 .664-.346c1.625.084 3.73 1.621 4.253 3.099a.732.732 0 0 1-.055.607c-5.64 9.935-9.716 14.338-18.492 13.612l-3.862 14.761a.74.74 0 0 1-.715.553Zm-7.607-6.493 7.154 4.588 3.763-14.386a.737.737 0 0 1 .793-.545c7.626.818 11.426-1.872 17.496-12.484-.435-.737-1.522-1.533-2.403-1.768-5.562 8.743-9.09 9.318-13.435 9.167a.741.741 0 0 1-.689-.925l9.66-36.66c.797-3.09.399-5.78-1.15-7.778-1.407-1.816-3.685-2.859-6.247-2.859-5.27 0-7.607 4.027-10.84 9.602-.46.793-.932 1.61-1.434 2.447l-14.315 24.11a.743.743 0 0 1-.944.294c-3.866-1.78-8.514-3.6-13.656-3.6-10.297 0-14.99 6.854-14.99 13.221 0 7.193 5.43 12.023 13.509 12.023 7.26 0 13.376-4.016 18.701-12.28a.734.734 0 0 1 .966-.252c3.321 1.762 7.173 3.766 10.862 5.255.347.14.535.516.435.877L50.702 76.24l.007-.004Zm-27.51-12.119c-3.878 0-6.801-2.498-6.801-5.814 0-3.317 2.584-6.589 8.352-6.589 2.875 0 6.251.877 10.036 2.605a.734.734 0 0 1 .306 1.083c-5.473 8.085-10.486 8.715-11.894 8.715ZM24.75 53.19c-5.079 0-6.878 2.756-6.878 5.115 0 2.358 2.29 4.34 5.326 4.34 2.415 0 6.307-1.945 10.17-7.34-3.263-1.404-6.16-2.111-8.618-2.111v-.004Zm30.393 4.724a.747.747 0 0 1-.317-.07c-2.06-.976-4.368-2.218-6.811-3.534l-2.245-1.205a.747.747 0 0 1-.365-.453.73.73 0 0 1 .078-.575l17.699-29.68a.733.733 0 0 1 .906-.306l.704.28c.35.14.538.52.439.88l-9.38 34.121a.75.75 0 0 1-.402.476.738.738 0 0 1-.306.066Zm-7.998-5.744 1.57.843c2.116 1.139 4.128 2.222 5.952 3.118l8.452-30.742-15.97 26.78h-.004Z"/><path fill="#F0F230" d="M72.732 114.441c1.267-1.975 2.325-4.16 3.173-6.275l7.191-17.838c1.976-4.864 6.7-9.868 13.048-9.868l1.831 5.498s-3.667 1.41-5.852 6.769c0 0-7.405 18.257-7.405 18.327-1.198 3.103-2.75 6.205-4.725 8.954 2.89 2.115 5.782 3.807 9.38 3.807 11.072 0 19.675-16.003 19.675-29.327 0-9.942-4.796-17.624-16.008-17.624-12.48 0-19.11 9.797-19.11 16.92 0 3.526 1.621 6.555 1.621 6.555l-6.7 5.004s-3.034-4.37-3.034-11.279c0-12.97 10.578-24.957 27.854-24.957 16.077 0 25.103 10.222 25.103 25.38 0 16.287-10.294 37.504-28.981 37.504-6.347 0-9.944-2.539-14.67-6.415-3.527 3.032-8.108 5.077-13.611 5.077-9.236 0-12.554-5.781-12.554-10.435 0-4.654 3.384-10.645 11.566-10.645 3.951 0 7.405 1.411 12.2 4.864l.008.004Zm-4.442 5.357c-3.103-2.469-5.359-3.666-7.545-3.666-2.75 0-4.3 1.761-4.3 3.596 0 2.045 1.975 3.103 4.654 3.103 2.68 0 5.15-1.198 7.195-3.033h-.004Z"/><path fill="#3B597A" d="M89.797 132.732c-6.38 0-10.177-2.546-14.662-6.194-3.907 3.18-8.6 4.856-13.616 4.856-9.18 0-13.29-5.612-13.29-11.172 0-4.576 3.276-11.382 12.303-11.382 3.914 0 7.327 1.282 11.99 4.547.98-1.621 1.887-3.464 2.701-5.494l7.195-17.838c2.09-5.144 7.143-10.332 13.73-10.332a.74.74 0 0 1 .7.505l1.832 5.498a.736.736 0 0 1-.436.92c-.029.012-3.409 1.397-5.436 6.36-1.987 4.897-7.158 17.661-7.386 18.277-.004.015-.011.029-.015.04-1.239 3.202-2.713 6.062-4.39 8.516 2.772 1.964 5.308 3.242 8.356 3.242 10.49 0 18.937-15.641 18.937-28.59 0-10.733-5.565-16.887-15.27-16.887-11.99 0-18.373 9.4-18.373 16.184 0 3.287 1.518 6.179 1.537 6.209.17.32.08.718-.21.935l-6.698 5.004a.739.739 0 0 1-1.046-.169c-.13-.188-3.163-4.643-3.163-11.7 0-12.454 10.022-25.693 28.59-25.693 15.942 0 25.842 10.008 25.842 26.118 0 8.699-2.846 18.147-7.608 25.269-3.958 5.918-11.009 12.974-22.11 12.974l-.004-.003Zm-14.67-7.889c.166 0 .332.055.468.165 4.6 3.774 8.072 6.25 14.202 6.25 18.429 0 28.244-21.353 28.244-36.767 0-15.413-9.336-24.643-24.367-24.643-17.614 0-27.116 12.48-27.116 24.22 0 5.096 1.714 8.773 2.506 10.203l5.562-4.157c-.487-1.08-1.43-3.54-1.43-6.33 0-7.403 6.896-17.657 19.848-17.657 5.558 0 9.859 1.802 12.778 5.354 2.595 3.157 3.966 7.657 3.966 13.007 0 13.902-8.916 30.064-20.412 30.064-3.88 0-7.01-1.898-9.815-3.95a.736.736 0 0 1-.162-1.025c1.78-2.48 3.34-5.439 4.637-8.788l.015.007c.246-.718 1.463-3.721 7.393-18.346 1.751-4.296 4.42-6.19 5.636-6.868l-1.46-4.374c-5.646.269-9.992 4.853-11.835 9.396l-7.19 17.834c-.96 2.392-2.046 4.547-3.237 6.397a.74.74 0 0 1-1.05.199c-4.722-3.401-8.02-4.724-11.769-4.724-7.943 0-10.829 5.925-10.829 9.908 0 4.827 3.653 9.699 11.817 9.699 4.861 0 9.402-1.695 13.129-4.897a.735.735 0 0 1 .479-.177h-.008Zm-14.031-1.275c-3.325 0-5.393-1.47-5.393-3.84 0-2.1 1.766-4.333 5.039-4.333 2.266 0 4.589 1.109 8.005 3.825a.73.73 0 0 1 .277.556.745.745 0 0 1-.244.571c-2.384 2.137-4.968 3.221-7.684 3.221Zm-.354-6.695c-2.34 0-3.564 1.437-3.564 2.859 0 2.192 2.996 2.366 3.918 2.366 2.093 0 4.113-.763 6.022-2.274-2.738-2.089-4.622-2.951-6.376-2.951Z"/><path fill="#F0F230" d="M162.679 111.508c-5.429 9.517-12.059 17.694-20.238 17.694-7.051 0-7.615-5.782-7.615-5.782s-4.655 5.782-10.718 5.782c-5.006 0-7.615-3.947-7.615-8.814 0-7.543 6.207-29.61 19.181-29.61 6.557 0 7.898 5.71 7.898 5.71l1.976-4.793h9.944l-8.956 22.348c-3.104 7.682-1.976 8.954-.564 8.954 3.103 0 8.179-5.568 13.118-14.098 1.337.07 3.173 1.411 3.597 2.609h-.008Zm-26.795 4.16 5.005-12.337s0-4.3-3.243-4.3c-5.993 0-11.496 14.592-11.496 19.459 0 1.905.847 2.679 2.255 2.679 4.018 0 7.475-5.498 7.475-5.498l.004-.003Z"/><path fill="#3B597A" d="M142.441 129.942c-5.337 0-7.291-3.121-7.984-5.018-1.71 1.735-5.58 5.018-10.349 5.018-4.77 0-8.352-3.839-8.352-9.551 0-4.067 1.647-11.544 4.799-17.959 2.775-5.652 7.651-12.388 15.119-12.388 4.625 0 6.881 2.668 7.891 4.525l1.297-3.154a.74.74 0 0 1 .682-.457h9.944c.244 0 .472.121.612.324s.166.46.074.685l-8.956 22.348c-2.359 5.841-2.009 7.366-1.747 7.753.044.066.129.188.497.188 2.256 0 6.988-4.245 12.48-13.733a.75.75 0 0 1 .678-.369c1.626.085 3.73 1.622 4.254 3.099a.742.742 0 0 1-.056.612c-7.032 12.325-13.666 18.066-20.88 18.066l-.003.011Zm-7.615-7.255a.732.732 0 0 1 .733.663c.023.207.612 5.115 6.882 5.115 6.269 0 12.738-5.402 19.409-16.994-.431-.734-1.507-1.522-2.385-1.765-5.152 8.795-10.183 14.028-13.497 14.028-.955 0-1.463-.457-1.721-.841-.608-.899-.973-2.748 1.599-9.127l8.551-21.334h-8.359l-1.787 4.337a.737.737 0 0 1-1.401-.114c-.052-.207-1.309-5.14-7.18-5.14-12.694 0-18.444 22.148-18.444 28.873 0 3.725 1.803 8.077 6.878 8.077 5.632 0 10.099-5.45 10.147-5.505a.736.736 0 0 1 .575-.273Zm-6.417-.781c-1.117 0-2.993-.442-2.993-3.416 0-4.948 5.503-20.196 12.233-20.196 3.148 0 3.981 3.294 3.981 5.037a.705.705 0 0 1-.055.276l-5.006 12.337c-.014.041-.037.077-.059.114-.151.24-3.722 5.844-8.097 5.844l-.004.004Zm9.237-22.138c-5.289 0-10.759 13.902-10.759 18.722 0 1.706.73 1.942 1.518 1.942 3.369 0 6.465-4.569 6.819-5.103l4.924-12.131c-.029-.659-.284-3.43-2.502-3.43Z"/><path fill="#F0F230" d="M219.271 111.821c-5.643 9.797-12.2 17.694-20.239 17.694-6.77 0-9.944-5.078-4.935-17.624l1.692-4.09c1.268-3.243 2.469-6.062 2.469-7.119 0-.918-.847-1.481-1.905-1.481-1.836 0-5.149 1.621-8.109 4.933l-9.874 24.463h-10.014c1.551-3.876 6.7-16.496 8.392-20.796 1.268-3.173 2.47-6.062 2.47-7.193 0-.847-.774-1.411-1.832-1.411-1.836 0-5.079 1.551-8.109 5.004l-9.874 24.393h-9.944l14.809-36.59h9.944l-1.481 3.737c1.411-1.342 6.063-4.654 10.932-4.654 3.951 0 6.417 2.325 6.347 5.921 2.539-2.469 7.544-5.921 12.55-5.921 4.091 0 6.487 2.255 6.487 5.921 0 2.045-.774 4.584-2.256 8.177l-3.667 9.163c-3.314 8.107-1.762 8.954-.564 8.954 3.103 0 8.178-5.567 13.117-14.097 1.338.07 3.174 1.411 3.598 2.608l-.004.008Z"/><path fill="#3B597A" d="M199.032 130.252c-3.103 0-5.447-1.043-6.785-3.018-2.116-3.121-1.725-8.375 1.164-15.616l1.696-4.097.608-1.541c.888-2.24 1.806-4.554 1.806-5.298 0-.512-.604-.745-1.168-.745-1.659 0-4.744 1.578-7.475 4.595l-9.823 24.342a.73.73 0 0 1-.681.46h-10.015a.734.734 0 0 1-.685-1.009c.608-1.518 1.765-4.37 3.048-7.539 2.02-4.986 4.312-10.638 5.341-13.254l.305-.759c1.04-2.587 2.112-5.266 2.112-6.161 0-.461-.567-.674-1.094-.674-1.615 0-4.63 1.459-7.475 4.661l-9.826 24.275a.737.737 0 0 1-.682.46h-9.944a.738.738 0 0 1-.686-1.013l14.809-36.59a.738.738 0 0 1 .682-.46h9.945a.742.742 0 0 1 .685 1.01l-.494 1.245c2.237-1.485 5.662-3.169 9.259-3.169 2.233 0 4.087.686 5.363 1.986.825.844 1.367 1.905 1.596 3.125 3.007-2.546 7.541-5.11 11.938-5.11s7.224 2.549 7.224 6.657c0 2.02-.671 4.474-2.311 8.461l-3.664 9.156c-2.377 5.818-2.023 7.359-1.758 7.753.045.066.129.192.509.192 2.256 0 6.988-4.245 12.48-13.733a.73.73 0 0 1 .678-.369c1.626.085 3.73 1.621 4.254 3.099a.741.741 0 0 1-.056.612c-4.463 7.752-11.485 18.062-20.876 18.062l-.004.004Zm-2.679-31.788c1.529 0 2.642.932 2.642 2.218 0 .976-.689 2.767-1.909 5.844l-.612 1.547-1.699 4.102c-2.657 6.654-3.111 11.581-1.312 14.234 1.065 1.573 2.938 2.369 5.566 2.369 6.505 0 12.679-5.402 19.409-16.994-.431-.73-1.508-1.522-2.385-1.761-5.152 8.795-10.184 14.027-13.497 14.027-.774 0-1.356-.283-1.732-.843-.564-.84-1.01-2.701 1.614-9.127l3.664-9.161c1.566-3.802 2.204-6.09 2.204-7.903 0-3.295-2.097-5.185-5.75-5.185-4.548 0-9.325 3.077-12.038 5.711a.736.736 0 0 1-1.249-.541c.029-1.478-.421-2.73-1.301-3.626-.992-1.01-2.481-1.544-4.309-1.544-4.681 0-9.207 3.294-10.423 4.451a.745.745 0 0 1-.922.078.739.739 0 0 1-.273-.881l1.08-2.727h-8.359l-14.212 35.116h8.352l9.686-23.933a.673.673 0 0 1 .129-.21c3.188-3.629 6.649-5.258 8.661-5.258 1.489 0 2.569.903 2.569 2.148 0 1.124-.844 3.28-2.219 6.71l-.302.756c-1.032 2.62-3.324 8.272-5.344 13.261-1.04 2.561-1.994 4.916-2.639 6.522h8.426l9.686-24.002a.797.797 0 0 1 .132-.214c3.181-3.559 6.72-5.18 8.658-5.18l.008-.004Z"/><path fill="#F0F230" d="M254.691 111.821c-5.643 9.797-12.2 17.694-20.238 17.694-6.841 0-9.945-5.148-4.936-17.624l1.622-4.09c1.412-3.383 2.47-6.062 2.47-7.119 0-.918-.774-1.481-1.832-1.481-1.836 0-5.079 1.551-8.109 5.003l-9.874 24.393h-9.944l14.809-36.59h9.944l-1.481 3.737c1.411-1.341 6.063-4.654 10.932-4.654 4.021 0 6.347 2.185 6.347 5.922 0 1.975-.704 4.51-2.186 8.176l-3.667 9.164c-3.314 8.107-1.762 8.954-.564 8.954 3.103 0 8.108-5.568 13.117-14.098 1.338.07 3.174 1.412 3.598 2.609l-.008.004Z"/><path fill="#3B597A" d="M234.449 130.252c-3.159 0-5.451-1.017-6.808-3.025-2.115-3.125-1.714-8.379 1.187-15.613l1.622-4.086c.907-2.178 2.418-5.8 2.418-6.85 0-.707-.914-.744-1.095-.744-1.614 0-4.629 1.459-7.475 4.661l-9.826 24.275a.736.736 0 0 1-.682.461h-9.944a.74.74 0 0 1-.686-1.014l14.81-36.59a.736.736 0 0 1 .682-.46h9.944c.243 0 .472.122.608.325a.746.746 0 0 1 .078.685l-.494 1.245c2.237-1.485 5.661-3.169 9.258-3.169 4.438 0 7.084 2.491 7.084 6.659 0 2.037-.67 4.569-2.241 8.453l-3.667 9.164c-2.377 5.818-2.023 7.358-1.758 7.752.044.067.129.192.509.192 2.683 0 7.581-5.391 12.48-13.737a.726.726 0 0 1 .674-.361c1.626.085 3.73 1.621 4.254 3.099a.741.741 0 0 1-.056.612c-4.463 7.752-11.485 18.062-20.876 18.062v.004Zm-2.68-31.788c1.515 0 2.569.91 2.569 2.218 0 1.127-.888 3.474-2.524 7.402l-1.618 4.079c-2.673 6.659-3.133 11.582-1.335 14.238 1.069 1.577 2.949 2.377 5.588 2.377 6.505 0 12.679-5.402 19.409-16.994-.431-.733-1.511-1.522-2.388-1.765-2.705 4.551-8.898 14.028-13.497 14.028-.774 0-1.357-.284-1.733-.844-.564-.84-1.01-2.701 1.615-9.127l3.663-9.16c1.475-3.652 2.134-6.091 2.134-7.904 0-3.342-1.994-5.185-5.609-5.185-4.681 0-9.207 3.294-10.424 4.451a.744.744 0 0 1-.921.078.738.738 0 0 1-.273-.88l1.08-2.727h-8.359l-14.213 35.115h8.352l9.686-23.932a.688.688 0 0 1 .129-.21c3.189-3.63 6.65-5.255 8.662-5.255l.007-.003Z"/><path fill="#F0F230" d="M155.606 150.205c-2.609 0-7.194-.354-10.508-.848l-12.13 29.961c-6.206 15.723-15.727 18.401-22 18.401-10.932 0-16.501-7.612-16.501-15.369 0-8.39 6.557-15.792 16.785-15.015v8.25c-6.557-.494-8.393 3.877-8.393 6.839 0 3.946 3.174 7.049 7.615 7.049 6.771 0 10.932-5.991 14.81-15.649l10.578-26.224c-8.463-1.762-16.855-3.877-21.931-3.877-5.573 0-7.615 2.609-7.615 5.428 0 3.032 2.4 4.584 4.936 4.584 2.889 0 5.005-2.185 5.005-2.185l4.021 6.135s-3.457 3.736-9.52 3.736c-6.557 0-12.554-4.51-12.554-12.336 0-6.769 4.585-13.678 16.218-13.678 11.632 0 29.055 6.485 40.831 6.485 6.347 0 8.462-2.045 8.462-2.045l5.219 2.889s-1.058 7.472-13.328 7.472v-.003Zm-26.113 41.663c3.243-3.102 9.66-13.044 16.571-28.269-1.268-1.342-2.186-2.679-2.186-4.37 0-3.527 3.598-7.119 6.487-8.037l4.302 2.609-2.396 5.781c2.889 2.609 10.508 6.275 10.508 11.279 0 .848-.21 1.975-.848 3.597l-2.325 5.921c-3.384 8.176-1.412 9.024-.494 9.024 2.185 0 5.853-4.794 11.282-14.098 1.338.07 3.173 1.411 3.597 2.609-5.359 9.378-10.932 17.694-18.337 17.694-5.499 0-10.508-4.23-5.499-16.567l2.4-5.921c.564-1.411.634-2.115.634-2.395 0-1.411-1.268-2.469-3.528-4.44-6.137 13.534-13.047 25.167-16.711 28.409-1.268-.07-3.103-1.621-3.457-2.819v-.007Z"/><path fill="#3B597A" d="M110.968 198.456c-5.282 0-9.738-1.731-12.882-5.004-2.808-2.925-4.356-6.868-4.356-11.102 0-4.477 1.813-8.729 4.979-11.662 3.247-3.007 7.718-4.458 12.598-4.09a.74.74 0 0 1 .682.733v8.247a.74.74 0 0 1-.793.737c-2.484-.188-4.419.342-5.746 1.573-1.673 1.551-1.854 3.685-1.854 4.529 0 3.6 2.956 6.312 6.878 6.312 5.702 0 9.793-4.4 14.124-15.189l10.25-25.41c-1.478-.313-2.952-.634-4.404-.947-6.469-1.404-12.576-2.734-16.516-2.734-4.372 0-6.878 1.71-6.878 4.691 0 2.656 2.108 3.847 4.198 3.847 2.532 0 4.46-1.942 4.478-1.964a.74.74 0 0 1 1.143.11l4.021 6.135a.738.738 0 0 1-.074.903c-.151.162-3.748 3.972-10.062 3.972-6.314 0-13.29-4.491-13.29-13.073 0-6.647 4.441-14.415 16.954-14.415 5.617 0 12.649 1.555 20.091 3.202 7.305 1.614 14.857 3.287 20.736 3.287 5.879 0 7.936-1.824 7.958-1.842a.746.746 0 0 1 .862-.107l5.219 2.889a.736.736 0 0 1 .373.748c-.048.331-1.294 8.106-14.058 8.106-1.235 0-2.86-.077-4.567-.203l4.01 2.432c.31.188.439.575.299.914l-2.193 5.288c.667.549 1.533 1.157 2.44 1.794 3.527 2.484 7.921 5.575 7.921 9.695 0 1.057-.295 2.321-.896 3.865l-2.326 5.921c-2.421 5.855-1.854 7.443-1.621 7.794.07.106.184.224.438.224 1.747 0 5.33-4.62 10.648-13.733a.734.734 0 0 1 .675-.365c1.625.085 3.73 1.622 4.253 3.099a.742.742 0 0 1-.055.612c-5.226 9.142-10.995 18.066-18.974 18.066-3.019 0-5.466-1.164-6.889-3.275-1.452-2.156-2.51-6.386.704-14.308l2.396-5.922c.538-1.348.582-1.964.582-2.118 0-.933-.892-1.799-2.528-3.236-6.008 13.1-12.731 24.438-16.483 27.758a.74.74 0 0 1-.531.184c-1.548-.085-3.667-1.806-4.121-3.35a.739.739 0 0 1 .199-.74c3.207-3.066 9.447-12.775 16.207-27.595-1.062-1.183-2.05-2.631-2.05-4.51 0-3.578 3.402-7.37 6.594-8.597a88.015 88.015 0 0 1-4.172-.46l-11.912 29.426c-6.152 15.586-15.731 18.862-22.686 18.862l.007-.004Zm-1.198-30.443c-3.936 0-7.394 1.286-10.058 3.755-2.864 2.653-4.508 6.511-4.508 10.579 0 7.045 4.931 14.632 15.764 14.632 9.314 0 16.685-6.202 21.315-17.934l12.13-29.968a.738.738 0 0 1 .792-.453c3.155.472 7.722.836 10.398.836 9.76 0 12.008-4.793 12.483-6.359l-4.312-2.388c-.947.634-3.483 1.905-8.521 1.905-6.041 0-13.675-1.688-21.057-3.32-7.04-1.555-14.316-3.165-19.775-3.165-11.414 0-15.48 6.684-15.48 12.94 0 7.617 5.945 11.6 11.817 11.6 4.522 0 7.519-2.2 8.566-3.114l-3.218-4.911c-.914.715-2.672 1.813-4.854 1.813-2.731 0-5.673-1.666-5.673-5.321 0-1.445.601-6.165 8.352-6.165 4.099 0 10.28 1.345 16.83 2.767 1.728.376 3.49.76 5.252 1.124a.742.742 0 0 1 .501.372.739.739 0 0 1 .033.623l-10.578 26.224c-3.361 8.369-7.563 16.114-15.491 16.114-4.762 0-8.352-3.346-8.352-7.786 0-1.039.225-3.666 2.325-5.612 1.489-1.382 3.528-2.052 6.067-2.001v-6.78c-.25-.011-.497-.014-.744-.014l-.004.007Zm39.891-2.476c.177 0 .35.063.487.184l.236.206c2.211 1.931 3.542 3.096 3.542 4.791 0 .434-.118 1.249-.69 2.671l-2.399 5.925c-2.352 5.793-2.643 10.262-.848 12.93 1.537 2.284 4.209 2.623 5.665 2.623 7.103 0 12.547-8.346 17.508-16.994-.431-.733-1.508-1.521-2.385-1.765-5.838 9.957-9.229 14.028-11.665 14.028a1.948 1.948 0 0 1-1.666-.88c-.962-1.438-.48-4.437 1.478-9.161l2.322-5.91c.534-1.367.796-2.454.796-3.327 0-3.357-4.044-6.205-7.294-8.49-1.136-.8-2.204-1.551-2.971-2.24a.74.74 0 0 1-.188-.829l2.156-5.196-3.465-2.1c-2.686 1.021-5.665 4.278-5.665 7.226 0 1.256.575 2.376 1.983 3.865a.733.733 0 0 1 .137.811c-6.679 14.713-12.934 24.588-16.369 28.133.45.777 1.541 1.654 2.344 1.868 3.701-3.523 10.475-15.13 16.28-27.934a.732.732 0 0 1 .671-.431v-.004Z"/><path fill="#F0F230" d="M190.511 178.15c-5.499 9.587-12.34 17.694-20.029 17.694-6.207 0-10.368-4.724-5.289-17.414l8.179-20.093h9.944l-9.026 22.348c-3.174 7.896-1.906 8.954-.564 8.954 3.103 0 8.252-5.568 13.187-14.098 1.338.07 3.174 1.411 3.598 2.609Zm-14.176-28.833a5.506 5.506 0 0 1 5.499-5.498c3.03 0 5.643 2.469 5.643 5.498 0 3.029-2.609 5.641-5.643 5.641-3.033 0-5.499-2.609-5.499-5.641Z"/><path fill="#3B597A" d="M170.482 196.581c-3.103 0-5.484-1.098-6.889-3.173-2.163-3.194-1.853-8.327.915-15.251l8.182-20.096a.74.74 0 0 1 .682-.461h9.944a.737.737 0 0 1 .686 1.013l-9.027 22.348c-2.355 5.859-2.012 7.377-1.754 7.757.044.062.125.184.505.184 2.292 0 7.058-4.245 12.55-13.733.14-.24.405-.38.678-.369 1.625.085 3.73 1.622 4.253 3.099a.74.74 0 0 1-.055.612c-6.878 11.986-13.829 18.066-20.666 18.066l-.004.004Zm3.387-37.503-7.994 19.632c-2.54 6.349-2.908 11.146-1.062 13.873 1.412 2.085 3.863 2.524 5.669 2.524 6.211 0 12.668-5.719 19.199-16.994-.431-.73-1.507-1.522-2.384-1.761-5.153 8.795-10.21 14.027-13.568 14.027-.774 0-1.352-.28-1.728-.832-.601-.892-.962-2.734 1.607-9.135l8.617-21.334h-8.356Zm7.965-3.383c-3.379 0-6.236-2.918-6.236-6.378a6.229 6.229 0 0 1 6.236-6.235c3.439 0 6.381 2.856 6.381 6.235 0 3.379-2.923 6.378-6.381 6.378Zm0-11.139a4.766 4.766 0 0 0-4.762 4.761c0 2.623 2.182 4.904 4.762 4.904 2.58 0 4.906-2.292 4.906-4.904 0-2.613-2.244-4.761-4.906-4.761Z"/><path fill="#F0F230" d="M227.472 177.91c-5.359 9.448-13.892 17.694-25.598 17.694-8.533 0-10.932-4.37-10.932-4.37l3.314-3.032s1.057 1.481 2.255 1.481c4.232 0 11.493-15.015 11.493-21.574 0-1.975-.704-2.963-2.186-2.963-2.54 0-5.643 2.609-7.969 5.922l-15.163 37.577h-9.944l20.448-50.548h9.875l-1.198 3.033c.07-.14 3.523-3.946 8.532-3.946 5.289 0 7.545 4.3 7.545 9.447 0 9.164-7.121 21.007-10.014 23.899 5.993-2.325 11.072-6.908 15.937-15.229 1.338.07 3.174 1.412 3.597 2.609h.008Z"/><path fill="#3B597A" d="M182.693 209.382h-9.944a.737.737 0 0 1-.686-1.014l20.453-50.547a.736.736 0 0 1 .682-.461h9.874a.742.742 0 0 1 .685 1.01l-.106.265c1.621-1.094 3.958-2.188 6.752-2.188 5.108 0 8.282 3.902 8.282 10.184 0 7.642-4.777 17.039-8.194 21.899 4.796-2.628 8.898-7.023 12.746-13.601a.737.737 0 0 1 .674-.364c1.626.084 3.73 1.621 4.254 3.098a.732.732 0 0 1-.056.608c-6.608 11.652-15.929 18.07-26.239 18.07-8.359 0-11.153-4.053-11.532-4.679l-6.963 17.259a.732.732 0 0 1-.682.461Zm-8.849-1.474h8.352l14.975-37.113a.698.698 0 0 1 .081-.147c2.116-3.014 5.481-6.235 8.573-6.235 1.091 0 2.923.479 2.923 3.7 0 6.643-7.239 22.311-12.233 22.311-.969 0-1.806-.645-2.318-1.161l-2.275 2.082c.867 1.054 3.579 3.53 9.956 3.53 12.944 0 21.012-10.494 24.768-16.994-.431-.733-1.511-1.526-2.388-1.765-4.685 7.874-9.797 12.679-16.048 15.107a.737.737 0 0 1-.789-1.208c2.842-2.841 9.797-14.555 9.797-23.38 0-2.62-.663-8.711-6.808-8.711-4.588 0-7.762 3.445-7.928 3.63a.74.74 0 0 1-.906.254.734.734 0 0 1-.384-.943l.8-2.023h-8.293l-19.855 49.073v-.007Zm24.661-36.483-7.604 18.848 2.861-2.617a.736.736 0 0 1 1.098.118c.217.302.995 1.172 1.659 1.172 3.416 0 10.758-14.216 10.758-20.837 0-2.226-.943-2.226-1.448-2.226-2.068 0-4.935 2.171-7.316 5.538l-.008.004Z"/><path fill="#90A8EE" d="M76.384 46.107c-5.923 10.435-9.874 14.098-18.407 13.184l-4.02 15.37-8.463-5.428 3.383-12.477c-3.667-1.481-7.475-3.453-10.932-5.288-4.725 7.333-10.788 12.62-19.32 12.62-9.027 0-14.246-5.71-14.246-12.76 0-7.049 5.569-13.957 15.723-13.957 5.006 0 9.52 1.62 13.962 3.666l14.316-24.11c4.09-6.838 6.417-12.406 12.903-12.406 5.5 0 9.945 4.44 8.11 11.563l-9.661 36.66c4.021.14 7.405-.21 13.047-9.235 1.342.07 3.174 1.412 3.598 2.61l.007-.012Zm-46.26 1.551c-3.244-1.48-6.627-2.538-9.73-2.538-5.5 0-7.615 3.102-7.615 5.851 0 3.033 2.75 5.078 6.063 5.078 2.115 0 6.557-1.412 11.282-8.39Zm20.662 2.185 9.38-34.12-.703-.28-17.7 29.68c3.174 1.692 6.348 3.453 9.027 4.724l-.004-.004Z"/><path fill="#3B597A" d="M53.96 75.393a.738.738 0 0 1-.398-.118l-8.463-5.427a.738.738 0 0 1-.313-.814L48 57.184c-3.343-1.393-6.767-3.155-9.8-4.758-5.537 8.335-11.943 12.392-19.572 12.392-8.82 0-14.983-5.549-14.983-13.497 0-7.303 5.654-14.695 16.465-14.695 5.156 0 9.778 1.706 13.666 3.46l13.977-23.541c.498-.833.97-1.648 1.426-2.433C52.526 8.34 55.172 3.777 61.295 3.777c3.022 0 5.724 1.249 7.412 3.43 1.81 2.336 2.31 5.55 1.408 9.054L60.69 52.025c3.126.048 6.28-.608 11.47-8.914a.745.745 0 0 1 .664-.346c1.625.085 3.73 1.621 4.253 3.099a.732.732 0 0 1-.055.608c-5.64 9.934-9.709 14.337-18.492 13.611l-3.862 14.761a.74.74 0 0 1-.715.553l.007-.004Zm-7.608-6.492 7.155 4.587 3.763-14.385a.737.737 0 0 1 .792-.545c7.626.822 11.426-1.872 17.5-12.484-.435-.737-1.522-1.533-2.403-1.769-5.562 8.744-9.089 9.323-13.438 9.168a.741.741 0 0 1-.69-.925l9.661-36.66c.796-3.09.398-5.78-1.15-7.778-1.408-1.816-3.686-2.86-6.247-2.86-5.271 0-7.608 4.028-10.837 9.603-.46.792-.932 1.61-1.433 2.447L34.709 41.41a.743.743 0 0 1-.944.294c-3.866-1.78-8.514-3.6-13.655-3.6-10.298 0-14.99 6.854-14.99 13.22 0 7.193 5.429 12.024 13.508 12.024 7.261 0 13.376-4.016 18.702-12.281a.734.734 0 0 1 .965-.25c3.321 1.76 7.173 3.765 10.862 5.254.347.14.535.516.435.877L46.35 68.905l.003-.004ZM18.845 56.78c-3.877 0-6.8-2.497-6.8-5.81 0-3.313 2.584-6.588 8.352-6.588 2.875 0 6.251.877 10.037 2.605a.734.734 0 0 1 .306 1.083c-5.474 8.084-10.487 8.714-11.895 8.714v-.003Zm1.552-10.928c-5.079 0-6.877 2.756-6.877 5.114s2.288 4.337 5.325 4.337c2.415 0 6.307-1.945 10.17-7.34-3.262-1.404-6.16-2.111-8.618-2.111Zm30.393 4.724a.747.747 0 0 1-.317-.07c-2.06-.977-4.364-2.218-6.807-3.53-.745-.402-1.5-.807-2.252-1.209a.748.748 0 0 1-.365-.453.73.73 0 0 1 .077-.575l17.7-29.68a.737.737 0 0 1 .906-.306l.704.28c.35.14.538.52.438.88l-9.38 34.121a.75.75 0 0 1-.402.475.739.739 0 0 1-.306.067h.004Zm-7.998-5.745c.527.284 1.054.564 1.574.848 2.112 1.138 4.124 2.218 5.945 3.113l8.452-30.741-15.971 26.78Z"/><path fill="#90A8EE" d="M68.375 107.104c1.268-1.975 2.326-4.16 3.173-6.275l7.191-17.838c1.976-4.863 6.701-9.867 13.048-9.867l1.832 5.497s-3.667 1.412-5.853 6.77c0 0-7.405 18.257-7.405 18.327-1.198 3.103-2.75 6.205-4.725 8.954 2.89 2.115 5.783 3.806 9.38 3.806 11.072 0 19.675-16.003 19.675-29.326 0-9.942-4.795-17.625-16.007-17.625-12.48 0-19.111 9.798-19.111 16.92 0 3.527 1.622 6.556 1.622 6.556l-6.701 5.004s-3.033-4.37-3.033-11.28c0-12.97 10.578-24.956 27.853-24.956 16.077 0 25.104 10.222 25.104 25.38 0 16.287-10.295 37.504-28.982 37.504-6.346 0-9.944-2.539-14.669-6.415-3.527 3.032-8.109 5.077-13.611 5.077-9.237 0-12.554-5.781-12.554-10.435 0-4.654 3.383-10.645 11.566-10.645 3.95 0 7.404 1.411 12.2 4.864l.007.003Zm-4.441 5.358c-3.104-2.469-5.36-3.666-7.545-3.666-2.75 0-4.302 1.761-4.302 3.596 0 2.045 1.976 3.102 4.656 3.102 2.68 0 5.149-1.197 7.194-3.032h-.003Z"/><path fill="#3B597A" d="M85.44 125.395c-6.38 0-10.176-2.546-14.662-6.194-3.907 3.18-8.599 4.857-13.615 4.857-9.181 0-13.291-5.612-13.291-11.172 0-4.577 3.277-11.382 12.303-11.382 3.914 0 7.324 1.282 11.99 4.546.984-1.621 1.887-3.467 2.702-5.493l7.194-17.838c2.09-5.144 7.143-10.332 13.73-10.332a.74.74 0 0 1 .7.504l1.832 5.498a.736.736 0 0 1-.435.921c-.03.011-3.41 1.397-5.437 6.36-1.986 4.897-7.157 17.661-7.386 18.277-.004.014-.01.029-.015.04-1.238 3.202-2.712 6.065-4.39 8.515 2.772 1.964 5.308 3.243 8.356 3.243 10.49 0 18.938-15.642 18.938-28.59 0-10.734-5.566-16.887-15.27-16.887-11.99 0-18.374 9.4-18.374 16.183 0 3.287 1.519 6.18 1.537 6.21.17.32.081.718-.21.935l-6.7 5.004a.738.738 0 0 1-1.048-.17c-.129-.188-3.162-4.642-3.162-11.699 0-12.454 10.022-25.693 28.59-25.693 15.942 0 25.842 10.008 25.842 26.117 0 8.7-2.846 18.147-7.608 25.27-3.958 5.918-11.01 12.974-22.11 12.974v-.004Zm-14.666-7.889c.166 0 .332.056.469.166 4.6 3.773 8.071 6.249 14.2 6.249 18.43 0 28.245-21.353 28.245-36.766 0-15.413-9.336-24.643-24.367-24.643-17.614 0-27.116 12.48-27.116 24.22 0 5.077 1.714 8.765 2.506 10.199l5.558-4.153c-.486-1.08-1.433-3.541-1.433-6.33 0-7.403 6.896-17.658 19.848-17.658 5.558 0 9.86 1.802 12.778 5.354 2.595 3.158 3.966 7.657 3.966 13.007 0 13.903-8.916 30.064-20.412 30.064-3.88 0-7.01-1.897-9.815-3.95a.735.735 0 0 1-.162-1.024c1.78-2.48 3.34-5.439 4.637-8.788l.014.007c.247-.718 1.464-3.721 7.394-18.346 1.75-4.297 4.42-6.19 5.632-6.868l-1.46-4.374c-5.646.269-9.992 4.853-11.835 9.396l-7.19 17.834c-.959 2.391-2.046 4.543-3.237 6.397a.74.74 0 0 1-1.05.199c-4.722-3.401-8.02-4.724-11.769-4.724-7.943 0-10.829 5.925-10.829 9.908 0 4.827 3.653 9.698 11.817 9.698 4.861 0 9.402-1.695 13.129-4.897a.735.735 0 0 1 .479-.177h.003Zm-14.031-1.275c-3.325 0-5.393-1.47-5.393-3.839 0-2.1 1.766-4.333 5.039-4.333 2.267 0 4.589 1.109 8.005 3.824.17.137.273.339.277.557a.747.747 0 0 1-.244.571c-2.384 2.137-4.968 3.22-7.684 3.22Zm-.354-6.698c-2.34 0-3.564 1.437-3.564 2.859 0 2.196 2.996 2.366 3.918 2.366 2.093 0 4.113-.763 6.022-2.274-2.738-2.089-4.622-2.951-6.376-2.951Z"/><path fill="#90A8EE" d="M158.323 104.171c-5.429 9.518-12.06 17.694-20.239 17.694-7.051 0-7.615-5.781-7.615-5.781s-4.655 5.781-10.718 5.781c-5.005 0-7.615-3.946-7.615-8.814 0-7.542 6.207-29.61 19.181-29.61a7.843 7.843 0 0 1 7.899 5.711l1.975-4.794h9.945l-8.957 22.348c-3.103 7.683-1.975 8.954-.564 8.954 3.104 0 8.179-5.567 13.118-14.098 1.338.07 3.173 1.412 3.597 2.609h-.007Zm-26.796 4.16 5.005-12.336s0-4.3-3.243-4.3c-5.993 0-11.496 14.591-11.496 19.459 0 1.905.848 2.679 2.256 2.679 4.017 0 7.475-5.498 7.475-5.498l.003-.004Z"/><path fill="#3B597A" d="M138.084 122.606c-5.337 0-7.29-3.121-7.983-5.019-1.71 1.736-5.581 5.019-10.35 5.019-4.769 0-8.352-3.84-8.352-9.551 0-4.068 1.648-11.544 4.799-17.96 2.775-5.652 7.652-12.387 15.119-12.387 4.626 0 6.881 2.667 7.891 4.525l1.298-3.155a.738.738 0 0 1 .682-.457h9.944c.243 0 .472.122.612.325a.72.72 0 0 1 .073.685l-8.956 22.348c-2.359 5.84-2.005 7.366-1.747 7.753.044.066.129.188.497.188 2.256 0 6.989-4.245 12.481-13.733.14-.24.405-.38.678-.369 1.625.085 3.73 1.621 4.253 3.099a.742.742 0 0 1-.055.612c-7.033 12.325-13.667 18.066-20.88 18.066l-.004.011Zm-7.615-7.255a.737.737 0 0 1 .734.663c.022.206.615 5.114 6.881 5.114s12.738-5.401 19.41-16.994c-.432-.733-1.508-1.521-2.385-1.765-5.153 8.796-10.184 14.028-13.498 14.028-.954 0-1.463-.457-1.721-.84-.608-.899-.973-2.749 1.6-9.127l8.551-21.335h-8.359l-1.788 4.337a.737.737 0 0 1-1.401-.114c-.051-.206-1.308-5.14-7.18-5.14-12.693 0-18.443 22.149-18.443 28.873 0 3.726 1.802 8.077 6.877 8.077 5.647 0 10.099-5.449 10.144-5.505a.74.74 0 0 1 .575-.276l.003.004Zm-6.417-.781c-1.116 0-2.992-.443-2.992-3.416 0-4.949 5.502-20.196 12.233-20.196 3.147 0 3.98 3.294 3.98 5.037a.71.71 0 0 1-.055.276l-5.005 12.337c-.015.04-.037.077-.059.114-.151.239-3.723 5.844-8.098 5.844l-.004.004Zm9.237-22.138c-5.289 0-10.759 13.902-10.759 18.722 0 1.706.73 1.942 1.519 1.942 3.376 0 6.468-4.566 6.818-5.104l4.925-12.13c-.03-.66-.284-3.43-2.503-3.43Z"/><path fill="#90A8EE" d="M214.914 104.484c-5.643 9.798-12.2 17.695-20.238 17.695-6.771 0-9.945-5.078-4.936-17.625l1.692-4.09c1.268-3.242 2.47-6.061 2.47-7.118 0-.918-.848-1.482-1.906-1.482-1.835 0-5.149 1.621-8.109 4.934l-9.874 24.463h-10.014c1.552-3.876 6.701-16.497 8.392-20.797 1.268-3.172 2.47-6.061 2.47-7.192 0-.848-.774-1.412-1.832-1.412-1.835 0-5.079 1.552-8.109 5.004l-9.874 24.393h-9.944l14.809-36.59h9.945l-1.482 3.737c1.412-1.341 6.063-4.654 10.932-4.654 3.951 0 6.417 2.326 6.347 5.922 2.539-2.469 7.545-5.922 12.55-5.922 4.091 0 6.487 2.255 6.487 5.922 0 2.045-.774 4.584-2.256 8.176l-3.667 9.164c-3.314 8.107-1.762 8.954-.564 8.954 3.103 0 8.179-5.568 13.118-14.098 1.338.07 3.173 1.412 3.597 2.609l-.004.007Z"/><path fill="#3B597A" d="M194.676 122.916c-3.104 0-5.448-1.043-6.786-3.018-2.115-3.121-1.725-8.376 1.165-15.62l1.695-4.097c.203-.516.406-1.036.605-1.533.888-2.24 1.806-4.558 1.806-5.306 0-.512-.605-.745-1.169-.745-1.658 0-4.743 1.578-7.474 4.595l-9.823 24.342a.731.731 0 0 1-.682.46h-10.014a.734.734 0 0 1-.686-1.009c.609-1.515 1.762-4.367 3.045-7.532 2.023-4.989 4.316-10.645 5.344-13.261l.306-.767c1.04-2.586 2.112-5.261 2.112-6.153 0-.46-.568-.675-1.095-.675-1.614 0-4.629 1.46-7.474 4.662l-9.827 24.275a.735.735 0 0 1-.682.46h-9.944a.736.736 0 0 1-.685-1.013l14.809-36.59a.736.736 0 0 1 .682-.46h9.944c.244 0 .472.122.608.324.137.203.166.46.078.686l-.494 1.241c2.234-1.485 5.658-3.169 9.255-3.169 2.234 0 4.087.686 5.363 1.987.825.843 1.367 1.905 1.596 3.124 3.007-2.546 7.541-5.11 11.938-5.11s7.224 2.55 7.224 6.658c0 2.02-.671 4.47-2.311 8.456l-3.664 9.157c-2.377 5.818-2.023 7.358-1.758 7.753.045.066.129.191.509.191 2.256 0 6.988-4.245 12.48-13.733a.758.758 0 0 1 .678-.368c1.626.084 3.73 1.621 4.254 3.099a.739.739 0 0 1-.056.611c-4.463 7.757-11.485 18.066-20.876 18.066l.004.012Zm-2.68-31.789c1.53 0 2.643.933 2.643 2.219 0 .976-.689 2.767-1.909 5.847-.199.498-.402 1.013-.609 1.54l-1.699 4.102c-2.657 6.654-3.11 11.581-1.312 14.237 1.065 1.574 2.938 2.37 5.566 2.37 6.505 0 12.679-5.402 19.409-16.994-.431-.73-1.507-1.522-2.385-1.762-5.152 8.796-10.183 14.028-13.497 14.028-.774 0-1.356-.284-1.732-.844-.564-.84-1.01-2.701 1.614-9.127l3.664-9.16c1.566-3.803 2.204-6.09 2.204-7.904 0-3.294-2.097-5.184-5.75-5.184-4.548 0-9.325 3.076-12.038 5.715a.736.736 0 0 1-1.249-.542c.029-1.477-.42-2.73-1.301-3.626-.992-1.01-2.481-1.544-4.309-1.544-4.681 0-9.207 3.295-10.423 4.452a.746.746 0 0 1-.922.077.739.739 0 0 1-.273-.88l1.08-2.727h-8.359l-14.212 35.115h8.352l9.686-23.932a.683.683 0 0 1 .129-.21c3.188-3.63 6.645-5.258 8.661-5.258 1.489 0 2.569.902 2.569 2.148 0 1.124-.844 3.28-2.215 6.702l-.306.763c-1.032 2.62-3.324 8.28-5.348 13.269-1.035 2.557-1.99 4.908-2.639 6.514h8.426l9.686-24.002a.802.802 0 0 1 .133-.214c3.181-3.56 6.719-5.18 8.658-5.18l.007-.008Z"/><path fill="#90A8EE" d="M250.335 104.484c-5.643 9.798-12.2 17.695-20.239 17.695-6.841 0-9.944-5.148-4.935-17.625l1.622-4.09c1.411-3.382 2.469-6.061 2.469-7.118 0-.918-.774-1.482-1.832-1.482-1.835 0-5.079 1.551-8.108 5.004l-9.875 24.393h-9.944l14.81-36.59h9.944l-1.482 3.737c1.412-1.341 6.063-4.654 10.932-4.654 4.021 0 6.347 2.185 6.347 5.921 0 1.975-.704 4.51-2.186 8.177l-3.667 9.164c-3.314 8.106-1.762 8.954-.564 8.954 3.104 0 8.109-5.568 13.118-14.098 1.338.07 3.173 1.411 3.597 2.609l-.007.003Z"/><path fill="#3B597A" d="M230.092 122.916c-3.158 0-5.451-1.017-6.807-3.026-2.116-3.124-1.714-8.379 1.187-15.612l1.621-4.086c.907-2.178 2.418-5.8 2.418-6.85 0-.708-.914-.745-1.094-.745-1.615 0-4.63 1.46-7.475 4.662l-9.827 24.275a.735.735 0 0 1-.681.46h-9.945a.738.738 0 0 1-.685-1.013l14.809-36.59a.738.738 0 0 1 .682-.46h9.944c.244 0 .472.122.609.324.136.203.165.46.077.686l-.494 1.241c2.234-1.485 5.658-3.169 9.255-3.169 4.438 0 7.084 2.491 7.084 6.659 0 2.041-.671 4.569-2.241 8.453l-3.667 9.164c-2.378 5.818-2.024 7.358-1.758 7.752.044.067.129.192.508.192 2.684 0 7.582-5.391 12.48-13.737a.73.73 0 0 1 .675-.361c1.625.085 3.73 1.621 4.253 3.099a.74.74 0 0 1-.055.612c-4.463 7.756-11.485 18.066-20.876 18.066l.003.004Zm-2.679-31.789c1.515 0 2.569.91 2.569 2.219 0 1.13-.888 3.474-2.525 7.402l-1.618 4.079c-2.672 6.658-3.133 11.581-1.334 14.238 1.069 1.577 2.948 2.377 5.587 2.377 6.506 0 12.679-5.402 19.41-16.994-.432-.734-1.511-1.522-2.389-1.765-2.705 4.55-8.897 14.027-13.497 14.027-.774 0-1.356-.283-1.732-.843-.564-.84-1.01-2.701 1.614-9.127l3.664-9.16c1.474-3.652 2.134-6.092 2.134-7.904 0-3.343-1.994-5.185-5.61-5.185-4.681 0-9.207 3.294-10.423 4.451a.745.745 0 0 1-.922.078.739.739 0 0 1-.273-.881l1.08-2.727h-8.359l-14.212 35.116h8.352l9.686-23.933a.684.684 0 0 1 .129-.21c3.188-3.63 6.645-5.258 8.661-5.258h.008Z"/><path fill="#90A8EE" d="M151.25 142.868c-2.61 0-7.195-.353-10.508-.847l-12.13 29.96c-6.207 15.723-15.728 18.402-22.001 18.402-10.932 0-16.501-7.613-16.501-15.369 0-8.39 6.557-15.793 16.785-15.015v8.25c-6.557-.494-8.392 3.876-8.392 6.839 0 3.946 3.173 7.049 7.614 7.049 6.771 0 10.932-5.992 14.81-15.649l10.578-26.225c-8.463-1.761-16.855-3.876-21.93-3.876-5.573 0-7.615 2.609-7.615 5.428 0 3.032 2.399 4.583 4.935 4.583 2.89 0 5.005-2.185 5.005-2.185l4.022 6.135s-3.458 3.737-9.521 3.737c-6.557 0-12.554-4.51-12.554-12.337 0-6.769 4.586-13.678 16.218-13.678s29.055 6.486 40.831 6.486c6.347 0 8.462-2.045 8.462-2.045l5.22 2.888s-1.058 7.473-13.328 7.473v-.004Zm-26.114 41.664c3.243-3.103 9.66-13.044 16.571-28.27-1.268-1.341-2.185-2.678-2.185-4.37 0-3.526 3.597-7.119 6.487-8.036l4.301 2.609-2.396 5.781c2.89 2.609 10.508 6.275 10.508 11.279 0 .847-.21 1.975-.847 3.596l-2.326 5.922c-3.384 8.176-1.412 9.024-.494 9.024 2.186 0 5.853-4.794 11.282-14.098 1.338.07 3.174 1.411 3.597 2.609-5.359 9.377-10.932 17.694-18.336 17.694-5.5 0-10.508-4.23-5.5-16.567l2.4-5.921c.564-1.412.634-2.115.634-2.395 0-1.412-1.268-2.469-3.527-4.44-6.137 13.534-13.048 25.166-16.712 28.409-1.268-.07-3.103-1.621-3.457-2.819v-.007Z"/><path fill="#3B597A" d="M106.611 191.12c-5.281 0-9.738-1.728-12.882-5.004-2.808-2.926-4.356-6.868-4.356-11.102 0-4.477 1.813-8.729 4.98-11.662 3.243-3.007 7.717-4.462 12.597-4.09.384.029.682.35.682.733v8.25a.738.738 0 0 1-.792.737c-2.488-.188-4.419.343-5.746 1.573-1.674 1.552-1.854 3.685-1.854 4.529 0 3.6 2.956 6.312 6.877 6.312 5.702 0 9.794-4.4 14.124-15.189l10.25-25.409c-1.481-.314-2.956-.634-4.408-.947-6.465-1.404-12.576-2.735-16.512-2.735-4.371 0-6.878 1.71-6.878 4.691 0 2.657 2.109 3.847 4.198 3.847 2.533 0 4.46-1.942 4.479-1.964a.74.74 0 0 1 1.142.111l4.021 6.135a.736.736 0 0 1-.073.902c-.151.163-3.749 3.973-10.062 3.973-6.314 0-13.291-4.492-13.291-13.074 0-6.647 4.44-14.415 16.954-14.415 5.617 0 12.65 1.555 20.095 3.202 7.305 1.614 14.857 3.287 20.736 3.287 5.879 0 7.936-1.824 7.958-1.842a.746.746 0 0 1 .862-.107l5.219 2.893a.736.736 0 0 1 .373.748c-.048.331-1.294 8.106-14.058 8.106-1.235 0-2.86-.077-4.567-.203l4.011 2.432a.74.74 0 0 1 .298.914l-2.193 5.288c.667.549 1.533 1.157 2.44 1.794 3.527 2.484 7.917 5.575 7.917 9.695 0 1.057-.295 2.321-.896 3.865l-2.325 5.921c-2.422 5.855-1.854 7.444-1.622 7.79.07.107.184.225.439.225 1.747 0 5.329-4.621 10.644-13.733a.725.725 0 0 1 .675-.365c1.625.085 3.73 1.621 4.253 3.099a.74.74 0 0 1-.055.611c-5.227 9.142-10.995 18.067-18.975 18.067-3.018 0-5.466-1.165-6.888-3.276-1.453-2.156-2.51-6.386.704-14.304l2.399-5.922c.538-1.348.582-1.964.582-2.118 0-.933-.892-1.798-2.528-3.236-6.008 13.1-12.731 24.438-16.483 27.758a.733.733 0 0 1-.531.184c-1.548-.085-3.667-1.806-4.12-3.346a.739.739 0 0 1 .199-.741c3.206-3.069 9.446-12.775 16.206-27.598-1.061-1.183-2.049-2.631-2.049-4.51 0-3.578 3.402-7.37 6.597-8.597a93.103 93.103 0 0 1-4.172-.46l-11.912 29.426c-6.152 15.586-15.731 18.862-22.686 18.862l.003-.011Zm-1.198-30.443c-3.936 0-7.393 1.286-10.058 3.758-2.864 2.653-4.508 6.511-4.508 10.579 0 7.045 4.932 14.632 15.764 14.632 9.314 0 16.686-6.201 21.315-17.934l12.13-29.967a.74.74 0 0 1 .793-.454c3.155.472 7.721.837 10.397.837 9.76 0 12.008-4.794 12.484-6.36l-4.313-2.388c-.947.634-3.483 1.905-8.521 1.905-6.041 0-13.674-1.687-21.057-3.32-7.04-1.555-14.319-3.165-19.774-3.165-11.415 0-15.48 6.684-15.48 12.941 0 7.616 5.945 11.599 11.816 11.599 4.501 0 7.512-2.203 8.566-3.113l-3.218-4.908c-.914.715-2.672 1.813-4.854 1.813-2.731 0-5.672-1.666-5.672-5.321 0-1.445.6-6.165 8.352-6.165 4.095 0 10.279 1.345 16.825 2.768 1.729.375 3.491.759 5.256 1.127a.735.735 0 0 1 .535.995l-10.579 26.224c-3.361 8.368-7.563 16.114-15.491 16.114-4.762 0-8.352-3.346-8.352-7.786 0-1.039.225-3.667 2.326-5.612 1.489-1.382 3.527-2.053 6.067-2.001v-6.78a16.899 16.899 0 0 0-.741-.015l-.008-.003Zm39.892-2.473c.177 0 .35.063.486.184l.236.207c2.208 1.931 3.538 3.095 3.538 4.786 0 .435-.118 1.249-.689 2.672l-2.399 5.925c-2.352 5.792-2.643 10.262-.848 12.93 1.537 2.284 4.209 2.623 5.665 2.623 7.099 0 12.546-8.346 17.508-16.994-.432-.733-1.508-1.522-2.385-1.765-5.838 9.956-9.229 14.028-11.666 14.028a1.947 1.947 0 0 1-1.666-.881c-.962-1.437-.479-4.436 1.478-9.16l2.322-5.91c.535-1.367.796-2.454.796-3.328 0-3.356-4.043-6.201-7.294-8.489-1.135-.8-2.207-1.552-2.97-2.244a.738.738 0 0 1-.188-.829l2.156-5.196-3.465-2.1c-2.687 1.021-5.665 4.278-5.665 7.226 0 1.256.575 2.376 1.983 3.865a.733.733 0 0 1 .136.811c-6.678 14.713-12.933 24.584-16.368 28.133.45.777 1.541 1.654 2.344 1.868 3.704-3.523 10.475-15.13 16.28-27.931a.733.733 0 0 1 .671-.431h.004Z"/><path fill="#90A8EE" d="M186.154 170.813c-5.499 9.588-12.34 17.694-20.028 17.694-6.207 0-10.368-4.723-5.289-17.414l8.178-20.092h9.945l-9.027 22.347c-3.173 7.897-1.906 8.954-.564 8.954 3.104 0 8.253-5.567 13.188-14.097 1.338.07 3.173 1.411 3.597 2.608Zm-14.175-28.833a5.505 5.505 0 0 1 5.499-5.497c3.03 0 5.643 2.468 5.643 5.497s-2.61 5.642-5.643 5.642c-3.034 0-5.499-2.609-5.499-5.642Z"/><path fill="#3B597A" d="M166.126 189.244c-3.104 0-5.485-1.098-6.889-3.172-2.164-3.195-1.854-8.328.914-15.251l8.182-20.097a.743.743 0 0 1 .682-.46h9.945a.738.738 0 0 1 .685 1.013l-9.026 22.348c-2.356 5.859-2.013 7.377-1.755 7.756.044.063.126.184.505.184 2.293 0 7.062-4.244 12.55-13.733a.743.743 0 0 1 .678-.368c1.626.085 3.73 1.621 4.254 3.099a.745.745 0 0 1-.055.612c-6.878 11.986-13.83 18.066-20.667 18.066l-.003.003Zm3.387-37.506-7.995 19.632c-2.539 6.349-2.908 11.15-1.061 13.873 1.412 2.085 3.863 2.524 5.669 2.524 6.21 0 12.668-5.719 19.199-16.994-.431-.73-1.508-1.522-2.385-1.761-5.153 8.795-10.209 14.027-13.571 14.027-.774 0-1.353-.28-1.728-.832-.601-.892-.962-2.734 1.607-9.131l8.617-21.335h-8.356l.004-.003Zm7.965-3.383c-3.38 0-6.236-2.918-6.236-6.378a6.228 6.228 0 0 1 6.236-6.235c3.439 0 6.38 2.856 6.38 6.235 0 3.379-2.923 6.378-6.38 6.378Zm0-11.139a4.766 4.766 0 0 0-4.762 4.761c0 2.623 2.182 4.904 4.762 4.904 2.58 0 4.906-2.292 4.906-4.904 0-2.613-2.245-4.761-4.906-4.761Z"/><path fill="#90A8EE" d="M223.115 170.574c-5.359 9.448-13.892 17.694-25.598 17.694-8.532 0-10.932-4.37-10.932-4.37l3.314-3.033s1.058 1.482 2.256 1.482c4.231 0 11.492-15.016 11.492-21.574 0-1.975-.704-2.963-2.186-2.963-2.539 0-5.643 2.609-7.968 5.921l-15.164 37.577h-9.944l20.449-50.547h9.874l-1.198 3.033c.07-.14 3.524-3.947 8.533-3.947 5.289 0 7.544 4.3 7.544 9.448 0 9.164-7.12 21.007-10.014 23.899 5.993-2.325 11.072-6.909 15.938-15.229 1.337.07 3.173 1.411 3.597 2.609h.007Z"/><path fill="#3B597A" d="M178.337 202.045h-9.945a.738.738 0 0 1-.685-1.013l20.449-50.547a.736.736 0 0 1 .681-.461h9.875c.243 0 .471.122.608.324a.744.744 0 0 1 .077.686l-.107.265c1.622-1.094 3.959-2.189 6.753-2.189 5.108 0 8.282 3.902 8.282 10.185 0 7.642-4.777 17.038-8.194 21.898 4.795-2.627 8.898-7.023 12.746-13.596.14-.24.398-.38.674-.365 1.625.085 3.73 1.621 4.253 3.099a.732.732 0 0 1-.055.608c-6.608 11.651-15.93 18.07-26.239 18.07-8.359 0-11.153-4.054-11.533-4.68l-6.966 17.259a.732.732 0 0 1-.682.461l.008-.004Zm-8.85-1.474h8.352l14.975-37.112a.732.732 0 0 1 .081-.148c2.116-3.014 5.481-6.234 8.574-6.234 1.091 0 2.922.479 2.922 3.699 0 6.644-7.238 22.311-12.229 22.311-.969 0-1.806-.645-2.318-1.16l-2.275 2.082c.867 1.053 3.579 3.529 9.956 3.529 12.944 0 21.012-10.494 24.768-16.994-.431-.733-1.511-1.521-2.388-1.765-4.685 7.875-9.797 12.68-16.048 15.108a.737.737 0 0 1-.789-1.209c2.842-2.841 9.797-14.554 9.797-23.379 0-2.62-.663-8.711-6.808-8.711-4.588 0-7.762 3.445-7.924 3.629a.742.742 0 0 1-.907.255.734.734 0 0 1-.383-.944l.8-2.023h-8.293l-19.856 49.074-.007-.008Zm24.662-36.482-7.604 18.847 2.86-2.616a.73.73 0 0 1 .575-.188c.21.022.402.133.523.306.218.302.996 1.172 1.659 1.172 3.417 0 10.755-14.216 10.755-20.837 0-2.226-.943-2.226-1.448-2.226-2.068 0-4.932 2.17-7.317 5.538l-.003.004Z"/><path fill="#fff" d="M61.888 9.053c-3.601-.088-6.048 2.782-7.943 5.465-2.138 3.029-4.26 6.069-6.391 9.105-.343.49-.089 1.227.398 1.51.553.325 1.168.093 1.511-.397l6.004-8.553c1.53-2.177 3.428-4.996 6.421-4.919 1.423.037 1.423-2.174 0-2.21ZM45.995 29.706c1.423 0 1.426-2.21 0-2.21s-1.426 2.21 0 2.21ZM19.94 42.257c.737-.045 1.478-.085 2.215-.048.173.007.347.025.52.04.125.015.107.011-.055-.01.051.007.103.014.158.025.078.015.155.026.232.044.181.037.362.081.538.136.078.023.152.048.225.074.06.022.391.162.107.037.284.125.542.195.852.11.258-.07.534-.268.66-.508.254-.479.169-1.264-.399-1.51-.862-.38-1.732-.572-2.676-.638-.792-.055-1.584-.011-2.377.037-.575.033-1.135.482-1.106 1.105.026.571.487 1.142 1.106 1.106Z"/><path fill="#fff" d="M13.332 44.346c.508-.361 1.039-.682 1.595-.958.505-.25.885-.402 1.464-.582 1.212-.38 2.289-.472 3.545-.55.575-.033 1.136-.482 1.106-1.105-.026-.567-.486-1.142-1.106-1.105-1.396.084-2.793.21-4.135.626a12.444 12.444 0 0 0-3.59 1.765c-.486.346-.715.966-.398 1.51.28.484 1.025.745 1.511.399h.008ZM84.087 81.219c-3.114 4.285-5.565 9.02-7.32 14.017-.199.563.225 1.208.775 1.36.611.165 1.16-.207 1.36-.774A52.629 52.629 0 0 1 86 82.335c.35-.482.082-1.23-.398-1.51-.56-.328-1.16-.089-1.51.398l-.005-.004ZM75.577 102.605c1.423 0 1.426-2.211 0-2.211s-1.426 2.211 0 2.211ZM66.938 89.506c-.118-3.412-.258-7.067 1.673-10.056.324-.5.103-1.22-.398-1.51-.535-.314-1.187-.107-1.511.398-2.145 3.316-2.109 7.369-1.976 11.172.048 1.418 2.263 1.426 2.212 0v-.004ZM51.402 108.213l.118-.095c-.126.095-.14.106-.044.036a8.617 8.617 0 0 1 1.22-.755l.272-.133c.045-.022.092-.04.137-.062.11-.048.092-.041-.055.022.14-.107.398-.155.567-.21a8.092 8.092 0 0 1 1.098-.284c.1-.018.2-.033.299-.051.122-.019.1-.015-.07.007.052-.007.1-.011.151-.019.302-.033.56-.103.782-.324.191-.191.335-.505.324-.781-.026-.545-.49-1.172-1.106-1.105a9.971 9.971 0 0 0-5.256 2.181c-.453.365-.409 1.19 0 1.562.21.192.487.336.782.325.31-.015.541-.129.78-.325v.011ZM142.349 90.6l-4.125 10.439c-.221.557.24 1.213.774 1.36.627.173 1.139-.214 1.36-.774l4.125-10.439c.221-.556-.24-1.212-.774-1.36-.627-.173-1.139.214-1.36.774ZM136.732 105.487l-.52 1.304a.822.822 0 0 0-.019.442.847.847 0 0 0 .133.413c.07.129.166.232.284.309a.83.83 0 0 0 .376.199c.284.063.601.052.851-.11l.225-.173c.136-.137.232-.302.284-.487l.52-1.304a.821.821 0 0 0 .018-.442.837.837 0 0 0-.133-.413.852.852 0 0 0-.283-.309.836.836 0 0 0-.376-.199c-.284-.063-.601-.052-.852.11l-.225.173a1.102 1.102 0 0 0-.283.487ZM129.931 86.672a5.01 5.01 0 0 0-2.248 1.36 1.15 1.15 0 0 0-.324.781c0 .273.121.593.324.781.203.188.486.336.781.325.295-.011.579-.107.782-.325.14-.147.291-.283.449-.409l-.224.174c.269-.207.56-.38.873-.513l-.265.111c.143-.059.287-.11.438-.155a1.14 1.14 0 0 0 .66-.508c.14-.243.199-.586.111-.852-.089-.265-.251-.526-.509-.659s-.56-.195-.851-.11h.003ZM125.49 91.986c1.423 0 1.426-2.211 0-2.211-1.427 0-1.427 2.21 0 2.21ZM176.597 89.138c.107-.048.085-.037-.074.029a5.32 5.32 0 0 1 .391-.133c.088-.026.177-.048.265-.066.074-.015.207-.015.269-.052l-.088.011c.044-.003.092-.01.136-.014.092-.008.185-.011.277-.015.173 0 .346.004.516.018.284.026-.21-.044.014 0 .093.019.181.034.27.052.18.04.357.092.53.155.044.014.085.033.129.048a1.368 1.368 0 0 0-.073-.03c.081.04.165.078.247.122a4.2 4.2 0 0 1 .468.29c.475.336 1.249.1 1.511-.397.298-.568.11-1.157-.398-1.51-.796-.56-1.74-.848-2.702-.94-.962-.093-1.928.121-2.812.52-.236.106-.443.42-.509.659-.074.265-.04.615.111.85.354.546.947.653 1.511.399l.011.004ZM201.432 89.163a7.666 7.666 0 0 0-4.173-2.446c-.564-.118-1.22.165-1.36.773-.125.553.166 1.235.774 1.36.424.089.833.218 1.231.383l-.265-.11a6.766 6.766 0 0 1 1.356.766c-.158-.121.045.037.074.06.092.073.181.15.266.231.187.173.364.358.53.55.38.438 1.18.42 1.563 0 .428-.469.405-1.095 0-1.563l.004-.004ZM161.791 88.504l-1.404 3.043c-.129.277-.195.55-.111.852.07.257.269.534.509.66.258.135.568.202.851.11.258-.085.542-.251.66-.509l1.404-3.043c.129-.277.196-.55.111-.852-.07-.258-.269-.534-.509-.66-.258-.136-.567-.202-.851-.11-.258.085-.542.25-.66.509ZM237.313 90.5c-.092-1.996-1.6-3.89-3.609-4.251-.298-.056-.582-.048-.851.11-.229.133-.45.398-.509.66-.062.283-.051.6.111.851.147.228.38.457.66.508.239.045.468.111.693.207l-.266-.11c.262.114.509.257.737.434l-.224-.173c.239.188.453.398.641.637l-.173-.224c.195.25.354.523.479.818l-.111-.266c.107.266.185.542.221.826l-.04-.295c.011.088.018.18.022.269.026.578.49 1.131 1.106 1.105.575-.025 1.135-.486 1.105-1.105h.008ZM207.801 116.618a19.263 19.263 0 0 1 1.161-3.979c.044-.1.088-.203.133-.302.095-.214.199-.428.302-.642.254-.519.158-1.219-.398-1.51-.498-.262-1.239-.159-1.511.398a20.537 20.537 0 0 0-1.818 5.449c-.103.568.155 1.22.774 1.36.542.122 1.25-.162 1.36-.774h-.003ZM99.42 140.156c.093-.375.2-.748.332-1.112.037-.1.074-.199.114-.295.07-.184-.014.033.034-.078a10.9 10.9 0 0 1 1.138-1.96c.115-.158-.018.019.052-.07.066-.085.133-.166.199-.247.24-.283.49-.556.756-.81.14-.137.283-.266.427-.395a4.13 4.13 0 0 1 .203-.169c.004-.004.269-.214.107-.089.615-.471 1.29-.862 1.997-1.179.546-.243.675-1.035.399-1.51-.329-.561-.966-.642-1.512-.398-3.155 1.415-5.569 4.377-6.38 7.73-.136.56.177 1.224.774 1.36.597.136 1.217-.17 1.36-.774v-.004ZM107.835 133.631c1.423 0 1.426-2.211 0-2.211s-1.426 2.211 0 2.211ZM102.022 163.337c-.283.033-.567.066-.84.151a4.719 4.719 0 0 0-.781.324 4.311 4.311 0 0 0-.682.468 3.408 3.408 0 0 0-.439.417c-.195.225-.324.475-.324.781 0 .273.122.593.324.781.203.188.487.335.782.324.295-.011.593-.103.781-.324.136-.158.288-.298.45-.427l-.225.173c.206-.159.431-.288.671-.391l-.266.111c.24-.1.491-.17.749-.207l-.295.041.092-.011a.82.82 0 0 0 .427-.096.854.854 0 0 0 .358-.228c.192-.192.335-.505.324-.781-.011-.277-.107-.583-.324-.782-.203-.184-.498-.357-.782-.324ZM143.547 148.945c-.354.272-.642.545-.881.932a3.053 3.053 0 0 0-.387.95c-.17.782-.081 1.57.291 2.281.269.512 1.024.711 1.511.398.52-.335.685-.965.398-1.511a1.377 1.377 0 0 1-.077-.165l.11.265a2.32 2.32 0 0 1-.133-.486l.041.294a2.151 2.151 0 0 1 0-.578l-.041.295a2.4 2.4 0 0 1 .163-.597l-.111.265c.074-.166.162-.324.273-.468l-.173.225c.099-.125.206-.236.331-.335l-.224.173.029-.022c.24-.185.424-.358.509-.66.073-.265.04-.615-.111-.851s-.38-.442-.66-.509c-.28-.066-.623-.066-.851.111l-.007-.007ZM152.215 161.896c.067.067.126.137.188.203.074.092.059.07-.044-.063.026.037.056.074.081.115.052.077.1.154.144.235.022.041.089.233.125.247-.066-.158-.073-.18-.033-.073.015.044.033.088.048.129.03.088.055.176.078.265.018.074.014.21.055.273-.022-.181-.026-.21-.015-.089l.011.136c.004.093.004.185 0 .277 0 .048-.004.092-.007.136-.011.122-.008.092.014-.088-.07.166-.077.383-.136.56-.14.409-.332.799-.409 1.227-.107.567.158 1.219.774 1.359.546.126 1.246-.165 1.36-.773.092-.483.324-.914.461-1.382.136-.468.191-.977.147-1.459-.099-1.061-.512-2.053-1.275-2.808-.409-.409-1.157-.442-1.563 0-.405.442-.438 1.128 0 1.562l-.004.011ZM152.625 170.08c1.422 0 1.426-2.211 0-2.211-1.427 0-1.427 2.211 0 2.211ZM165.709 183.482c-.107-.1-.21-.199-.309-.31a4.42 4.42 0 0 1-.207-.236l.096.125c-.14-.243-.317-.46-.45-.711-.033-.066-.066-.129-.096-.195-.036-.077-.088-.273.012.033-.045-.129-.096-.254-.137-.383a4.77 4.77 0 0 1-.18-.822l.04.295a5.041 5.041 0 0 1-.022-.998c.044-.579-.542-1.132-1.106-1.106-.637.03-1.058.486-1.105 1.106-.137 1.753.6 3.581 1.898 4.764.427.39 1.146.453 1.562 0 .391-.424.457-1.146 0-1.562h.004ZM163.785 178.411c1.423 0 1.427-2.21 0-2.21-1.426 0-1.426 2.21 0 2.21ZM190.371 156.815a112.344 112.344 0 0 0-3.929 8.869c-.218.557.239 1.213.774 1.36.626.173 1.142-.214 1.36-.774a105.157 105.157 0 0 1 3.704-8.338c.265-.535.144-1.198-.398-1.511-.49-.288-1.246-.14-1.511.398v-.004ZM206.05 156.642c.133.037.265.077.394.125-.173-.066.148.078.203.111.122.066.236.143.35.225-.092-.067-.037-.03.022.018.052.044.104.092.155.14.1.096.192.199.28.302-.073-.088-.025-.037.015.026.041.063.081.122.118.184a3.3 3.3 0 0 1 .21.405c-.044-.11 0 .012.015.056.029.092.059.18.085.272.04.148.073.295.103.446 0 .019.033.229.022.137a6.57 6.57 0 0 1 .011 1.112c-.041.656-.166 1.261-.306 1.968-.111.564.162 1.22.774 1.36.549.125 1.239-.166 1.36-.774.328-1.655.653-3.416.1-5.059-.52-1.555-1.729-2.756-3.321-3.188-.557-.151-1.228.188-1.36.774-.133.586.173 1.198.774 1.36h-.004ZM207.734 167.482c1.423 0 1.427-2.21 0-2.21-1.426 0-1.426 2.21 0 2.21ZM197.097 185.471c1.559-.541 2.916-1.647 3.671-3.128.137-.265.192-.56.111-.851-.07-.258-.269-.534-.509-.66-.505-.265-1.231-.155-1.511.398-.147.288-.317.56-.512.815l.173-.225a5.773 5.773 0 0 1-.969.976l.224-.173c-.364.28-.759.516-1.183.696l.266-.11a7.318 7.318 0 0 1-.343.133c-.273.095-.512.25-.66.508-.14.236-.199.586-.11.851.173.538.774.977 1.36.774l-.008-.004Z"/></g><defs><clipPath id="a"><path fill="#fff" d="M0 0h259v213H0z"/></clipPath></defs></svg>